<?xml version="1.0" standalone="no"?><!DOCTYPE svg PUBLIC "-//W3C//DTD SVG 1.1//EN" "http://www.w3.org/Graphics/SVG/1.1/DTD/svg11.dtd"><svg height="1024" node-id="1" sillyvg="true" template-height="1024" template-width="1024" version="1.1" viewBox="0 0 1024 1024" width="1024" xmlns="http://www.w3.org/2000/svg" xmlns:xlink="http://www.w3.org/1999/xlink"><defs node-id="182"><linearGradient gradientUnits="userSpaceOnUse" id="SVGID_1_" node-id="29" spreadMethod="pad" x1="12" x2="1017.9999" y1="740.2271" y2="740.2271"><stop offset="0" stop-color="#d7d8d5"></stop><stop offset="1" stop-color="#f6f6f9"></stop></linearGradient><linearGradient gradientUnits="userSpaceOnUse" id="SVGID_2_" node-id="34" spreadMethod="pad" x1="12.2792" x2="1018" y1="585.4771" y2="585.4771"><stop offset="0" stop-color="#f6f6f9"></stop><stop offset="1" stop-color="#d7d8d5"></stop></linearGradient><linearGradient gradientUnits="userSpaceOnUse" id="SVGID_3_" node-id="39" spreadMethod="pad" x1="73.6935" x2="852.1283" y1="551.442" y2="551.442"><stop offset="0" stop-color="#6386db"></stop><stop offset="1" stop-color="#8eb0ec"></stop></linearGradient><linearGradient gradientUnits="userSpaceOnUse" id="SVGID_4_" node-id="46" spreadMethod="pad" x1="276.6776" x2="307.2467" y1="149.4122" y2="149.4122"><stop offset="0" stop-color="#ffcb27"></stop><stop offset="1" stop-color="#ffa21e"></stop></linearGradient><linearGradient gradientUnits="userSpaceOnUse" id="SVGID_5_" node-id="50" spreadMethod="pad" x1="276.6775" x2="392.5883" y1="74.0455" y2="74.0455"><stop offset="0" stop-color="#ffcb27"></stop><stop offset="1" stop-color="#ffa21e"></stop></linearGradient><linearGradient gradientUnits="userSpaceOnUse" id="SVGID_6_" node-id="55" spreadMethod="pad" x1="306.8627" x2="392.5882" y1="148.7711" y2="148.7711"><stop offset="0" stop-color="#ffcb27"></stop><stop offset="1" stop-color="#ffa21e"></stop></linearGradient><linearGradient gradientUnits="userSpaceOnUse" id="SVGID_7_" node-id="62" spreadMethod="pad" x1="255.6445" x2="371.2004" y1="254.7401" y2="254.7401"><stop offset="0" stop-color="#00c692"></stop><stop offset="1" stop-color="#00ab7e"></stop></linearGradient><linearGradient gradientUnits="userSpaceOnUse" id="SVGID_9_" node-id="69" spreadMethod="pad" x1="341.0153" x2="374.0483" y1="183.2605" y2="183.2605"><stop offset="0" stop-color="#00c692"></stop><stop offset="1" stop-color="#00ab7e"></stop></linearGradient><linearGradient gradientUnits="userSpaceOnUse" id="SVGID_11_" node-id="76" spreadMethod="pad" x1="341.0153" x2="373.4007" y1="183.0794" y2="183.0794"><stop offset="0" stop-color="#00c692"></stop><stop offset="1" stop-color="#00ab7e"></stop></linearGradient><linearGradient gradientUnits="userSpaceOnUse" id="SVGID_12_" node-id="80" spreadMethod="pad" x1="343.2157" x2="374.0483" y1="183.8354" y2="183.8354"><stop offset="0" stop-color="#00c692"></stop><stop offset="1" stop-color="#00ab7e"></stop></linearGradient><linearGradient gradientUnits="userSpaceOnUse" id="SVGID_14_" node-id="87" spreadMethod="pad" x1="141.7182" x2="285.4455" y1="330.2178" y2="330.2178"><stop offset="0" stop-color="#00c692"></stop><stop offset="1" stop-color="#00ab7e"></stop></linearGradient><linearGradient gradientUnits="userSpaceOnUse" id="SVGID_16_" node-id="93" spreadMethod="pad" x1="141.7183" x2="285.4457" y1="330.2178" y2="330.2178"><stop offset="0" stop-color="#00c692"></stop><stop offset="1" stop-color="#00ab7e"></stop></linearGradient><linearGradient gradientUnits="userSpaceOnUse" id="SVGID_17_" node-id="98" spreadMethod="pad" x1="171.9032" x2="408.5892" y1="336.6209" y2="336.6209"><stop offset="0" stop-color="#00c692"></stop><stop offset="1" stop-color="#00ab7e"></stop></linearGradient><linearGradient gradientUnits="userSpaceOnUse" id="SVGID_18_" node-id="105" spreadMethod="pad" x1="415.2693" x2="483.6823" y1="442.1919" y2="442.1919"><stop offset="0" stop-color="#ffcb27"></stop><stop offset="1" stop-color="#ffa21e"></stop></linearGradient><linearGradient gradientUnits="userSpaceOnUse" id="SVGID_19_" node-id="110" spreadMethod="pad" x1="347.0476" x2="415.9043" y1="442.1922" y2="442.1922"><stop offset="0" stop-color="#ffcb27"></stop><stop offset="1" stop-color="#ffa21e"></stop></linearGradient><linearGradient gradientUnits="userSpaceOnUse" id="SVGID_20_" node-id="115" spreadMethod="pad" x1="347.6827" x2="483.6823" y1="313.5189" y2="313.5189"><stop offset="0" stop-color="#ffcb27"></stop><stop offset="1" stop-color="#ffa21e"></stop></linearGradient><linearGradient gradientUnits="userSpaceOnUse" id="SVGID_21_" node-id="122" spreadMethod="pad" x1="518.008" x2="586.6332" y1="464.5838" y2="464.5838"><stop offset="0" stop-color="#ffcb27"></stop><stop offset="1" stop-color="#ffa21e"></stop></linearGradient><linearGradient gradientUnits="userSpaceOnUse" id="SVGID_22_" node-id="127" spreadMethod="pad" x1="449.7864" x2="518.8547" y1="464.5842" y2="464.5842"><stop offset="0" stop-color="#ffcb27"></stop><stop offset="1" stop-color="#ffa21e"></stop></linearGradient><linearGradient gradientUnits="userSpaceOnUse" id="SVGID_23_" node-id="132" spreadMethod="pad" x1="450.6332" x2="586.6332" y1="299.4336" y2="299.4336"><stop offset="0" stop-color="#ffcb27"></stop><stop offset="1" stop-color="#ffa21e"></stop></linearGradient><linearGradient gradientUnits="userSpaceOnUse" id="SVGID_24_" node-id="139" spreadMethod="pad" x1="649.9489" x2="718.9974" y1="468.6113" y2="468.6113"><stop offset="0" stop-color="#ffcb27"></stop><stop offset="1" stop-color="#ffa21e"></stop></linearGradient><linearGradient gradientUnits="userSpaceOnUse" id="SVGID_25_" node-id="144" spreadMethod="pad" x1="581.7273" x2="651.219" y1="468.6117" y2="468.6117"><stop offset="0" stop-color="#ffcb27"></stop><stop offset="1" stop-color="#ffa21e"></stop></linearGradient><linearGradient gradientUnits="userSpaceOnUse" id="SVGID_26_" node-id="149" spreadMethod="pad" x1="582.9974" x2="718.9974" y1="230.5067" y2="230.5067"><stop offset="0" stop-color="#ffcb27"></stop><stop offset="1" stop-color="#ffa21e"></stop></linearGradient><linearGradient gradientUnits="userSpaceOnUse" id="SVGID_30_" node-id="166" spreadMethod="pad" x1="725.9146" x2="849.6042" y1="740.1766" y2="740.1766"><stop offset="0" stop-color="#d7d8d5"></stop><stop offset="1" stop-color="#f6f6f9"></stop></linearGradient><clipPath id="SVGID_10_" node-id="73"><path d="M 343.90 175.40 L 374.10 192.50 C 373.20 192.00 372.20 191.50 371.30 191.00 L 341.00 173.90 C 342.00 174.40 342.90 174.90 343.90 175.40 Z" fill="#000000" fill-rule="nonzero" node-id="323" stroke="none" target-height="18.600006" target-width="33.100006" target-x="341" target-y="173.9"></path></clipPath><clipPath id="SVGID_15_" node-id="91"><path d="M 206.40 474.40 L 176.20 457.30 C 155.00 445.20 141.80 419.60 141.70 383.10 C 141.50 311.40 191.90 224.40 255.20 186.10 L 285.40 203.20 C 222.10 241.50 171.70 328.50 171.90 400.20 C 172.00 436.70 185.20 462.30 206.40 474.40 Z" fill="#000000" fill-rule="nonzero" node-id="327" stroke="none" target-height="288.3" target-width="143.9" target-x="141.5" target-y="186.1"></path></clipPath></defs><g node-id="496"><g node-id="503"><g node-id="511"><path d="M 1017.80 658.40 C 1017.70 659.10 1017.70 659.80 1017.60 660.40 C 1017.50 660.90 1017.30 661.50 1017.20 662.00 C 1017.00 662.60 1016.90 663.30 1016.60 663.90 C 1016.40 664.40 1016.20 664.90 1015.90 665.50 C 1015.60 666.20 1015.30 666.80 1014.90 667.50 C 1014.60 668.00 1014.30 668.40 1014.00 668.90 C 1013.50 669.60 1013.00 670.40 1012.50 671.10 C 1012.00 671.80 1011.40 672.50 1010.80 673.10 C 1010.60 673.30 1010.50 673.50 1010.30 673.60 C 1009.50 674.50 1008.50 675.40 1007.60 676.20 C 1007.00 676.70 1006.30 677.30 1005.60 677.80 C 1005.00 678.30 1004.40 678.80 1003.80 679.20 C 1003.10 679.70 1002.30 680.20 1001.50 680.70 C 1000.70 681.20 999.90 681.80 999.00 682.30 L 687.90 859.10 C 686.00 860.20 683.90 861.20 681.80 862.10 C 681.20 862.40 680.60 862.60 680.00 862.90 C 678.40 863.60 676.70 864.20 675.00 864.80 C 674.40 865.00 673.70 865.20 673.10 865.40 C 672.00 865.70 670.90 866.00 669.80 866.30 C 668.90 866.50 668.10 866.80 667.20 867.00 C 666.00 867.30 664.80 867.50 663.60 867.70 C 662.80 867.90 662.00 868.00 661.10 868.20 C 658.70 868.60 656.20 869.00 653.70 869.20 C 652.90 869.30 652.20 869.30 651.40 869.40 C 649.90 869.50 648.40 869.60 646.90 869.70 C 646.00 869.70 645.00 869.80 644.10 869.80 C 642.90 869.80 641.70 869.80 640.50 869.80 C 639.50 869.80 638.50 869.80 637.50 869.70 C 636.40 869.70 635.30 869.60 634.20 869.50 C 633.20 869.40 632.20 869.40 631.20 869.30 C 630.10 869.20 629.00 869.10 627.90 868.90 C 626.90 868.80 626.00 868.60 625.00 868.50 C 623.80 868.30 622.70 868.10 621.50 867.90 C 620.60 867.70 619.70 867.60 618.80 867.40 C 617.40 867.10 616.10 866.80 614.70 866.40 C 614.00 866.20 613.20 866.00 612.50 865.80 C 610.10 865.10 607.80 864.40 605.50 863.50 C 604.40 863.10 603.30 862.60 602.20 862.20 C 601.60 862.00 601.10 861.70 600.50 861.50 C 598.90 860.70 597.30 859.90 595.80 859.10 L 31.40 540.70 C 18.60 533.50 12.20 524.00 12.30 514.50 L 12.00 610.70 C 12.00 620.20 18.40 629.70 31.10 636.90 L 595.60 955.30 C 597.10 956.20 598.70 957.00 600.30 957.70 C 600.80 958.00 601.40 958.20 602.00 958.40 C 603.00 958.80 603.90 959.20 604.90 959.60 C 605.00 959.60 605.20 959.70 605.30 959.70 C 607.50 960.60 609.90 961.30 612.30 962.00 C 612.50 962.10 612.60 962.10 612.80 962.20 C 613.30 962.40 613.90 962.50 614.50 962.60 C 615.80 962.90 617.20 963.30 618.60 963.60 C 619.00 963.70 619.30 963.80 619.60 963.80 C 620.10 963.90 620.70 964.00 621.30 964.10 C 622.50 964.30 623.60 964.50 624.80 964.70 C 625.20 964.80 625.70 964.90 626.10 964.90 C 626.60 965.00 627.10 965.00 627.70 965.10 C 628.80 965.20 629.90 965.40 631.00 965.50 C 631.50 965.50 632.00 965.60 632.50 965.70 C 633.00 965.70 633.50 965.70 634.00 965.80 C 635.10 965.90 636.20 965.90 637.30 966.00 C 637.80 966.00 638.40 966.10 638.90 966.10 C 639.30 966.10 639.80 966.10 640.20 966.10 C 641.40 966.10 642.60 966.10 643.80 966.10 C 644.40 966.10 645.00 966.10 645.60 966.10 C 645.90 966.10 646.30 966.00 646.60 966.00 C 648.10 965.90 649.60 965.80 651.10 965.70 C 651.70 965.70 652.30 965.60 652.90 965.60 C 653.10 965.60 653.20 965.50 653.40 965.50 C 655.90 965.20 658.40 964.90 660.80 964.50 C 660.90 964.50 661.10 964.50 661.20 964.40 C 661.90 964.30 662.60 964.10 663.30 964.00 C 664.50 963.80 665.70 963.50 666.90 963.20 C 667.80 963.00 668.60 962.80 669.50 962.50 C 670.60 962.20 671.70 961.90 672.80 961.60 C 673.00 961.50 673.30 961.50 673.60 961.40 C 674.00 961.30 674.40 961.10 674.80 961.00 C 676.50 960.40 678.20 959.80 679.80 959.10 C 680.40 958.80 681.00 958.60 681.70 958.30 C 683.80 957.40 685.90 956.40 687.80 955.30 L 999.00 778.60 C 999.30 778.40 999.50 778.30 999.80 778.10 C 1000.40 777.70 1000.90 777.40 1001.50 777.00 C 1002.30 776.50 1003.10 776.00 1003.80 775.50 C 1004.40 775.00 1005.00 774.60 1005.60 774.10 C 1006.30 773.60 1007.00 773.10 1007.60 772.50 C 1007.70 772.40 1007.90 772.30 1008.00 772.20 C 1008.80 771.40 1009.60 770.70 1010.40 769.90 C 1010.60 769.70 1010.70 769.60 1010.90 769.40 C 1011.30 768.90 1011.70 768.50 1012.10 768.00 C 1012.30 767.80 1012.40 767.60 1012.60 767.30 C 1013.20 766.60 1013.70 765.80 1014.10 765.10 C 1014.30 764.80 1014.60 764.50 1014.70 764.20 C 1014.80 764.00 1014.80 763.90 1014.90 763.70 C 1015.30 763.00 1015.60 762.40 1015.90 761.70 C 1016.10 761.30 1016.30 760.90 1016.40 760.60 C 1016.50 760.50 1016.50 760.30 1016.50 760.20 C 1016.70 759.60 1016.90 758.90 1017.10 758.30 C 1017.20 757.90 1017.40 757.50 1017.50 757.00 C 1017.50 756.90 1017.50 756.80 1017.50 756.60 C 1017.60 755.90 1017.70 755.30 1017.70 754.60 C 1017.70 754.20 1017.80 753.70 1017.90 753.30 C 1017.90 753.10 1017.90 752.90 1017.90 752.70 L 1018.20 656.50 C 1018.00 657.10 1017.90 657.70 1017.80 658.40 Z" fill="url(#SVGID_1_)" fill-rule="nonzero" group-id="1,8,16" node-id="338" stroke="none" target-height="451.59998" target-width="1006.2" target-x="12" target-y="514.5"></path><g node-id="528"><path d="M 998.90 630.30 C 1024.30 644.60 1024.40 668.10 999.20 682.40 L 687.90 859.10 C 662.70 873.40 621.30 873.40 595.90 859.10 L 31.40 540.70 C 6.00 526.30 5.90 502.90 31.10 488.60 L 342.30 311.90 C 367.50 297.60 408.90 297.60 434.30 311.90 L 998.90 630.30 Z" fill="url(#SVGID_2_)" fill-rule="nonzero" group-id="1,8,16,33" node-id="342" stroke="none" target-height="575.80005" target-width="1018.5" target-x="5.9" target-y="297.6"></path></g></g></g><path d="M 837.10 571.70 C 857.00 582.90 857.10 601.40 837.30 612.60 L 572.20 763.10 C 552.40 774.30 519.90 774.40 499.90 763.10 L 88.70 531.20 C 68.80 520.00 68.70 501.60 88.50 490.30 L 353.70 339.70 C 373.50 328.50 406.00 328.40 426.00 339.70 L 837.10 571.70 Z" fill="url(#SVGID_3_)" fill-rule="nonzero" group-id="1,9" node-id="349" stroke="none" target-height="446.00003" target-width="788.39996" target-x="68.7" target-y="328.4"></path></g><g node-id="497"><g node-id="505"><g node-id="512"><path d="M 307.20 224.10 L 277.10 207.00 L 276.70 74.70 L 306.90 91.80 Z" fill="url(#SVGID_4_)" fill-rule="nonzero" group-id="2,10,17" node-id="359" stroke="none" target-height="149.40001" target-width="30.5" target-x="276.7" target-y="74.7"></path></g><path d="M 362.40 62.60 C 361.20 62.00 359.90 61.40 358.60 60.90 C 358.60 60.90 358.50 60.90 358.50 60.90 C 356.70 60.20 354.90 59.60 353.00 59.00 C 352.80 58.90 352.60 58.90 352.40 58.80 C 352.10 58.70 351.80 58.70 351.60 58.60 C 349.90 58.20 348.20 57.80 346.50 57.50 C 346.30 57.50 346.00 57.40 345.80 57.30 C 345.70 57.30 345.60 57.30 345.60 57.30 C 343.60 57.00 341.50 56.70 339.30 56.60 C 339.10 56.60 338.90 56.50 338.70 56.50 C 338.40 56.50 338.10 56.50 337.80 56.50 C 335.60 56.40 333.40 56.40 331.10 56.40 C 331.00 56.40 330.90 56.40 330.80 56.40 C 330.80 56.40 330.80 56.40 330.70 56.40 C 328.10 56.50 325.50 56.80 322.80 57.20 C 322.50 57.20 322.30 57.20 322.00 57.30 C 321.70 57.30 321.40 57.40 321.10 57.50 C 320.30 57.60 319.40 57.80 318.60 57.90 C 317.70 58.10 316.80 58.20 315.90 58.40 C 315.10 58.60 314.20 58.80 313.30 59.00 C 312.70 59.10 312.10 59.30 311.60 59.40 C 311.30 59.50 311.00 59.60 310.70 59.70 C 309.10 60.10 307.60 60.60 306.00 61.10 C 305.50 61.30 304.90 61.40 304.40 61.60 C 302.30 62.30 300.20 63.10 298.00 64.00 C 297.90 64.00 297.80 64.10 297.70 64.10 C 297.40 64.20 297.20 64.30 296.90 64.50 C 294.80 65.40 292.60 66.30 290.50 67.40 C 289.80 67.70 289.20 68.00 288.50 68.40 C 286.00 69.60 283.50 70.90 281.00 72.40 C 279.50 73.20 278.10 74.10 276.60 75.00 L 306.80 92.10 C 308.30 91.20 309.70 90.40 311.20 89.50 C 313.70 88.10 316.20 86.80 318.70 85.50 C 319.40 85.20 320.00 84.90 320.70 84.50 C 322.90 83.50 325.00 82.50 327.10 81.60 C 327.50 81.50 327.80 81.30 328.20 81.10 C 330.30 80.20 332.50 79.50 334.60 78.70 C 335.10 78.50 335.70 78.40 336.20 78.20 C 337.80 77.70 339.30 77.20 340.90 76.80 C 341.80 76.60 342.60 76.30 343.50 76.10 C 344.40 75.90 345.20 75.70 346.10 75.50 C 347.00 75.30 347.90 75.10 348.80 75.00 C 349.60 74.80 350.50 74.70 351.30 74.60 C 351.90 74.50 352.40 74.40 353.00 74.40 C 355.70 74.00 358.30 73.70 360.90 73.60 C 361.00 73.60 361.10 73.60 361.20 73.60 C 363.50 73.50 365.70 73.50 367.90 73.70 C 368.40 73.70 368.90 73.70 369.40 73.80 C 371.50 74.00 373.60 74.20 375.70 74.50 C 376.00 74.60 376.30 74.60 376.60 74.70 C 378.30 75.00 380.00 75.40 381.70 75.80 C 382.20 75.90 382.70 76.10 383.20 76.20 C 385.10 76.80 386.90 77.40 388.70 78.10 C 390.00 78.60 391.30 79.20 392.60 79.80 L 362.40 62.60 Z" fill="url(#SVGID_5_)" fill-rule="nonzero" group-id="2,10" node-id="362" stroke="none" target-height="35.699997" target-width="116" target-x="276.6" target-y="56.4"></path><path d="M 311.20 89.20 C 342.70 71.50 371.30 69.10 392.50 79.70 L 307.20 224.20 L 306.80 91.90 C 308.30 90.90 309.80 90.10 311.20 89.20 Z" fill="url(#SVGID_6_)" fill-rule="nonzero" group-id="2,10,18" node-id="366" stroke="none" target-height="155.1" target-width="85.70001" target-x="306.8" target-y="69.1"></path></g></g><g node-id="498"><g node-id="506"><g node-id="514"><path d="M 285.80 335.50 L 255.60 318.40 L 341.00 173.90 L 371.20 191.10 Z" fill="url(#SVGID_7_)" fill-rule="nonzero" group-id="3,11,19" node-id="377" stroke="none" target-height="161.6" target-width="115.600006" target-x="255.6" target-y="173.9"></path></g><g node-id="515"><g node-id="529"><path d="M 343.90 175.40 L 374.10 192.50 C 373.20 192.00 372.20 191.50 371.30 191.00 L 341.00 173.90 C 342.00 174.40 342.90 174.90 343.90 175.40 Z" fill="url(#SVGID_9_)" fill-rule="nonzero" group-id="3,11,20,34" node-id="384" stroke="none" target-height="18.600006" target-width="33.100006" target-x="341" target-y="173.9"></path></g><g clip-path="url(#SVGID_10_)" group-id="3,11,20,35" node-id="387"><path d="M 371.20 191.10 L 341.00 173.90 C 341.70 174.30 342.50 174.70 343.20 175.00 L 373.40 192.10 C 372.70 191.80 371.90 191.40 371.20 191.10" fill="url(#SVGID_11_)" fill-rule="nonzero" group-id="3,11,20,35" node-id="389" stroke="none" target-height="18.200012" target-width="32.399994" target-x="341" target-y="173.9"></path><path d="M 373.40 192.20 L 343.20 175.10 C 343.40 175.20 343.60 175.30 343.80 175.50 L 374.00 192.60 C 373.80 192.50 373.60 192.30 373.40 192.20" fill="url(#SVGID_12_)" fill-rule="nonzero" group-id="3,11,20,35" node-id="391" stroke="none" target-height="17.5" target-width="30.799988" target-x="343.2" target-y="175.1"></path></g></g><g node-id="516"><g node-id="531"><path d="M 206.40 474.40 L 176.20 457.30 C 155.00 445.20 141.80 419.60 141.70 383.10 C 141.50 311.40 191.90 224.40 255.20 186.10 L 285.40 203.20 C 222.10 241.50 171.70 328.50 171.90 400.20 C 172.00 436.70 185.20 462.30 206.40 474.40 Z" fill="url(#SVGID_14_)" fill-rule="nonzero" group-id="3,11,21,36" node-id="399" stroke="none" target-height="288.3" target-width="143.9" target-x="141.5" target-y="186.1"></path></g><g clip-path="url(#SVGID_15_)" group-id="3,11,21,37" node-id="402"><path d="M 255.30 186.10 C 243.00 193.60 231.10 202.90 220.00 213.60 C 215.60 217.80 211.40 222.30 207.20 226.90 C 203.90 230.60 200.70 234.40 197.60 238.30 C 194.90 241.70 192.30 245.20 189.70 248.80 C 187.30 252.10 185.10 255.40 182.80 258.80 C 180.70 262.00 178.60 265.30 176.70 268.60 C 174.80 271.80 172.90 275.10 171.10 278.40 C 169.30 281.70 167.60 284.90 166.00 288.20 C 164.40 291.50 162.80 294.90 161.30 298.20 C 159.80 301.60 158.30 305.10 157.00 308.60 C 155.60 312.20 154.20 315.90 153.00 319.50 C 151.70 323.40 150.40 327.30 149.30 331.30 C 148.00 335.70 146.90 340.20 146.00 344.60 C 144.80 350.00 143.90 355.40 143.20 360.70 C 142.20 368.30 141.70 375.90 141.70 383.30 C 141.80 419.80 155.00 445.40 176.20 457.50 L 206.40 474.60 C 185.20 462.50 172.00 436.90 171.90 400.40 C 171.90 393.00 172.40 385.50 173.40 377.80 C 174.10 372.50 175.10 367.10 176.20 361.70 C 177.20 357.30 178.30 352.90 179.50 348.40 C 180.60 344.50 181.80 340.50 183.20 336.60 C 184.40 333.00 185.80 329.30 187.20 325.70 C 188.60 322.20 190.00 318.80 191.50 315.30 C 193.00 311.90 194.60 308.60 196.20 305.30 C 197.80 302.00 199.50 298.70 201.30 295.50 C 203.10 292.20 204.90 289.00 206.90 285.70 C 208.90 282.40 210.90 279.10 213.00 275.90 C 215.20 272.50 217.50 269.20 219.90 265.90 C 222.50 262.30 225.10 258.80 227.80 255.40 C 230.90 251.50 234.10 247.70 237.40 244.00 C 241.50 239.40 245.80 234.90 250.20 230.70 C 261.30 220.00 273.10 210.70 285.50 203.20 L 255.30 186.10 Z" fill="url(#SVGID_16_)" fill-rule="nonzero" group-id="3,11,21,37" node-id="404" stroke="none" target-height="288.5" target-width="143.8" target-x="141.7" target-y="186.1"></path></g></g><path d="M 285.40 203.20 L 285.80 335.50 L 371.20 191.00 C 394.10 202.30 408.50 228.60 408.60 266.60 C 408.80 340.00 356.00 429.30 290.60 466.20 C 225.20 503.10 172.10 473.50 171.90 400.10 C 171.70 328.50 222.10 241.50 285.40 203.20 Z" fill="url(#SVGID_17_)" fill-rule="nonzero" group-id="3,11,22" node-id="410" stroke="none" target-height="312.1" target-width="237.09999" target-x="171.7" target-y="191"></path></g></g><g node-id="499"><g node-id="507"><g node-id="518"><path d="M 483.70 313.50 L 483.00 532.40 L 415.30 570.90 L 415.90 352.00 Z" fill="url(#SVGID_18_)" fill-rule="nonzero" group-id="4,12,23" node-id="421" stroke="none" target-height="257.40002" target-width="68.400024" target-x="415.3" target-y="313.5"></path></g><g node-id="519"><path d="M 415.90 352.00 L 415.30 570.90 L 347.00 532.40 L 347.70 313.50 Z" fill="url(#SVGID_19_)" fill-rule="nonzero" group-id="4,12,24" node-id="426" stroke="none" target-height="257.40002" target-width="68.899994" target-x="347" target-y="313.5"></path></g><path d="M 483.70 313.50 L 415.90 352.00 L 347.70 313.50 L 415.50 275.00 Z" fill="url(#SVGID_20_)" fill-rule="nonzero" group-id="4,12,25" node-id="431" stroke="none" target-height="77" target-width="136" target-x="347.7" target-y="275"></path></g></g><g node-id="500"><g node-id="508"><g node-id="521"><path d="M 586.60 299.40 L 585.80 591.30 L 518.00 629.70 L 518.90 337.90 Z" fill="url(#SVGID_21_)" fill-rule="nonzero" group-id="5,13,26" node-id="442" stroke="none" target-height="330.30002" target-width="68.599976" target-x="518" target-y="299.4"></path></g><g node-id="522"><path d="M 518.90 337.90 L 518.00 629.70 L 449.80 591.30 L 450.60 299.40 Z" fill="url(#SVGID_22_)" fill-rule="nonzero" group-id="5,13,27" node-id="447" stroke="none" target-height="330.30002" target-width="69.10004" target-x="449.8" target-y="299.4"></path></g><path d="M 586.60 299.40 L 518.90 337.90 L 450.60 299.40 L 518.40 261.00 Z" fill="url(#SVGID_23_)" fill-rule="nonzero" group-id="5,13,28" node-id="452" stroke="none" target-height="76.899994" target-width="135.99997" target-x="450.6" target-y="261"></path></g></g><g node-id="501"><g node-id="509"><g node-id="524"><path d="M 719.00 230.50 L 717.70 668.20 L 649.90 706.70 L 651.20 269.00 Z" fill="url(#SVGID_24_)" fill-rule="nonzero" group-id="6,14,29" node-id="463" stroke="none" target-height="476.2" target-width="69.099976" target-x="649.9" target-y="230.5"></path></g><g node-id="525"><path d="M 651.20 269.00 L 649.90 706.70 L 581.70 668.20 L 583.00 230.50 Z" fill="url(#SVGID_25_)" fill-rule="nonzero" group-id="6,14,30" node-id="468" stroke="none" target-height="476.2" target-width="69.5" target-x="581.7" target-y="230.5"></path></g><path d="M 719.00 230.50 L 651.20 269.00 L 583.00 230.50 L 650.80 192.00 Z" fill="url(#SVGID_26_)" fill-rule="nonzero" group-id="6,14,31" node-id="473" stroke="none" target-height="77" target-width="136" target-x="583" target-y="192"></path></g></g><g node-id="502"><g node-id="510"><g node-id="527"><g node-id="533"><g node-id="535"><path d="M 849.60 718.50 L 849.60 727.40 C 849.60 736.30 843.60 745.20 831.60 752.00 C 807.50 765.70 768.40 765.70 744.20 752.00 C 732.00 745.10 725.90 736.10 725.90 727.10 L 725.90 718.20 C 725.90 727.20 732.00 736.20 744.20 743.10 C 768.40 756.80 807.60 756.80 831.60 743.10 C 843.60 736.30 849.60 727.40 849.60 718.50 Z" fill="url(#SVGID_30_)" fill-rule="nonzero" group-id="7,15,32,38,40" node-id="488" stroke="none" target-height="47.5" target-width="123.69995" target-x="725.9" target-y="718.2"></path></g></g><path d="M 831.40 693.60 C 855.60 707.30 855.70 729.40 831.70 743.10 C 807.60 756.80 768.50 756.80 744.30 743.10 C 720.10 729.40 719.90 707.30 744.00 693.60 C 768.00 679.90 807.10 679.90 831.40 693.60 Z" fill="#ffffff" fill-rule="nonzero" group-id="7,15,32,39" node-id="494" stroke="none" target-height="76.89996" target-width="135.79999" target-x="719.9" target-y="679.9"></path></g></g></g></svg>