<?xml version="1.0" standalone="no"?><!DOCTYPE svg PUBLIC "-//W3C//DTD SVG 1.1//EN" "http://www.w3.org/Graphics/SVG/1.1/DTD/svg11.dtd"><svg height="253" node-id="1" sillyvg="true" template-height="253" template-width="257" version="1.1" viewBox="0 0 257 253" width="257" xmlns="http://www.w3.org/2000/svg" xmlns:xlink="http://www.w3.org/1999/xlink"><defs node-id="194"></defs><g node-id="369"><g node-id="373"><path d="M 242.98 111.69 C 242.98 72.56 211.18 40.83 171.95 40.83 C 171.34 40.83 170.74 40.86 170.13 40.88 C 157.75 20.11 135.04 6.19 109.06 6.19 C 69.83 6.19 38.03 37.92 38.03 77.06 C 38.03 77.57 38.06 78.07 38.07 78.57 C 16.61 90.77 2.13 113.77 2.13 140.17 C 2.13 179.30 33.94 211.02 73.17 211.02 C 75.40 211.02 77.60 210.91 79.78 210.71 C 92.81 226.46 113.48 236.49 135.55 236.49 C 171.81 236.49 200.74 209.38 205.06 174.38 C 227.61 162.51 242.98 138.90 242.98 111.69 Z" fill="#bab8d4" fill-opacity="0.3" fill-rule="nonzero" group-id="1,5" node-id="199" stroke="none" target-height="230.298" target-width="240.847" target-x="2.135" target-y="6.194"></path></g></g><g node-id="370"><g node-id="374"><path d="M 160.98 197.96 L 160.98 160.36 C 160.98 140.35 176.15 123.98 194.68 123.98 C 213.22 123.98 228.39 140.35 228.39 160.36 L 228.39 197.96" fill="#e86d8f" fill-rule="nonzero" group-id="2,6" node-id="206" stroke="none" target-height="73.97499" target-width="67.41" target-x="160.979" target-y="123.981"></path><path d="M 234.96 204.74 C 234.96 208.94 231.15 212.37 226.48 212.37 L 162.89 212.37 C 158.22 212.37 154.41 208.94 154.41 204.74 C 154.41 200.54 158.22 197.11 162.89 197.11 L 226.48 197.11 C 231.15 197.11 234.96 200.54 234.96 204.74 Z" fill="#ffffff" fill-rule="nonzero" group-id="2,6" node-id="208" stroke="none" target-height="15.264008" target-width="80.554" target-x="154.408" target-y="197.107"></path><g node-id="392"><path d="M 160.98 197.96 L 160.98 160.36 C 160.98 140.35 176.15 123.98 194.68 123.98 C 213.22 123.98 228.39 140.35 228.39 160.36 L 228.39 197.96" fill="#ffffff" fill-opacity="0.65" fill-rule="nonzero" group-id="2,6,24" node-id="212" stroke="none" target-height="73.97499" target-width="67.41" target-x="160.979" target-y="123.981"></path></g><path d="M 230.39 197.96 L 226.39 197.96 L 226.39 160.36 C 226.39 141.40 212.17 125.98 194.68 125.98 C 177.20 125.98 162.98 141.40 162.98 160.36 L 162.98 197.96 L 158.98 197.96 L 158.98 160.36 C 158.98 139.20 175.00 121.98 194.68 121.98 C 214.37 121.98 230.39 139.20 230.39 160.36 L 230.39 197.96 Z" fill="#ccccde" fill-rule="nonzero" group-id="2,6" node-id="215" stroke="none" target-height="75.97499" target-width="71.41" target-x="158.979" target-y="121.981"></path><path d="M 234.96 204.74 C 234.96 208.94 231.15 212.37 226.48 212.37 L 162.89 212.37 C 158.22 212.37 154.41 208.94 154.41 204.74 C 154.41 200.54 158.22 197.11 162.89 197.11 L 226.48 197.11 C 231.15 197.11 234.96 200.54 234.96 204.74 Z" fill="#f2f2ff" fill-rule="nonzero" group-id="2,6,25" node-id="219" stroke="none" target-height="15.264008" target-width="80.554" target-x="154.408" target-y="197.107"></path><path d="M 226.48 213.87 L 162.89 213.87 C 157.38 213.87 152.91 209.77 152.91 204.74 C 152.91 199.70 157.38 195.61 162.89 195.61 L 226.48 195.61 C 231.99 195.61 236.46 199.70 236.46 204.74 C 236.46 209.77 231.99 213.87 226.48 213.87 Z M 162.89 198.61 C 159.04 198.61 155.91 201.36 155.91 204.74 C 155.91 208.12 159.04 210.87 162.89 210.87 L 226.48 210.87 C 230.33 210.87 233.46 208.12 233.46 204.74 C 233.46 201.36 230.33 198.61 226.48 198.61 L 162.89 198.61 Z" fill="#ccccde" fill-rule="nonzero" group-id="2,6,25" node-id="221" stroke="none" target-height="18.264008" target-width="83.554" target-x="152.907" target-y="195.607"></path><path d="M 192.17 100.85 L 195.17 100.85 L 195.17 111.95 L 192.17 111.95 Z" fill="#ccccde" fill-rule="nonzero" group-id="2,6" node-id="224" stroke="none" target-height="11.109001" target-width="3" target-x="192.166" target-y="100.846"></path><path d="M 164.41 101.33 L 173.44 116.97 L 170.84 118.47 L 161.81 102.83 Z" fill="#ccccde" fill-rule="nonzero" group-id="2,6,26" node-id="228" stroke="none" target-height="17.133896" target-width="11.624496" target-x="161.81071" target-y="101.33394"></path><path d="M 145.75 124.60 L 157.22 132.24 L 155.55 134.74 L 144.09 127.10 Z" fill="#ccccde" fill-rule="nonzero" group-id="2,6,27" node-id="233" stroke="none" target-height="10.135963" target-width="13.131454" target-x="144.08603" target-y="124.601006"></path><path d="M 132.56 153.50 L 150.62 153.50 L 150.62 156.50 L 132.56 156.50 Z" fill="#ccccde" fill-rule="nonzero" group-id="2,6" node-id="236" stroke="none" target-height="3" target-width="18.053009" target-x="132.564" target-y="153.504"></path><path d="M 236.72 153.50 L 254.77 153.50 L 254.77 156.50 L 236.72 156.50 Z" fill="#ccccde" fill-rule="nonzero" group-id="2,6" node-id="238" stroke="none" target-height="3" target-width="18.054" target-x="236.716" target-y="153.504"></path><path d="M 240.53 126.22 L 242.03 128.82 L 231.71 134.79 L 230.20 132.19 Z" fill="#ccccde" fill-rule="nonzero" group-id="2,6,28" node-id="242" stroke="none" target-height="8.562683" target-width="11.829086" target-x="230.20477" target-y="126.224945"></path><path d="M 222.92 101.35 L 225.51 102.85 L 216.49 118.48 L 213.89 116.98 Z" fill="#ccccde" fill-rule="nonzero" group-id="2,6,29" node-id="247" stroke="none" target-height="17.134201" target-width="11.626312" target-x="213.88791" target-y="101.348145"></path></g><g node-id="375"><path d="M 90.12 213.84 C 90.12 220.10 84.99 225.23 78.73 225.23 L 18.35 225.23 C 12.09 225.23 6.96 220.11 6.96 213.84 L 6.96 173.88 C 6.96 167.62 12.09 162.49 18.35 162.49 L 78.73 162.49 C 84.99 162.49 90.12 167.62 90.12 173.88 L 90.12 213.84 L 90.12 213.84 Z" fill="#ffffff" fill-rule="nonzero" group-id="2,7" node-id="253" stroke="none" target-height="62.740997" target-width="83.158" target-x="6.96" target-y="162.492"></path><g node-id="398"><path d="M 25.25 162.49 L 25.25 150.03 C 25.25 135.62 35.70 123.90 48.54 123.90 C 61.38 123.90 71.83 135.62 71.83 150.03 L 71.83 162.49 L 78.22 162.49 L 78.22 150.03 C 78.22 132.09 64.91 117.50 48.54 117.50 C 32.17 117.50 18.86 132.09 18.86 150.03 L 18.86 162.49 L 25.25 162.49 Z" fill="#ffffff" fill-rule="nonzero" group-id="2,7,30" node-id="257" stroke="none" target-height="44.992004" target-width="59.366997" target-x="18.856" target-y="117.5"></path><path d="M 26.75 163.99 L 17.36 163.99 L 17.36 150.03 C 17.36 131.27 31.34 116.00 48.54 116.00 C 65.73 116.00 79.72 131.27 79.72 150.03 L 79.72 163.99 L 70.33 163.99 L 70.33 150.03 C 70.33 136.45 60.55 125.40 48.54 125.40 C 36.53 125.40 26.75 136.45 26.75 150.03 L 26.75 163.99 Z M 20.36 160.99 L 23.75 160.99 L 23.75 150.03 C 23.75 134.79 34.87 122.40 48.54 122.40 C 62.21 122.40 73.33 134.79 73.33 150.03 L 73.33 160.99 L 76.72 160.99 L 76.72 150.03 C 76.72 132.92 64.08 119.00 48.54 119.00 C 33.00 119.00 20.36 132.92 20.36 150.03 L 20.36 160.99 Z" fill="#ccccde" fill-rule="nonzero" group-id="2,7,30" node-id="259" stroke="none" target-height="47.992004" target-width="62.366997" target-x="17.356" target-y="116"></path></g><path d="M 78.73 226.73 L 18.35 226.73 C 11.24 226.73 5.46 220.95 5.46 213.84 L 5.46 173.88 C 5.46 166.78 11.24 160.99 18.35 160.99 L 78.73 160.99 C 85.83 160.99 91.62 166.77 91.62 173.88 L 91.62 213.84 C 91.62 220.95 85.83 226.73 78.73 226.73 Z M 18.35 163.99 C 12.90 163.99 8.46 168.43 8.46 173.88 L 8.46 213.84 C 8.46 219.29 12.90 223.73 18.35 223.73 L 78.73 223.73 C 84.18 223.73 88.62 219.29 88.62 213.84 L 88.62 173.88 C 88.62 168.43 84.18 163.99 78.73 163.99 L 18.35 163.99 Z" fill="#ccccde" fill-rule="nonzero" group-id="2,7" node-id="262" stroke="none" target-height="65.741" target-width="86.158" target-x="5.46" target-y="160.991"></path></g></g><g node-id="371"><g node-id="376"><path d="M 54.53 133.06 C 47.43 133.06 41.65 128.27 41.65 122.38 L 41.65 115.20 C 41.65 113.27 43.21 111.70 45.15 111.70 C 47.08 111.70 48.65 113.27 48.65 115.20 L 48.65 122.38 C 48.65 124.12 51.16 126.06 54.53 126.06 C 57.72 126.06 60.42 122.61 60.42 118.52 L 60.42 66.07 C 60.42 64.14 61.98 62.57 63.92 62.57 C 65.85 62.57 67.42 64.14 67.42 66.07 L 67.42 118.52 C 67.42 126.54 61.64 133.06 54.53 133.06 Z" fill="#ccccde" fill-rule="nonzero" group-id="3,8" node-id="269" stroke="none" target-height="70.493004" target-width="25.772" target-x="41.646" target-y="62.568"></path></g><g node-id="377"><path d="M 122.44 66.75 C 122.44 34.42 96.24 8.22 63.92 8.22 C 31.60 8.22 5.39 34.42 5.39 66.75 L 122.44 66.75 Z" fill="#d6ebde" fill-rule="nonzero" group-id="3,9" node-id="274" stroke="none" target-height="58.523003" target-width="117.047005" target-x="5.395" target-y="8.222"></path><path d="M 123.94 68.25 L 3.90 68.25 L 3.90 66.75 C 3.90 33.65 30.82 6.72 63.92 6.72 C 97.02 6.72 123.94 33.65 123.94 66.75 L 123.94 68.25 Z M 6.92 65.25 L 120.92 65.25 C 120.12 34.49 94.86 9.72 63.92 9.72 C 32.98 9.72 7.71 34.49 6.92 65.25 Z" fill="#ccccde" fill-rule="nonzero" group-id="3,9" node-id="276" stroke="none" target-height="61.523003" target-width="120.047005" target-x="3.895" target-y="6.722"></path></g><g node-id="378"><path d="M 88.44 66.75 C 88.44 34.42 76.79 8.22 62.42 8.22 C 48.05 8.22 36.40 34.42 36.40 66.75 L 88.44 66.75 Z" fill="#ffffff" fill-rule="nonzero" group-id="3,10" node-id="281" stroke="none" target-height="58.523003" target-width="52.047" target-x="36.395" target-y="8.222"></path><path d="M 89.94 68.25 L 34.90 68.25 L 34.90 66.75 C 34.90 33.09 46.98 6.72 62.42 6.72 C 77.85 6.72 89.94 33.09 89.94 66.75 L 89.94 68.25 Z M 37.90 65.25 L 86.93 65.25 C 86.58 35.00 75.50 9.72 62.42 9.72 C 49.34 9.72 38.26 35.00 37.90 65.25 Z" fill="#ccccde" fill-rule="nonzero" group-id="3,10" node-id="283" stroke="none" target-height="61.523003" target-width="55.047" target-x="34.895" target-y="6.722"></path></g></g><g node-id="372"><path d="M 95.44 74.20 L 98.44 74.20 L 98.44 109.88 L 95.44 109.88 Z" fill="#6e6e96" fill-rule="nonzero" group-id="4" node-id="288" stroke="none" target-height="35.68" target-width="3" target-x="95.437" target-y="74.198"></path><path d="M 129.41 109.08 L 132.41 109.08 L 132.41 144.76 L 129.41 144.76 Z" fill="#6e6e96" fill-rule="nonzero" group-id="4" node-id="290" stroke="none" target-height="35.68" target-width="3" target-x="129.411" target-y="109.079"></path><path d="M 64.03 109.08 L 67.03 109.08 L 67.03 144.76 L 64.03 144.76 Z" fill="#6e6e96" fill-rule="nonzero" group-id="4" node-id="292" stroke="none" target-height="35.68" target-width="3" target-x="64.025" target-y="109.079"></path><g node-id="379"><path d="M 125.14 114.80 L 129.31 114.80 L 129.31 138.51 L 125.14 138.51 Z" fill="#ffffff" fill-opacity="0.15" fill-rule="nonzero" group-id="4,11" node-id="296" stroke="none" target-height="23.708" target-width="4.1670074" target-x="125.142" target-y="114.801"></path></g><g node-id="380"><path d="M 187.96 114.80 L 192.77 114.80 L 192.77 138.51 L 187.96 138.51 Z" fill="#6e6e96" fill-opacity="0.15" fill-rule="nonzero" group-id="4,12" node-id="301" stroke="none" target-height="23.708" target-width="4.8079987" target-x="187.964" target-y="114.801"></path></g><g node-id="381"><path d="M 118.54 43.95 C 118.54 43.95 90.79 90.51 35.28 90.51 C 35.28 90.51 31.70 195.25 118.54 244.49 C 118.54 244.49 210.84 199.73 210.84 86.03 C 210.84 86.03 148.83 94.09 118.54 43.95 Z" fill="#a3f0b0" fill-rule="nonzero" group-id="4,13" node-id="306" stroke="none" target-height="200.539" target-width="179.142" target-x="31.7" target-y="43.955"></path><path d="M 118.54 244.99 C 118.46 244.99 118.37 244.97 118.30 244.93 C 73.29 219.41 52.98 178.78 43.87 149.18 C 34.00 117.13 34.77 90.75 34.78 90.49 C 34.79 90.22 35.01 90.01 35.28 90.01 C 89.88 90.01 117.84 44.16 118.11 43.70 C 118.20 43.55 118.36 43.45 118.54 43.45 C 118.72 43.41 118.88 43.55 118.97 43.70 C 142.04 81.89 184.15 86.01 201.19 86.01 C 207.03 86.01 210.63 85.56 210.78 85.54 C 210.92 85.52 211.06 85.56 211.17 85.66 C 211.28 85.75 211.34 85.89 211.34 86.03 C 211.34 144.93 186.18 184.99 165.06 208.24 C 142.19 233.42 118.99 244.83 118.76 244.94 C 118.69 244.98 118.62 244.99 118.54 244.99 Z M 35.77 91.01 C 35.72 94.72 35.74 119.40 44.84 148.92 C 53.88 178.28 74.01 218.57 118.56 243.93 C 121.04 242.67 142.83 231.23 164.35 207.53 C 185.26 184.50 210.18 144.84 210.34 86.59 C 209.09 86.72 205.84 87.01 201.19 87.01 C 184.08 87.01 141.96 82.89 118.53 44.90 C 114.77 50.69 86.89 90.75 35.77 91.01 Z" fill="#6e6e96" fill-rule="nonzero" group-id="4,13" node-id="308" stroke="none" target-height="201.584" target-width="177.344" target-x="33.999" target-y="43.41"></path></g><path d="M 120.29 57.93 C 148.93 102.85 206.45 90.91 212.59 90.27 C 212.94 85.44 212.59 90.27 212.59 85.16 C 212.59 85.16 150.57 93.22 120.29 43.08 C 120.29 43.08 92.54 89.64 37.03 89.64 C 37.03 89.64 36.84 86.23 37.62 95.45 C 97.40 99.79 120.29 57.93 120.29 57.93 Z" fill="#b0edc1" fill-rule="nonzero" group-id="4" node-id="311" stroke="none" target-height="59.768997" target-width="176.103" target-x="36.84" target-y="43.081"></path><path d="M 119.18 44.94 C 119.18 44.94 91.42 91.49 35.92 91.49 C 35.92 91.49 33.21 196.24 120.05 245.48 C 120.05 245.48 215.31 200.72 211.48 87.02 C 211.48 87.02 149.46 95.07 119.18 44.94 Z M 119.95 230.01 C 48.02 189.22 50.99 100.72 50.99 100.72 C 95.53 99.28 119.95 63.91 119.95 63.91 C 145.04 99.74 196.40 97.01 196.40 97.01 C 196.40 191.19 119.95 230.01 119.95 230.01 Z" fill="#f0f0ff" fill-rule="nonzero" group-id="4" node-id="313" stroke="none" target-height="200.538" target-width="182.10501" target-x="33.208" target-y="44.94"></path><path d="M 119.18 43.98 L 119.18 244.52 C 119.18 244.52 217.25 197.08 211.48 86.06 C 211.48 86.06 145.61 93.70 119.18 43.98 Z" fill="#6e6e96" fill-opacity="0.15" fill-rule="nonzero" group-id="4,14" node-id="317" stroke="none" target-height="200.539" target-width="98.07199" target-x="119.177" target-y="43.979"></path><path d="M 147.90 252.56 L 92.13 252.56 C 91.30 252.56 90.63 251.89 90.63 251.06 C 90.63 250.23 91.30 249.56 92.13 249.56 L 147.90 249.56 C 148.73 249.56 149.40 250.23 149.40 251.06 C 149.40 251.89 148.73 252.56 147.90 252.56 Z" fill="#6e6e96" fill-opacity="0.38" fill-rule="nonzero" group-id="4,15" node-id="322" stroke="none" target-height="3" target-width="58.771004" target-x="90.628" target-y="249.559"></path><path d="M 187.32 252.56 L 170.98 252.56 C 170.15 252.56 169.48 251.89 169.48 251.06 C 169.48 250.23 170.15 249.56 170.98 249.56 L 187.32 249.56 C 188.15 249.56 188.82 250.23 188.82 251.06 C 188.82 251.89 188.15 252.56 187.32 252.56 Z" fill="#6e6e96" fill-opacity="0.14" fill-rule="nonzero" group-id="4,16" node-id="327" stroke="none" target-height="3" target-width="19.346008" target-x="169.476" target-y="249.559"></path><path d="M 70.01 252.56 L 58.47 252.56 C 57.65 252.56 56.97 251.89 56.97 251.06 C 56.97 250.23 57.65 249.56 58.47 249.56 L 70.01 249.56 C 70.84 249.56 71.51 250.23 71.51 251.06 C 71.51 251.89 70.84 252.56 70.01 252.56 Z" fill="#6e6e96" fill-opacity="0.14" fill-rule="nonzero" group-id="4,17" node-id="332" stroke="none" target-height="3" target-width="14.539001" target-x="56.974" target-y="249.559"></path><path d="M 91.77 142.28 C 89.72 144.59 89.71 148.47 91.76 150.90 L 112.45 175.49 C 114.50 177.92 117.92 177.99 120.06 175.65 L 163.72 127.91 C 165.86 125.57 165.99 122.25 164.00 120.53 C 162.02 118.81 158.37 119.02 155.88 120.99 L 120.69 148.91 C 118.20 150.89 114.04 151.01 111.44 149.20 L 100.22 141.38 C 97.62 139.56 93.82 139.97 91.77 142.28 Z" fill="#ffffff" fill-rule="nonzero" group-id="4,18" node-id="337" stroke="none" target-height="59.17901" target-width="76.27501" target-x="89.713" target-y="118.809"></path><path d="M 116.32 178.86 C 114.42 178.86 112.59 177.98 111.31 176.46 L 90.61 151.87 C 88.10 148.89 88.12 144.14 90.64 141.29 C 92.08 139.67 94.22 138.74 96.52 138.74 C 98.19 138.74 99.77 139.23 101.08 140.15 L 112.30 147.97 C 113.23 148.62 114.49 148.98 115.83 148.98 C 117.33 148.98 118.76 148.53 119.75 147.74 L 154.95 119.81 C 156.51 118.57 158.54 117.86 160.53 117.86 C 162.26 117.86 163.85 118.41 164.99 119.39 C 166.13 120.38 166.81 121.81 166.90 123.40 C 167.01 125.34 166.26 127.36 164.82 128.92 L 121.17 176.66 C 119.87 178.08 118.15 178.86 116.32 178.86 Z M 96.52 141.74 C 95.08 141.74 93.75 142.30 92.89 143.28 C 91.33 145.03 91.34 148.08 92.90 149.94 L 113.60 174.52 C 114.32 175.38 115.29 175.86 116.32 175.86 C 117.30 175.86 118.23 175.42 118.95 174.63 L 162.61 126.90 C 163.50 125.92 163.97 124.71 163.91 123.58 C 163.87 123.02 163.69 122.24 163.02 121.66 C 162.43 121.14 161.54 120.86 160.53 120.86 C 159.21 120.86 157.85 121.34 156.81 122.16 L 121.62 150.09 C 120.08 151.31 118.03 151.98 115.83 151.98 C 113.88 151.98 112.01 151.43 110.58 150.43 L 99.37 142.61 C 98.57 142.05 97.56 141.74 96.52 141.74 Z" fill="#6e6e96" fill-rule="nonzero" group-id="4,18" node-id="339" stroke="none" target-height="60.995003" target-width="78.91401" target-x="88.1" target-y="117.863"></path><path d="M 51.24 109.08 C 51.24 109.08 99.11 105.86 119.18 79.90 C 119.18 79.90 152.56 108.45 195.90 105.23 L 196.40 96.05 C 196.40 96.05 156.72 101.54 119.18 63.99 C 119.18 63.99 91.10 99.75 50.99 99.75 L 51.24 109.08 Z" fill="#6e6e96" fill-opacity="0.15" fill-rule="nonzero" group-id="4,19" node-id="344" stroke="none" target-height="45.084003" target-width="145.41501" target-x="50.988" target-y="63.995"></path><path d="M 53.25 111.09 C 53.25 111.09 58.60 189.04 119.05 219.33 C 119.05 219.33 189.58 182.49 195.90 105.23 C 195.90 105.23 192.86 184.51 120.14 227.64 C 120.14 227.64 61.01 200.44 53.25 111.09 Z" fill="#ffffff" fill-opacity="0.36" fill-rule="nonzero" group-id="4,20" node-id="349" stroke="none" target-height="122.407005" target-width="142.65201" target-x="53.251" target-y="105.232"></path><path d="M 157.20 127.06 L 120.38 167.31 C 118.24 169.65 114.82 169.58 112.77 167.16 L 91.77 142.28 C 90.33 142.49 86.87 145.22 88.60 149.01 C 89.89 151.82 90.03 155.20 92.08 157.63 L 112.77 182.22 C 114.82 184.65 118.24 184.72 120.38 182.38 L 164.04 134.64 C 166.18 132.30 165.99 122.24 164.01 120.53 C 162.27 119.03 164.00 120.53 157.20 127.06 Z" fill="#6e6e96" fill-opacity="0.15" fill-rule="nonzero" group-id="4,21" node-id="354" stroke="none" target-height="65.689995" target-width="79.30599" target-x="86.874" target-y="119.027"></path><path d="M 211.45 88.80 C 208.72 193.94 119.98 237.57 119.98 237.57 C 49.28 197.48 37.94 118.68 36.16 91.49 C 36.06 91.49 35.96 91.49 35.85 91.49 C 35.85 91.49 33.14 196.24 119.98 245.48 C 119.98 245.48 214.23 201.18 211.45 88.80 Z" fill="#6e6e96" fill-opacity="0.15" fill-rule="nonzero" group-id="4,22" node-id="359" stroke="none" target-height="156.677" target-width="181.085" target-x="33.142" target-y="88.802"></path><path d="M 119.66 45.90 C 119.66 45.90 91.91 92.45 36.40 92.45 C 97.42 92.45 119.66 54.50 119.66 54.50 C 146.84 99.50 215.05 87.98 211.96 87.98 C 211.96 87.98 149.94 96.03 119.66 45.90 Z M 36.40 92.45 C 36.40 92.45 36.39 92.87 36.39 93.67 C 36.39 92.88 36.40 92.45 36.40 92.45 Z" fill="#ffffff" fill-opacity="0.61" fill-rule="nonzero" group-id="4,23" node-id="364" stroke="none" target-height="53.600998" target-width="178.66699" target-x="36.387" target-y="45.901"></path><path d="M 120.05 246.98 C 119.80 246.98 119.54 246.91 119.31 246.78 C 74.03 221.11 53.35 180.24 43.99 150.47 C 33.85 118.27 34.41 91.72 34.42 91.46 C 34.44 90.64 35.10 90.00 35.92 90.00 C 89.95 90.00 117.61 44.63 117.89 44.17 C 118.16 43.72 118.64 43.44 119.17 43.44 C 119.17 43.44 119.17 43.44 119.18 43.44 C 119.70 43.44 120.19 43.72 120.46 44.17 C 143.27 81.92 184.96 86.00 201.82 86.00 C 207.62 86.00 211.25 85.54 211.28 85.53 C 211.70 85.48 212.12 85.60 212.45 85.88 C 212.77 86.15 212.96 86.55 212.97 86.97 C 214.97 146.21 189.79 186.52 168.31 209.90 C 145.04 235.23 120.93 246.72 120.69 246.84 C 120.49 246.93 120.27 246.98 120.05 246.98 Z M 37.41 92.98 C 37.46 98.90 38.21 122.18 46.88 149.67 C 56.04 178.74 76.18 218.58 120.10 243.78 C 124.16 241.72 145.50 230.33 166.18 207.78 C 187.05 185.03 211.49 145.97 210.03 88.67 C 208.38 88.81 205.55 88.99 201.82 88.99 C 184.75 88.99 142.98 84.92 119.14 47.72 C 113.00 56.66 85.51 92.26 37.41 92.98 Z M 119.95 231.51 C 119.70 231.51 119.44 231.44 119.21 231.31 C 81.62 210.00 64.67 175.61 57.06 150.50 C 48.83 123.36 49.48 100.89 49.49 100.67 C 49.52 99.88 50.15 99.24 50.94 99.22 C 94.17 97.82 118.48 63.40 118.72 63.05 C 119.00 62.65 119.46 62.41 119.95 62.41 C 119.95 62.41 119.95 62.41 119.95 62.41 C 120.44 62.41 120.90 62.64 121.18 63.04 C 126.52 70.67 147.54 95.56 193.89 95.56 C 195.44 95.56 196.30 95.51 196.32 95.51 C 196.73 95.49 197.13 95.64 197.43 95.92 C 197.73 96.20 197.90 96.60 197.90 97.01 C 197.90 146.13 176.91 180.03 159.30 199.82 C 140.22 221.26 120.83 231.25 120.63 231.35 C 120.42 231.46 120.19 231.51 119.95 231.51 Z M 52.47 102.16 C 52.48 107.41 53.02 126.87 59.96 149.73 C 67.36 174.11 83.78 207.46 119.98 228.29 C 123.58 226.32 140.46 216.50 157.14 197.74 C 174.18 178.55 194.46 145.84 194.90 98.55 C 194.60 98.55 194.26 98.56 193.89 98.56 C 188.82 98.56 175.42 98.07 160.67 93.58 C 143.06 88.21 129.37 79.08 119.92 66.43 C 114.38 73.45 90.78 100.28 52.47 102.16 Z" fill="#6e6e96" fill-rule="nonzero" group-id="4" node-id="367" stroke="none" target-height="203.538" target-width="181.123" target-x="33.851" target-y="43.441"></path></g></svg>