<?xml version="1.0" standalone="no"?><!DOCTYPE svg PUBLIC "-//W3C//DTD SVG 1.1//EN" "http://www.w3.org/Graphics/SVG/1.1/DTD/svg11.dtd"><svg height="1024" node-id="1" sillyvg="true" template-height="1024" template-width="1024" version="1.1" viewBox="0 0 1024 1024" width="1024" xmlns="http://www.w3.org/2000/svg" xmlns:xlink="http://www.w3.org/1999/xlink"><defs node-id="42"><linearGradient gradientUnits="userSpaceOnUse" id="SVGID_1_" node-id="4" spreadMethod="pad" x1="300.8494" x2="723.1506" y1="97.5937" y2="926.4063"><stop offset="0" stop-color="#c0edbb"></stop><stop offset="0.2436" stop-color="#c3eebe"></stop><stop offset="1" stop-color="#c6efc2"></stop></linearGradient><clipPath id="SVGID_3_" node-id="12"><path d="M 977.00 512.00 C 977.00 635.33 928.01 753.60 840.80 840.80 C 753.60 928.01 635.33 977.00 512.00 977.00 C 388.67 977.00 270.40 928.01 183.20 840.80 C 95.99 753.60 47.00 635.33 47.00 512.00 C 47.00 388.67 95.99 270.40 183.20 183.20 C 270.40 95.99 388.67 47.00 512.00 47.00 C 635.33 47.00 753.60 95.99 840.80 183.20 C 928.01 270.40 977.00 388.67 977.00 512.00 Z" fill="#000000" fill-rule="nonzero" node-id="53" stroke="none" target-height="930" target-width="930" target-x="47" target-y="47"></path></clipPath></defs><path d="M 977.00 512.00 C 977.00 635.33 928.01 753.60 840.80 840.80 C 753.60 928.01 635.33 977.00 512.00 977.00 C 388.67 977.00 270.40 928.01 183.20 840.80 C 95.99 753.60 47.00 635.33 47.00 512.00 C 47.00 388.67 95.99 270.40 183.20 183.20 C 270.40 95.99 388.67 47.00 512.00 47.00 C 635.33 47.00 753.60 95.99 840.80 183.20 C 928.01 270.40 977.00 388.67 977.00 512.00 Z" fill="url(#SVGID_1_)" fill-rule="nonzero" node-id="57" stroke="none" target-height="930" target-width="930" target-x="47" target-y="47"></path><g node-id="110"><g clip-path="url(#SVGID_3_)" group-id="1" id="sillyvg_g_1" node-id="61"><path d="M 592.90 1013.00 L 3.65 655.59 L 506.56 433.92 L 1086.99 696.10 Z" fill="#ffffff" fill-rule="nonzero" group-id="1,3,4" node-id="65" stroke="none" target-height="579.07996" target-width="1083.34" target-x="3.65" target-y="433.92"></path><path d="M 592.90 981.89 L 590.17 739.96 L 1044.68 463.69 L 1044.68 699.14 Z" fill="#378493" fill-rule="nonzero" group-id="1,3,4,5" node-id="69" stroke="none" target-height="518.2" target-width="454.51007" target-x="590.17" target-y="463.69"></path><path d="M 512.61 935.92 L 592.90 981.89 L 590.17 739.96 L 443.20 598.43 L 296.23 563.05 L 168.31 446.02 L 39.04 410.32 L 39.04 655.59 L 102.99 696.10 L 102.99 531.75 L 232.27 613.40 L 232.27 775.34 L 376.52 867.88 L 376.52 696.10 L 513.97 778.07 Z" fill="#59cecf" fill-rule="nonzero" group-id="1,3,4,5" node-id="71" stroke="none" target-height="571.57" target-width="553.86005" target-x="39.04" target-y="410.32"></path><path d="M 443.20 598.43 L 927.66 297.27 L 763.00 282.04 L 296.23 563.05 Z" fill="#93a3ae" fill-rule="nonzero" group-id="1,3,4,5" node-id="73" stroke="none" target-height="316.38998" target-width="631.42993" target-x="296.23" target-y="282.04"></path><path d="M 516.69 118.06 L 25.42 406.56 L 168.31 446.02 L 690.88 146.63 Z" fill="#93a3ae" fill-rule="nonzero" group-id="1,3,4,5" node-id="75" stroke="none" target-height="327.96" target-width="665.46" target-x="25.42" target-y="118.06"></path><path d="M 763.00 282.04 L 690.88 146.63 L 168.31 446.02 L 296.23 563.05 Z" fill="#577381" fill-rule="nonzero" group-id="1,3,4,5" node-id="77" stroke="none" target-height="416.41998" target-width="594.69" target-x="168.31" target-y="146.63"></path><path d="M 590.17 739.96 L 1075.99 444.66 L 927.66 297.27 L 443.20 598.43 Z" fill="#577381" fill-rule="nonzero" group-id="1,3,4,5" node-id="79" stroke="none" target-height="442.69003" target-width="632.79" target-x="443.2" target-y="297.27"></path><path d="M 125.67 680.69 L 102.99 696.10 L 102.99 531.75 L 125.67 546.08 Z" fill="#2f717e" fill-rule="nonzero" group-id="1,3,4" node-id="82" stroke="none" target-height="164.34998" target-width="22.68" target-x="102.99" target-y="531.75"></path><path d="M 399.66 854.27 L 376.52 867.88 L 376.52 696.10 L 401.71 711.13 Z" fill="#2f717e" fill-rule="nonzero" group-id="1,3,4" node-id="84" stroke="none" target-height="171.78003" target-width="25.190002" target-x="376.52" target-y="696.1"></path><path d="M 641.63 768.39 L 835.78 654.91 L 835.78 747.53 L 641.63 876.35 Z" fill="#ffffff" fill-rule="nonzero" group-id="1,3" node-id="87" stroke="none" target-height="221.44" target-width="194.15002" target-x="641.63" target-y="654.91"></path><path d="M 825.14 661.13 L 825.14 746.62 L 641.63 863.65 L 641.63 876.35 L 835.78 747.53 L 835.78 654.91 Z" fill="#2f717e" fill-rule="nonzero" group-id="1,3" node-id="89" stroke="none" target-height="221.44" target-width="194.15002" target-x="641.63" target-y="654.91"></path></g></g><path d="M 683.48 166.61 C 558.57 166.61 457.32 267.87 457.32 392.77 C 457.32 517.67 558.58 618.93 683.48 618.93 C 808.38 618.93 909.64 517.67 909.64 392.77 C 909.64 267.87 808.39 166.61 683.48 166.61 Z M 683.48 562.32 C 589.84 562.32 513.93 486.41 513.93 392.77 C 513.93 299.13 589.84 223.22 683.48 223.22 C 777.12 223.22 853.03 299.13 853.03 392.77 C 853.03 486.41 777.12 562.32 683.48 562.32 Z" fill="#559f81" fill-opacity="0.25" fill-rule="nonzero" node-id="93" stroke="none" target-height="452.32" target-width="452.32" target-x="457.32" target-y="166.61"></path><path d="M 900.64 379.77 C 900.64 504.67 799.38 605.93 674.48 605.93 C 549.58 605.93 448.32 504.67 448.32 379.77 C 448.32 254.87 549.58 153.61 674.48 153.61 C 799.38 153.61 900.64 254.87 900.64 379.77 Z" fill="#ffffff" fill-rule="nonzero" node-id="95" stroke="none" target-height="452.32" target-width="452.32" target-x="448.32" target-y="153.61"></path><path d="M 890.81 591.80 L 824.04 537.49 C 815.11 530.23 813.76 517.10 821.02 508.17 L 829.89 497.26 C 837.15 488.33 850.28 486.98 859.21 494.24 L 925.98 548.55 C 934.91 555.81 936.26 568.94 929.00 577.87 L 920.13 588.78 C 912.86 597.71 899.73 599.07 890.81 591.80 Z" fill="#ffffff" fill-rule="nonzero" group-id="2" node-id="99" stroke="none" target-height="112.09" target-width="122.5" target-x="813.76" target-y="486.98"></path><path d="M 944.84 658.95 L 878.85 605.28 C 861.44 591.12 858.80 565.52 872.96 548.10 L 879.55 539.99 C 893.71 522.58 919.31 519.94 936.73 534.10 L 1002.72 587.77 C 1020.13 601.93 1022.77 627.53 1008.61 644.95 L 1002.02 653.06 C 987.85 670.48 962.25 673.12 944.84 658.95 Z" fill="#559f81" fill-rule="nonzero" group-id="2" node-id="101" stroke="none" target-height="153.18" target-width="163.97003" target-x="858.8" target-y="519.94"></path><path d="M 844.03 379.77 C 844.03 473.41 768.12 549.32 674.48 549.32 C 580.84 549.32 504.93 473.41 504.93 379.77 C 504.93 286.13 580.84 210.22 674.48 210.22 C 768.12 210.22 844.03 286.13 844.03 379.77 Z" fill="#fafffa" fill-rule="nonzero" node-id="104" stroke="none" target-height="339.1" target-width="339.10004" target-x="504.93" target-y="210.22"></path><path d="M 807.02 337.87 L 784.81 315.53 C 780.82 311.51 774.32 311.49 770.31 315.49 L 661.67 423.50 L 598.83 360.30 C 594.84 356.28 588.34 356.26 584.33 360.26 L 561.99 382.47 C 557.97 386.46 557.95 392.96 561.95 396.97 L 632.02 467.44 L 654.23 489.78 C 658.22 493.80 664.72 493.82 668.73 489.82 L 691.07 467.61 L 806.98 352.37 C 810.99 348.38 811.01 341.89 807.02 337.87 Z" fill="#73caa7" fill-rule="nonzero" node-id="106" stroke="none" target-height="182.33002" target-width="253.06" target-x="557.95" target-y="311.49"></path><path d="M 523.32 414.61 C 523.32 320.97 599.23 245.06 692.87 245.06 C 750.91 245.06 802.12 274.23 832.69 318.69 C 808.17 255.23 746.59 210.22 674.49 210.22 C 580.85 210.22 504.94 286.13 504.94 379.77 C 504.94 415.37 515.92 448.41 534.67 475.69 C 527.35 456.74 523.32 436.15 523.32 414.61 Z" fill="#559f81" fill-opacity="0.33" fill-rule="nonzero" node-id="108" stroke="none" target-height="265.47" target-width="327.75" target-x="504.94" target-y="210.22"></path></svg>