<?xml version="1.0" standalone="no"?><!DOCTYPE svg PUBLIC "-//W3C//DTD SVG 1.1//EN" "http://www.w3.org/Graphics/SVG/1.1/DTD/svg11.dtd"><svg height="253" node-id="1" sillyvg="true" template-height="253" template-width="257" version="1.1" viewBox="0 0 257 253" width="257" xmlns="http://www.w3.org/2000/svg" xmlns:xlink="http://www.w3.org/1999/xlink"><defs node-id="291"></defs><g node-id="719"><g node-id="721"><path d="M 252.48 119.33 C 252.48 78.62 219.41 45.63 178.61 45.63 C 177.97 45.63 177.35 45.66 176.72 45.68 C 163.83 24.09 140.22 9.61 113.20 9.61 C 72.40 9.61 39.33 42.61 39.33 83.31 C 39.33 83.84 39.36 84.36 39.37 84.88 C 17.06 97.56 2.00 121.49 2.00 148.94 C 2.00 189.64 35.07 222.63 75.87 222.63 C 78.19 222.63 80.48 222.51 82.75 222.31 C 96.30 238.68 116.80 249.12 139.75 249.12 C 177.46 249.12 208.54 220.93 213.04 184.52 C 236.49 172.17 252.48 147.62 252.48 119.33 Z" fill="#d6f0ff" fill-rule="nonzero" group-id="1,3" node-id="295" stroke="none" target-height="239.506" target-width="250.479" target-x="2" target-y="9.612"></path><path d="M 2.57 139.83 C 2.20 142.82 2.00 145.86 2.00 148.94 C 2.00 189.64 35.07 222.63 75.87 222.63 C 78.19 222.63 80.48 222.51 82.75 222.31 C 96.30 238.68 116.80 249.12 139.75 249.12 C 177.46 249.12 208.54 220.93 213.04 184.52 C 230.59 175.28 243.96 159.20 249.58 139.83 L 2.57 139.83 L 2.57 139.83 Z" fill="#faf0e6" fill-rule="nonzero" group-id="1,3" node-id="297" stroke="none" target-height="109.285" target-width="247.576" target-x="2" target-y="139.833"></path><g node-id="727"><g node-id="770"><path d="M 126.96 120.72 L 179.47 45.56 L 242.31 120.72 Z" fill="#f0f0ff" fill-rule="nonzero" group-id="1,3,9,52" node-id="302" stroke="none" target-height="75.160995" target-width="115.353" target-x="126.959" target-y="45.56"></path><path d="M 242.33 122.22 C 242.33 122.22 242.32 122.22 242.31 122.22 L 126.96 122.22 C 126.40 122.22 125.89 121.91 125.63 121.41 C 125.37 120.92 125.41 120.32 125.73 119.86 L 178.25 44.70 C 178.51 44.32 178.94 44.08 179.41 44.06 C 179.88 44.05 180.33 44.24 180.63 44.60 L 243.34 119.60 C 243.64 119.88 243.83 120.28 243.83 120.72 C 243.83 121.55 243.16 122.22 242.33 122.22 Z M 129.84 119.22 L 239.10 119.22 L 179.58 48.03 L 129.84 119.22 Z" fill="#ccccde" fill-rule="nonzero" group-id="1,3,9,52" node-id="304" stroke="none" target-height="78.175995" target-width="118.46199" target-x="125.371" target-y="44.046"></path></g><g node-id="771"><path d="M 32.08 120.72 L 79.55 52.78 L 136.35 120.72 Z" fill="#f0f0ff" fill-rule="nonzero" group-id="1,3,9,53" node-id="309" stroke="none" target-height="67.938" target-width="104.267006" target-x="32.083" target-y="52.783"></path><path d="M 136.37 122.22 C 136.36 122.22 136.36 122.22 136.35 122.22 L 32.08 122.22 C 31.52 122.22 31.01 121.91 30.75 121.41 C 30.50 120.92 30.53 120.32 30.85 119.86 L 78.32 51.92 C 78.59 51.54 79.02 51.30 79.48 51.28 C 79.97 51.27 80.40 51.46 80.70 51.82 L 137.37 119.60 C 137.68 119.88 137.87 120.28 137.87 120.72 C 137.87 121.55 137.20 122.22 136.37 122.22 Z M 34.96 119.22 L 133.14 119.22 L 79.66 55.25 L 34.96 119.22 Z" fill="#ccccde" fill-rule="nonzero" group-id="1,3,9,53" node-id="311" stroke="none" target-height="70.95" target-width="107.37499" target-x="30.495" target-y="51.272"></path></g><g node-id="772"><path d="M 61.75 120.72 L 127.74 26.27 L 206.71 120.72 Z" fill="#f0f0ff" fill-rule="nonzero" group-id="1,3,9,54" node-id="316" stroke="none" target-height="94.451004" target-width="144.95901" target-x="61.751" target-y="26.27"></path><path d="M 206.73 122.22 C 206.72 122.22 206.72 122.22 206.71 122.22 L 61.75 122.22 C 61.19 122.22 60.68 121.91 60.42 121.41 C 60.16 120.92 60.20 120.32 60.52 119.86 L 126.52 25.41 C 126.78 25.03 127.21 24.79 127.68 24.77 C 128.16 24.75 128.60 24.95 128.90 25.31 L 207.73 119.60 C 208.04 119.88 208.23 120.28 208.23 120.72 C 208.23 121.55 207.56 122.22 206.73 122.22 Z M 64.63 119.22 L 203.50 119.22 L 127.85 28.74 L 64.63 119.22 Z" fill="#ccccde" fill-rule="nonzero" group-id="1,3,9,54" node-id="318" stroke="none" target-height="97.467" target-width="148.067" target-x="60.163" target-y="24.755"></path></g><g node-id="773"><path d="M 127.74 26.27 L 168.66 103.23 L 127.49 70.92 L 147.24 106.38 L 86.32 112.39 L 117.11 41.48 L 61.75 120.72 L 206.16 120.04 Z" fill="#6e6e96" fill-opacity="0.1" fill-rule="nonzero" group-id="1,3,9,55" node-id="323" stroke="none" target-height="94.451004" target-width="144.40799" target-x="61.751" target-y="26.27"></path></g><g node-id="774"><path d="M 79.55 52.78 L 50.16 112.69 L 92.82 68.66 L 95.71 72.11 L 61.75 120.72 L 32.08 120.72 Z" fill="#6e6e96" fill-opacity="0.1" fill-rule="nonzero" group-id="1,3,9,56" node-id="328" stroke="none" target-height="67.938" target-width="63.628" target-x="32.083" target-y="52.783"></path></g><path d="M 164.49 70.22 L 212.85 114.26 L 226.25 114.26 L 179.47 45.56 L 242.31 120.72 L 206.16 120.57 Z" fill="#6e6e96" fill-opacity="0.1" fill-rule="nonzero" group-id="1,3,9,57" node-id="333" stroke="none" target-height="75.160995" target-width="77.819" target-x="164.493" target-y="45.56"></path></g><path d="M 2.49 140.50 L 249.37 140.50 C 251.39 133.79 252.48 126.69 252.48 119.33 C 252.48 111.15 251.12 103.30 248.66 95.95 L 24.57 95.95 C 12.57 107.51 4.48 123.08 2.49 140.50 Z" fill="#d6f0ff" fill-rule="nonzero" group-id="1,3" node-id="337" stroke="none" target-height="44.549004" target-width="249.989" target-x="2.489" target-y="95.951"></path><path d="M 24.57 94.45 L 248.66 94.45 L 248.66 97.45 L 24.57 97.45 Z" fill="#ccccde" fill-rule="nonzero" group-id="1,3" node-id="339" stroke="none" target-height="3" target-width="224.091" target-x="24.571" target-y="94.451"></path><path d="M 2.49 139.00 L 249.37 139.00 L 249.37 142.00 L 2.49 142.00 Z" fill="#ccccde" fill-rule="nonzero" group-id="1,3" node-id="341" stroke="none" target-height="3" target-width="246.883" target-x="2.489" target-y="139"></path><path d="M 14.58 106.33 L 40.00 106.33 L 40.00 109.33 L 14.58 109.33 Z" fill="#ffffff" fill-rule="nonzero" group-id="1,3" node-id="343" stroke="none" target-height="3" target-width="25.424" target-x="14.576" target-y="106.333"></path><path d="M 31.33 121.00 L 77.33 121.00 L 77.33 124.00 L 31.33 124.00 Z" fill="#ffffff" fill-rule="nonzero" group-id="1,3" node-id="345" stroke="none" target-height="3" target-width="46" target-x="31.333" target-y="121"></path><path d="M 113.33 104.33 L 152.67 104.33 L 152.67 107.33 L 113.33 107.33 Z" fill="#ffffff" fill-opacity="0.61" fill-rule="nonzero" group-id="1,3,10" node-id="349" stroke="none" target-height="3" target-width="39.334007" target-x="113.333" target-y="104.333"></path><path d="M 226.00 111.00 L 238.67 111.00 L 238.67 114.00 L 226.00 114.00 Z" fill="#ffffff" fill-rule="nonzero" group-id="1,3" node-id="352" stroke="none" target-height="3" target-width="12.667007" target-x="226" target-y="111"></path><path d="M 180.67 129.67 L 215.33 129.67 L 215.33 132.67 L 180.67 132.67 Z" fill="#ffffff" fill-rule="nonzero" group-id="1,3" node-id="354" stroke="none" target-height="3" target-width="34.666992" target-x="180.667" target-y="129.667"></path><path d="M 193.33 107.00 L 203.33 107.00 L 203.33 110.00 L 193.33 110.00 Z" fill="#ffffff" fill-opacity="0.48" fill-rule="nonzero" group-id="1,3,11" node-id="358" stroke="none" target-height="3" target-width="10" target-x="193.334" target-y="107"></path><path d="M 77.33 110.33 L 92.67 110.33 L 92.67 113.33 L 77.33 113.33 Z" fill="#ffffff" fill-opacity="0.48" fill-rule="nonzero" group-id="1,3,12" node-id="363" stroke="none" target-height="3" target-width="15.334" target-x="77.333" target-y="110.333"></path><path d="M 6.67 126.33 L 12.00 126.33 L 12.00 129.33 L 6.67 129.33 Z" fill="#ffffff" fill-opacity="0.48" fill-rule="nonzero" group-id="1,3,13" node-id="368" stroke="none" target-height="2.9999924" target-width="5.333" target-x="6.667" target-y="126.333"></path><path d="M 250.60 102.83 C 250.06 100.49 249.41 98.20 248.66 95.95 L 24.57 95.95 C 22.33 98.11 20.23 100.41 18.27 102.83 L 250.60 102.83 Z" fill="#6e6e96" fill-opacity="0.1" fill-rule="nonzero" group-id="1,3,14" node-id="373" stroke="none" target-height="6.882004" target-width="232.326" target-x="18.272" target-y="95.951"></path><path d="M -1.00 133.50 L 255.00 133.50 L 255.00 138.83 L -1.00 138.83 Z" fill="#ffffff" fill-opacity="0.38" fill-rule="nonzero" group-id="1,3,15" node-id="378" stroke="none" target-height="5.3339996" target-width="256" target-x="-1" target-y="133.5"></path></g><g node-id="722"><g node-id="734"><path d="M 168.47 202.98 C 168.47 202.95 168.47 202.93 168.47 202.90 C 168.47 198.77 165.12 195.42 160.99 195.42 C 159.08 195.42 157.34 196.15 156.02 197.33 C 154.99 192.42 150.63 188.73 145.42 188.73 C 143.05 188.73 140.86 189.50 139.07 190.79 C 136.83 187.71 133.20 185.69 129.09 185.69 C 123.46 185.69 118.72 189.47 117.24 194.63 C 116.69 194.51 116.11 194.44 115.52 194.44 C 111.12 194.44 107.56 198.01 107.56 202.41 C 107.56 202.60 107.57 202.79 107.58 202.97 L 168.47 202.97 L 168.47 202.98 Z" fill="#e7ede9" fill-rule="nonzero" group-id="1,4,16" node-id="386" stroke="none" target-height="17.281998" target-width="60.912994" target-x="107.556" target-y="185.695"></path><path d="M 168.47 204.48 L 107.58 204.48 C 106.79 204.48 106.13 203.86 106.09 203.06 L 106.08 202.92 C 106.07 202.75 106.06 202.58 106.06 202.41 C 106.06 196.96 110.69 192.54 116.22 192.97 C 118.28 187.75 123.40 184.20 129.10 184.20 C 133.03 184.20 136.78 185.90 139.39 188.81 C 141.23 187.77 143.29 187.23 145.42 187.23 C 150.48 187.23 155.00 190.37 156.85 194.94 C 158.12 194.28 159.54 193.92 160.99 193.92 C 165.94 193.92 169.97 197.95 169.97 202.90 C 169.97 202.94 169.97 203.02 169.96 203.05 C 169.96 203.88 169.29 204.48 168.47 204.48 Z M 109.12 201.48 L 166.81 201.48 C 166.19 198.89 163.81 196.92 160.99 196.92 C 159.53 196.92 158.12 197.46 157.01 198.44 C 156.62 198.80 156.05 198.92 155.55 198.75 C 155.04 198.58 154.66 198.16 154.55 197.63 C 153.65 193.34 149.81 190.23 145.42 190.23 C 143.45 190.23 141.56 190.85 139.95 192.01 C 139.29 192.50 138.35 192.35 137.86 191.68 C 135.82 188.87 132.54 187.20 129.09 187.20 C 124.29 187.20 120.00 190.43 118.68 195.05 C 118.47 195.81 117.70 196.28 116.92 196.10 C 113.08 195.27 109.64 197.91 109.12 201.48 Z" fill="#ccccde" fill-rule="nonzero" group-id="1,4,16" node-id="388" stroke="none" target-height="20.279999" target-width="63.912994" target-x="106.056" target-y="184.197"></path></g><g node-id="735"><path d="M 126.39 158.35 L 53.48 158.35 L 64.06 53.26 L 115.82 53.26 Z" fill="#f0f0f7" fill-rule="nonzero" group-id="1,4,17" node-id="393" stroke="none" target-height="105.089005" target-width="72.918" target-x="53.477" target-y="53.261"></path><path d="M 126.42 159.85 C 126.41 159.85 126.40 159.85 126.39 159.85 L 53.48 159.85 C 53.05 159.85 52.65 159.67 52.37 159.36 C 52.08 159.04 51.94 158.62 51.98 158.20 L 62.56 53.11 C 62.64 52.34 63.28 51.76 64.06 51.76 L 115.82 51.76 C 116.59 51.76 117.23 52.34 117.31 53.11 L 127.86 157.96 C 127.90 158.08 127.92 158.21 127.92 158.35 C 127.92 159.18 127.24 159.85 126.42 159.85 Z M 55.14 156.85 L 124.74 156.85 L 114.46 54.76 L 65.41 54.76 L 55.14 156.85 Z" fill="#ccccde" fill-rule="nonzero" group-id="1,4,17" node-id="395" stroke="none" target-height="108.09001" target-width="75.974" target-x="51.942" target-y="51.76"></path></g><g node-id="736"><path d="M 82.12 53.26 L 82.12 158.35 L 62.28 158.35 L 70.88 56.04 Z" fill="#ffffff" fill-opacity="0.55" fill-rule="nonzero" group-id="1,4,18" node-id="400" stroke="none" target-height="105.089005" target-width="19.835003" target-x="62.284" target-y="53.261"></path></g><g node-id="737"><path d="M 64.06 53.26 L 89.94 22.64 L 115.82 53.26 Z" fill="#f0e0dd" fill-rule="nonzero" group-id="1,4,19" node-id="405" stroke="none" target-height="30.622002" target-width="51.762" target-x="64.055" target-y="22.639"></path><path d="M 115.84 54.76 C 115.83 54.76 115.82 54.76 115.82 54.76 L 64.06 54.76 C 63.47 54.76 62.94 54.42 62.70 53.89 C 62.45 53.36 62.53 52.74 62.91 52.29 L 88.79 21.67 C 89.36 21.00 90.51 21.00 91.08 21.67 L 116.83 52.14 C 117.14 52.41 117.34 52.81 117.34 53.26 C 117.34 54.09 116.67 54.76 115.84 54.76 Z M 67.29 51.76 L 112.58 51.76 L 89.94 24.96 L 67.29 51.76 Z" fill="#ccccde" fill-rule="nonzero" group-id="1,4,19" node-id="407" stroke="none" target-height="33.766" target-width="54.887997" target-x="62.449" target-y="20.995"></path></g><g node-id="738"><path d="M 52.88 158.35 L 42.62 169.15 L 42.62 202.66 L 137.26 202.66 L 137.26 169.15 L 127.06 158.41 Z" fill="#f0f0f7" fill-rule="nonzero" group-id="1,4,20" node-id="412" stroke="none" target-height="44.306" target-width="94.63899" target-x="42.617" target-y="158.35"></path><path d="M 137.26 204.16 L 42.62 204.16 C 41.79 204.16 41.12 203.48 41.12 202.66 L 41.12 169.15 C 41.12 168.76 41.27 168.39 41.53 168.12 L 51.79 157.32 C 52.07 157.02 52.47 156.85 52.88 156.85 C 52.88 156.85 52.88 156.85 52.88 156.85 L 127.06 156.91 C 127.47 156.91 127.86 157.08 128.14 157.38 L 138.34 168.11 C 138.61 168.39 138.75 168.76 138.75 169.15 L 138.75 202.66 C 138.76 203.48 138.08 204.16 137.26 204.16 Z M 44.12 201.16 L 135.76 201.16 L 135.76 169.75 L 126.41 159.91 L 53.52 159.85 L 44.12 169.75 L 44.12 201.16 Z" fill="#ccccde" fill-rule="nonzero" group-id="1,4,20" node-id="414" stroke="none" target-height="47.307007" target-width="97.63899" target-x="41.117" target-y="156.849"></path></g><g node-id="739"><path d="M 79.03 159.98 L 69.78 169.72 L 69.78 202.66 L 53.47 202.66 L 53.47 169.72 L 61.63 161.14 Z" fill="#ffffff" fill-opacity="0.55" fill-rule="nonzero" group-id="1,4,21" node-id="419" stroke="none" target-height="42.677002" target-width="25.561996" target-x="53.469" target-y="159.979"></path></g><g node-id="740"><path d="M 123.11 141.69 L 114.30 141.69 L 114.30 132.13 L 123.11 132.13 C 124.57 132.13 125.75 130.88 125.75 129.35 C 125.75 127.81 124.57 126.56 123.11 126.56 L 102.39 126.56 L 102.39 116.25 L 121.88 116.25 C 123.34 116.25 124.52 115.00 124.52 113.47 C 124.52 111.93 123.34 110.68 121.88 110.68 L 113.41 110.68 L 113.41 100.98 L 120.26 100.98 C 121.72 100.98 122.91 99.74 122.91 98.20 C 122.91 96.67 121.72 95.42 120.26 95.42 L 102.39 95.42 L 102.39 84.76 L 118.71 84.76 C 120.17 84.76 121.35 83.51 121.35 81.98 C 121.35 80.44 120.17 79.19 118.71 79.19 L 111.21 79.19 L 111.21 70.27 L 117.25 70.27 C 118.71 70.27 119.89 69.02 119.89 67.48 C 119.89 65.95 118.71 64.70 117.25 64.70 L 101.95 64.70 L 101.95 53.26 L 96.66 53.26 L 96.66 64.70 L 82.12 64.70 L 82.12 53.26 L 76.83 53.26 L 76.83 64.70 L 62.62 64.70 C 61.16 64.70 59.98 65.95 59.98 67.48 C 59.98 69.02 61.16 70.27 62.62 70.27 L 68.02 70.27 L 68.02 79.19 L 61.21 79.19 C 59.75 79.19 58.56 80.44 58.56 81.98 C 58.56 83.52 59.75 84.76 61.21 84.76 L 75.95 84.76 L 75.95 95.42 L 59.53 95.42 C 58.07 95.42 56.89 96.67 56.89 98.20 C 56.89 99.74 58.07 100.99 59.53 100.99 L 66.69 100.99 L 66.69 110.68 L 57.97 110.68 C 56.51 110.68 55.32 111.93 55.32 113.47 C 55.32 115.01 56.51 116.25 57.97 116.25 L 74.63 116.25 L 74.63 126.57 L 56.53 126.57 C 55.07 126.57 53.88 127.81 53.88 129.35 C 53.88 130.89 55.06 132.13 56.53 132.13 L 64.05 132.13 L 64.05 141.69 L 54.87 141.69 C 53.41 141.69 53.83 142.94 53.83 144.47 C 53.83 146.01 53.41 147.26 54.87 147.26 L 73.74 147.26 L 73.74 158.37 L 79.03 158.37 L 79.03 147.26 L 101.51 147.26 L 101.51 159.79 L 106.80 159.79 L 106.80 147.26 L 123.11 147.26 C 124.57 147.26 125.75 146.01 125.75 144.47 C 125.75 142.94 124.57 141.69 123.11 141.69 Z M 109.00 141.69 L 91.38 141.69 L 91.38 132.13 L 109.00 132.13 L 109.00 141.69 Z M 108.12 110.69 L 91.82 110.69 L 91.82 100.99 L 108.12 100.99 L 108.12 110.69 Z M 105.92 79.19 L 92.26 79.19 L 92.26 70.27 L 105.92 70.27 L 105.92 79.19 Z M 73.31 70.27 L 86.97 70.27 L 86.97 79.19 L 73.31 79.19 L 73.31 70.27 Z M 81.24 84.76 L 97.11 84.76 L 97.11 95.42 L 81.24 95.42 L 81.24 84.76 Z M 71.98 100.99 L 86.53 100.99 L 86.53 110.68 L 71.98 110.68 L 71.98 100.99 Z M 79.92 116.25 L 97.11 116.25 L 97.11 126.57 L 79.92 126.57 L 79.92 116.25 Z M 69.34 132.13 L 86.09 132.13 L 86.09 141.69 L 69.34 141.69 L 69.34 132.13 Z" fill="#6e6e96" fill-opacity="0.07" fill-rule="nonzero" group-id="1,4,22" node-id="424" stroke="none" target-height="106.524994" target-width="72.343" target-x="53.412" target-y="53.261"></path></g><g node-id="741"><path d="M 88.54 24.30 L 106.58 53.26 L 112.53 157.00 L 127.06 157.00 L 113.84 55.11 L 91.91 24.49 Z" fill="#6e6e96" fill-opacity="0.06" fill-rule="nonzero" group-id="1,4,23" node-id="429" stroke="none" target-height="132.7" target-width="38.517" target-x="88.54" target-y="24.302"></path></g><g node-id="742"><path d="M 112.53 157.00 L 122.23 169.72 L 122.23 202.66 L 137.26 202.66 L 137.26 169.15 L 127.06 157.00 Z" fill="#6e6e96" fill-opacity="0.06" fill-rule="nonzero" group-id="1,4,24" node-id="434" stroke="none" target-height="45.654007" target-width="24.724998" target-x="112.531" target-y="157.002"></path></g><g node-id="743"><path d="M 101.29 177.87 L 101.29 202.66 L 77.05 202.66 L 77.05 177.87 C 77.05 177.87 76.80 166.96 90.64 167.48 C 100.43 167.84 101.29 177.87 101.29 177.87 Z" fill="#e8d5d5" fill-rule="nonzero" group-id="1,4,25" node-id="439" stroke="none" target-height="35.694" target-width="24.492996" target-x="76.799" target-y="166.962"></path><path d="M 102.79 204.16 L 75.55 204.16 L 75.55 177.87 C 75.55 177.71 75.48 173.26 78.85 169.81 C 81.35 167.25 85.00 165.96 89.71 165.96 C 90.03 165.96 90.36 165.97 90.70 165.98 C 99.48 166.31 102.45 173.81 102.79 177.74 L 102.79 177.87 L 102.79 204.16 Z M 78.55 201.16 L 99.79 201.16 L 99.79 177.94 C 99.70 177.14 98.64 169.28 90.59 168.97 C 86.26 168.82 83.08 169.80 81.03 171.88 C 78.53 174.41 78.55 177.80 78.55 177.84 L 78.55 201.16 Z" fill="#ccccde" fill-rule="nonzero" group-id="1,4,25" node-id="441" stroke="none" target-height="38.197006" target-width="27.307999" target-x="75.484" target-y="165.959"></path></g><g node-id="744"><g node-id="776"><g node-id="780"><path d="M 73.34 77.25 L 18.58 22.86 L 34.76 6.57 L 89.51 60.96 Z" fill="#fff4e8" fill-rule="nonzero" group-id="1,4,26,58,62" node-id="450" stroke="none" target-height="70.678154" target-width="70.938416" target-x="18.57618" target-y="6.568741"></path></g><path d="M 73.33 78.75 C 72.95 78.75 72.57 78.60 72.28 78.31 L 17.52 23.92 C 16.93 23.34 16.93 22.39 17.51 21.80 L 33.69 5.51 C 33.97 5.23 34.35 5.07 34.75 5.07 C 34.75 5.07 34.75 5.07 34.76 5.07 C 35.15 5.07 35.53 5.22 35.81 5.50 L 90.57 59.89 C 90.85 60.17 91.01 60.55 91.02 60.95 C 91.02 61.35 90.86 61.73 90.58 62.01 L 74.40 78.30 C 74.11 78.60 73.72 78.75 73.33 78.75 Z M 20.70 22.85 L 73.33 75.13 L 87.39 60.97 L 34.76 8.69 L 20.70 22.85 Z" fill="#ccccde" fill-rule="nonzero" group-id="1,4,26,58" node-id="453" stroke="none" target-height="73.68" target-width="74.088" target-x="16.928" target-y="5.067"></path></g><path d="M 81.19 70.84 C 80.81 70.84 80.43 70.69 80.13 70.40 L 25.38 16.02 C 24.79 15.43 24.78 14.48 25.37 13.89 C 25.95 13.31 26.90 13.30 27.49 13.89 L 82.25 68.28 C 82.84 68.86 82.84 69.81 82.26 70.40 C 81.96 70.69 81.58 70.84 81.19 70.84 Z" fill="#ccccde" fill-rule="nonzero" group-id="1,4,26" node-id="456" stroke="none" target-height="57.535995" target-width="58.055996" target-x="24.784" target-y="13.303"></path><path d="M 64.31 69.78 C 63.93 69.78 63.55 69.64 63.25 69.35 C 62.66 68.76 62.66 67.81 63.25 67.22 L 79.42 50.93 C 80.01 50.35 80.96 50.34 81.55 50.93 C 82.14 51.51 82.14 52.46 81.55 53.05 L 65.38 69.34 C 65.08 69.63 64.70 69.78 64.31 69.78 Z" fill="#ccccde" fill-rule="nonzero" group-id="1,4,26" node-id="458" stroke="none" target-height="19.439999" target-width="19.476002" target-x="62.662" target-y="50.342"></path><path d="M 55.28 60.82 C 54.90 60.82 54.52 60.67 54.23 60.38 C 53.64 59.80 53.63 58.85 54.22 58.26 L 70.40 41.97 C 70.98 41.38 71.93 41.38 72.52 41.96 C 73.11 42.55 73.11 43.50 72.53 44.08 L 56.35 60.38 C 56.05 60.67 55.67 60.82 55.28 60.82 Z" fill="#ccccde" fill-rule="nonzero" group-id="1,4,26" node-id="460" stroke="none" target-height="19.440002" target-width="19.477001" target-x="53.635" target-y="41.378"></path><path d="M 46.26 51.85 C 45.88 51.85 45.49 51.71 45.20 51.42 C 44.61 50.83 44.61 49.88 45.19 49.29 L 61.37 33.00 C 61.96 32.42 62.91 32.41 63.49 33.00 C 64.08 33.58 64.09 34.53 63.50 35.12 L 47.32 51.41 C 47.03 51.70 46.64 51.85 46.26 51.85 Z" fill="#ccccde" fill-rule="nonzero" group-id="1,4,26" node-id="462" stroke="none" target-height="19.439003" target-width="19.475998" target-x="44.61" target-y="32.413"></path><path d="M 37.53 43.19 C 37.15 43.19 36.77 43.04 36.47 42.75 C 35.89 42.17 35.88 41.22 36.47 40.63 L 52.65 24.34 C 53.23 23.75 54.18 23.75 54.77 24.33 C 55.36 24.91 55.36 25.86 54.78 26.45 L 38.60 42.74 C 38.30 43.04 37.92 43.19 37.53 43.19 Z" fill="#ccccde" fill-rule="nonzero" group-id="1,4,26" node-id="464" stroke="none" target-height="19.44" target-width="19.478" target-x="35.883" target-y="23.747"></path><path d="M 28.20 33.92 C 27.82 33.92 27.44 33.78 27.15 33.49 C 26.56 32.90 26.56 31.95 27.14 31.36 L 43.32 15.07 C 43.90 14.49 44.85 14.48 45.44 15.07 C 46.03 15.65 46.03 16.60 45.45 17.19 L 29.27 33.48 C 28.98 33.77 28.59 33.92 28.20 33.92 Z" fill="#ccccde" fill-rule="nonzero" group-id="1,4,26" node-id="466" stroke="none" target-height="19.439001" target-width="19.476002" target-x="26.557" target-y="14.483"></path></g><path d="M 112.75 117.89 C 112.37 117.89 111.99 117.75 111.69 117.46 L 17.52 23.92 C 16.93 23.34 16.93 22.39 17.51 21.80 C 18.10 21.21 19.05 21.21 19.64 21.79 L 113.81 115.33 C 114.40 115.91 114.40 116.86 113.82 117.45 C 113.52 117.75 113.14 117.89 112.75 117.89 Z" fill="#ccccde" fill-rule="nonzero" group-id="1,4" node-id="469" stroke="none" target-height="96.684" target-width="97.472" target-x="16.929" target-y="21.21"></path><path d="M 147.31 182.69 L 92.55 128.31 L 108.54 112.21 L 163.30 166.60 Z" fill="#fff4e8" fill-rule="nonzero" group-id="1,4,27,59,63" node-id="477" stroke="none" target-height="70.48448" target-width="70.74604" target-x="92.55131" target-y="112.20953"></path><path d="M 147.31 184.19 C 146.93 184.19 146.55 184.05 146.25 183.76 L 91.50 129.37 C 90.91 128.78 90.90 127.83 91.49 127.25 L 107.47 111.15 C 108.06 110.56 109.01 110.56 109.60 111.14 L 164.36 165.53 C 164.64 165.81 164.80 166.19 164.80 166.59 C 164.80 166.99 164.64 167.37 164.36 167.66 L 148.38 183.75 C 148.08 184.05 147.70 184.19 147.31 184.19 Z M 94.67 128.30 L 147.30 180.57 L 161.18 166.60 L 108.55 114.33 L 94.67 128.30 Z" fill="#ccccde" fill-rule="nonzero" group-id="1,4,27,59" node-id="480" stroke="none" target-height="73.631996" target-width="73.896" target-x="90.904" target-y="110.561"></path><path d="M 155.07 176.38 C 154.69 176.38 154.31 176.23 154.02 175.94 L 99.25 121.56 C 98.67 120.97 98.66 120.02 99.25 119.43 C 99.83 118.85 100.78 118.84 101.37 119.43 L 156.13 173.81 C 156.72 174.40 156.72 175.35 156.14 175.94 C 155.84 176.23 155.46 176.38 155.07 176.38 Z" fill="#ccccde" fill-rule="nonzero" group-id="1,4,27" node-id="483" stroke="none" target-height="57.538002" target-width="58.058" target-x="98.664" target-y="118.842"></path><path d="M 138.28 175.23 C 137.90 175.23 137.52 175.08 137.23 174.79 C 136.64 174.21 136.63 173.26 137.22 172.67 L 153.21 156.57 C 153.79 155.99 154.74 155.98 155.33 156.57 C 155.91 157.15 155.92 158.10 155.34 158.69 L 139.35 174.78 C 139.06 175.08 138.67 175.23 138.28 175.23 Z" fill="#ccccde" fill-rule="nonzero" group-id="1,4,27" node-id="485" stroke="none" target-height="19.246002" target-width="19.284012" target-x="136.635" target-y="155.983"></path><path d="M 129.26 166.27 C 128.88 166.27 128.49 166.12 128.20 165.83 C 127.61 165.25 127.61 164.30 128.19 163.71 L 144.18 147.61 C 144.76 147.02 145.72 147.02 146.30 147.60 C 146.89 148.19 146.89 149.13 146.31 149.72 L 130.32 165.82 C 130.03 166.12 129.64 166.27 129.26 166.27 Z" fill="#ccccde" fill-rule="nonzero" group-id="1,4,27" node-id="487" stroke="none" target-height="19.248001" target-width="19.283997" target-x="127.61" target-y="147.018"></path><path d="M 120.23 157.30 C 119.85 157.30 119.47 157.15 119.18 156.86 C 118.59 156.28 118.58 155.33 119.17 154.74 L 135.16 138.65 C 135.74 138.06 136.69 138.06 137.28 138.64 C 137.87 139.22 137.87 140.17 137.28 140.76 L 121.30 156.85 C 121.00 157.15 120.62 157.30 120.23 157.30 Z" fill="#ccccde" fill-rule="nonzero" group-id="1,4,27" node-id="489" stroke="none" target-height="19.242004" target-width="19.284004" target-x="118.585" target-y="138.055"></path><path d="M 111.51 148.63 C 111.12 148.63 110.74 148.49 110.45 148.20 C 109.86 147.62 109.86 146.67 110.44 146.08 L 126.43 129.98 C 127.01 129.39 127.96 129.39 128.55 129.97 C 129.14 130.56 129.14 131.50 128.56 132.09 L 112.57 148.19 C 112.28 148.49 111.89 148.63 111.51 148.63 Z" fill="#ccccde" fill-rule="nonzero" group-id="1,4,27" node-id="491" stroke="none" target-height="19.245987" target-width="19.283997" target-x="109.858" target-y="129.389"></path><path d="M 102.18 139.37 C 101.80 139.37 101.42 139.22 101.12 138.93 C 100.53 138.35 100.53 137.40 101.11 136.81 L 117.10 120.71 C 117.69 120.13 118.64 120.12 119.22 120.71 C 119.81 121.29 119.81 122.24 119.23 122.83 L 103.24 138.93 C 102.95 139.22 102.56 139.37 102.18 139.37 Z" fill="#ccccde" fill-rule="nonzero" group-id="1,4,27" node-id="493" stroke="none" target-height="19.246002" target-width="19.284004" target-x="100.531" target-y="120.123"></path><path d="M 109.02 77.68 L 165.42 24.99 L 181.09 41.77 L 124.70 94.46 Z" fill="#fff4e8" fill-rule="nonzero" group-id="1,4,28,60,64" node-id="502" stroke="none" target-height="69.466286" target-width="72.06875" target-x="109.02439" target-y="24.992142"></path><path d="M 124.70 95.96 C 124.68 95.96 124.67 95.96 124.65 95.96 C 124.25 95.94 123.88 95.77 123.60 95.48 L 107.93 78.71 C 107.36 78.10 107.40 77.15 108.00 76.59 L 164.40 23.90 C 164.69 23.63 165.07 23.48 165.47 23.49 C 165.87 23.51 166.24 23.68 166.51 23.97 L 182.19 40.75 C 182.75 41.35 182.72 42.30 182.12 42.87 L 125.72 95.56 C 125.44 95.81 125.08 95.96 124.70 95.96 Z M 111.14 77.75 L 124.77 92.34 L 178.97 41.70 L 165.35 27.11 L 111.14 77.75 Z" fill="#ccccde" fill-rule="nonzero" group-id="1,4,28,60" node-id="505" stroke="none" target-height="72.479004" target-width="75.39101" target-x="107.364" target-y="23.48"></path><path d="M 116.63 87.32 C 116.23 87.32 115.83 87.16 115.53 86.84 C 114.97 86.24 115.00 85.29 115.60 84.72 L 172.00 32.04 C 172.61 31.47 173.56 31.50 174.12 32.11 C 174.69 32.71 174.65 33.66 174.05 34.23 L 117.65 86.92 C 117.36 87.19 117.00 87.32 116.63 87.32 Z" fill="#ccccde" fill-rule="nonzero" group-id="1,4,28" node-id="508" stroke="none" target-height="55.847" target-width="59.719" target-x="114.967" target-y="31.472"></path><path d="M 133.99 87.27 C 133.59 87.27 133.19 87.11 132.90 86.79 L 117.22 70.01 C 116.66 69.41 116.69 68.46 117.29 67.89 C 117.90 67.33 118.85 67.36 119.41 67.97 L 135.09 84.74 C 135.65 85.35 135.62 86.30 135.02 86.86 C 134.73 87.13 134.36 87.27 133.99 87.27 Z" fill="#ccccde" fill-rule="nonzero" group-id="1,4,28" node-id="510" stroke="none" target-height="19.937996" target-width="18.996994" target-x="116.655" target-y="67.329"></path><path d="M 143.29 78.58 C 142.89 78.58 142.49 78.42 142.19 78.11 L 126.52 61.33 C 125.95 60.72 125.98 59.77 126.59 59.21 C 127.19 58.64 128.14 58.68 128.71 59.28 L 144.38 76.06 C 144.95 76.66 144.91 77.61 144.31 78.18 C 144.02 78.45 143.65 78.58 143.29 78.58 Z" fill="#ccccde" fill-rule="nonzero" group-id="1,4,28" node-id="512" stroke="none" target-height="19.938" target-width="18.997002" target-x="125.951" target-y="58.644"></path><path d="M 152.58 69.90 C 152.18 69.90 151.78 69.74 151.49 69.42 L 135.81 52.64 C 135.25 52.04 135.28 51.09 135.88 50.52 C 136.49 49.96 137.44 49.99 138.00 50.60 L 153.68 67.37 C 154.24 67.98 154.21 68.93 153.61 69.49 C 153.32 69.76 152.95 69.90 152.58 69.90 Z" fill="#ccccde" fill-rule="nonzero" group-id="1,4,28" node-id="514" stroke="none" target-height="19.937004" target-width="18.99701" target-x="135.247" target-y="49.96"></path><path d="M 161.57 61.50 C 161.17 61.50 160.76 61.34 160.47 61.03 L 144.80 44.25 C 144.24 43.64 144.27 42.69 144.87 42.13 C 145.48 41.56 146.43 41.59 146.99 42.20 L 162.66 58.98 C 163.23 59.58 163.19 60.53 162.59 61.10 C 162.30 61.37 161.93 61.50 161.57 61.50 Z" fill="#ccccde" fill-rule="nonzero" group-id="1,4,28" node-id="516" stroke="none" target-height="19.938" target-width="18.992996" target-x="144.235" target-y="41.565"></path><path d="M 171.18 52.53 C 170.78 52.53 170.38 52.37 170.08 52.05 L 154.41 35.27 C 153.84 34.67 153.87 33.72 154.48 33.16 C 155.08 32.59 156.03 32.62 156.60 33.23 L 172.27 50.01 C 172.84 50.61 172.80 51.56 172.20 52.12 C 171.91 52.40 171.54 52.53 171.18 52.53 Z" fill="#ccccde" fill-rule="nonzero" group-id="1,4,28" node-id="518" stroke="none" target-height="19.938" target-width="18.99701" target-x="153.84" target-y="32.591"></path><path d="M 68.43 117.10 C 68.03 117.10 67.62 116.94 67.33 116.62 C 66.76 116.02 66.80 115.07 67.40 114.50 L 164.39 23.89 C 165.00 23.33 165.95 23.36 166.51 23.96 C 167.08 24.57 167.05 25.52 166.44 26.08 L 69.45 116.69 C 69.16 116.96 68.79 117.10 68.43 117.10 Z" fill="#ccccde" fill-rule="nonzero" group-id="1,4" node-id="521" stroke="none" target-height="93.770996" target-width="100.314995" target-x="66.764" target-y="23.327"></path><path d="M 0.88 147.64 L 57.29 94.96 L 72.77 111.54 L 16.37 164.22 Z" fill="#fff4e8" fill-rule="nonzero" group-id="1,4,29,61" node-id="527" stroke="none" target-height="69.26273" target-width="71.88928" target-x="0.8830414" target-y="94.961006"></path><path d="M 16.37 165.72 C 15.97 165.72 15.57 165.56 15.27 165.25 L -0.21 148.67 C -0.78 148.06 -0.75 147.11 -0.14 146.55 L 56.26 93.86 C 56.55 93.59 56.94 93.45 57.34 93.46 C 57.73 93.47 58.11 93.65 58.38 93.94 L 73.87 110.52 C 74.43 111.12 74.40 112.07 73.79 112.64 L 17.39 165.32 C 17.10 165.59 16.73 165.72 16.37 165.72 Z M 3.00 147.72 L 16.44 162.10 L 70.65 111.47 L 57.21 97.08 L 3.00 147.72 Z" fill="#ccccde" fill-rule="nonzero" group-id="1,4,29" node-id="530" stroke="none" target-height="72.27201" target-width="75.211" target-x="-0.78" target-y="93.451"></path><path d="M 8.40 157.20 C 8.00 157.20 7.60 157.04 7.30 156.73 C 6.74 156.12 6.77 155.17 7.37 154.61 L 63.77 101.92 C 64.38 101.35 65.33 101.38 65.89 101.99 C 66.45 102.59 66.42 103.55 65.82 104.11 L 9.42 156.80 C 9.13 157.07 8.77 157.20 8.40 157.20 Z" fill="#ccccde" fill-rule="nonzero" group-id="1,4" node-id="533" stroke="none" target-height="55.849" target-width="59.719" target-x="6.736" target-y="101.353"></path><path d="M 25.67 157.05 C 25.27 157.05 24.86 156.89 24.57 156.57 L 9.08 139.99 C 8.52 139.39 8.55 138.44 9.15 137.87 C 9.76 137.31 10.71 137.34 11.27 137.94 L 26.76 154.52 C 27.33 155.13 27.29 156.08 26.69 156.64 C 26.40 156.91 26.03 157.05 25.67 157.05 Z" fill="#ccccde" fill-rule="nonzero" group-id="1,4" node-id="535" stroke="none" target-height="19.73999" target-width="18.811" target-x="8.515" target-y="137.307"></path><path d="M 34.96 148.36 C 34.56 148.36 34.16 148.20 33.86 147.89 L 18.37 131.31 C 17.81 130.70 17.84 129.75 18.45 129.19 C 19.05 128.62 20.00 128.65 20.57 129.26 L 36.06 145.84 C 36.62 146.44 36.59 147.39 35.98 147.96 C 35.70 148.23 35.33 148.36 34.96 148.36 Z" fill="#ccccde" fill-rule="nonzero" group-id="1,4" node-id="537" stroke="none" target-height="19.742004" target-width="18.811998" target-x="17.809" target-y="128.621"></path><path d="M 44.26 139.68 C 43.85 139.68 43.45 139.52 43.16 139.20 L 27.67 122.62 C 27.11 122.02 27.14 121.07 27.75 120.50 C 28.35 119.94 29.30 119.97 29.87 120.58 L 45.35 137.15 C 45.92 137.76 45.88 138.71 45.28 139.27 C 44.99 139.54 44.62 139.68 44.26 139.68 Z" fill="#ccccde" fill-rule="nonzero" group-id="1,4" node-id="539" stroke="none" target-height="19.73899" target-width="18.807001" target-x="27.109" target-y="119.939"></path><path d="M 53.24 131.28 C 52.84 131.28 52.44 131.12 52.15 130.80 L 36.66 114.23 C 36.09 113.62 36.12 112.67 36.73 112.11 C 37.34 111.54 38.28 111.57 38.85 112.18 L 54.34 128.75 C 54.90 129.36 54.87 130.31 54.27 130.87 C 53.98 131.15 53.61 131.28 53.24 131.28 Z" fill="#ccccde" fill-rule="nonzero" group-id="1,4" node-id="541" stroke="none" target-height="19.737007" target-width="18.811" target-x="36.092" target-y="111.542"></path><path d="M 62.85 122.31 C 62.45 122.31 62.05 122.15 61.75 121.83 L 46.27 105.25 C 45.70 104.65 45.73 103.70 46.34 103.13 C 46.94 102.57 47.89 102.60 48.46 103.20 L 63.95 119.78 C 64.51 120.39 64.48 121.34 63.87 121.90 C 63.58 122.17 63.22 122.31 62.85 122.31 Z" fill="#ccccde" fill-rule="nonzero" group-id="1,4" node-id="543" stroke="none" target-height="19.739998" target-width="18.810001" target-x="45.7" target-y="102.568"></path><path d="M 99.19 94.78 C 99.19 99.23 95.57 102.85 91.12 102.85 C 86.66 102.85 83.05 99.23 83.05 94.78 C 83.05 90.32 86.66 86.70 91.12 86.70 C 95.57 86.70 99.19 90.32 99.19 94.78 Z" fill="#ffecd6" fill-rule="nonzero" group-id="1,4,30" node-id="547" stroke="none" target-height="16.141998" target-width="16.141998" target-x="83.045" target-y="86.705"></path><path d="M 91.12 104.35 C 85.84 104.35 81.55 100.05 81.55 94.78 C 81.55 89.50 85.84 85.20 91.12 85.20 C 96.39 85.20 100.69 89.50 100.69 94.78 C 100.69 100.05 96.39 104.35 91.12 104.35 Z M 91.12 88.20 C 87.49 88.20 84.55 91.15 84.55 94.78 C 84.55 98.40 87.49 101.35 91.12 101.35 C 94.74 101.35 97.69 98.40 97.69 94.78 C 97.69 91.15 94.74 88.20 91.12 88.20 Z" fill="#ccccde" fill-rule="nonzero" group-id="1,4,30" node-id="549" stroke="none" target-height="19.141998" target-width="19.141998" target-x="81.545" target-y="85.205"></path><path d="M 89.06 187.09 C 89.06 188.58 87.85 189.79 86.35 189.79 C 84.86 189.79 83.65 188.58 83.65 187.09 C 83.65 185.59 84.86 184.38 86.35 184.38 C 87.85 184.38 89.06 185.59 89.06 187.09 Z" fill="#6e6e96" fill-opacity="0.29" fill-rule="nonzero" group-id="1,4,31" node-id="554" stroke="none" target-height="5.4120026" target-width="5.411995" target-x="83.646" target-y="184.383"></path><path d="M 41.45 172.50 C 41.45 174.03 42.62 175.28 44.05 175.28 L 56.91 175.28 L 56.91 185.95 L 44.06 185.95 C 42.62 185.95 41.45 187.20 41.45 188.74 C 41.45 190.28 42.62 191.52 44.06 191.52 L 70.81 191.52 L 70.81 185.96 L 62.13 185.96 L 62.13 175.28 L 70.81 175.28 L 70.81 169.72 L 44.06 169.72 C 42.62 169.72 41.45 170.96 41.45 172.50 Z M 135.49 185.95 L 124.20 185.95 L 124.20 175.28 L 135.49 175.28 C 136.93 175.28 138.09 174.03 138.09 172.50 C 138.09 170.96 136.93 169.72 135.49 169.72 L 108.46 169.72 L 108.46 175.28 L 119.00 175.28 L 119.00 185.95 L 108.46 185.95 L 108.46 191.52 L 135.49 191.52 C 136.93 191.52 138.09 190.27 138.09 188.74 C 138.10 187.20 136.93 185.95 135.49 185.95 Z" fill="#6e6e96" fill-opacity="0.14" fill-rule="nonzero" group-id="1,4,32" node-id="559" stroke="none" target-height="21.806" target-width="96.64801" target-x="41.45" target-y="169.715"></path><path d="M 68.50 202.18 C 68.50 202.15 68.50 202.12 68.50 202.10 C 68.50 197.97 65.15 194.62 61.02 194.62 C 59.11 194.62 57.37 195.35 56.05 196.52 C 55.02 191.62 50.67 187.93 45.45 187.93 C 43.08 187.93 40.89 188.70 39.10 189.99 C 36.86 186.91 33.23 184.89 29.13 184.89 C 23.49 184.89 18.75 188.67 17.27 193.83 C 16.72 193.71 16.15 193.64 15.55 193.64 C 11.16 193.64 7.59 197.21 7.59 201.61 C 7.59 201.80 7.61 201.98 7.62 202.17 L 68.50 202.18 L 68.50 202.18 Z" fill="#e7ede9" fill-rule="nonzero" group-id="1,4,33" node-id="564" stroke="none" target-height="17.281998" target-width="60.912" target-x="7.589" target-y="184.893"></path><path d="M 68.50 203.68 L 68.50 203.68 L 7.62 203.67 C 6.82 203.67 6.17 203.06 6.12 202.26 L 6.11 202.13 C 6.10 201.96 6.09 201.78 6.09 201.61 C 6.09 196.39 10.33 192.14 15.55 192.14 C 15.79 192.14 16.02 192.15 16.26 192.17 C 18.32 186.94 23.43 183.39 29.13 183.39 C 33.06 183.39 36.81 185.10 39.43 188.01 C 41.27 186.97 43.32 186.43 45.45 186.43 C 50.52 186.43 55.03 189.56 56.88 194.14 C 58.15 193.47 59.57 193.12 61.02 193.12 C 65.97 193.12 70.00 197.15 70.00 202.10 C 70.00 202.14 70.00 202.21 70.00 202.25 C 70.00 202.65 69.84 202.99 69.56 203.27 C 69.28 203.56 68.89 203.68 68.50 203.68 Z M 9.16 200.67 L 66.84 200.68 C 66.22 198.09 63.84 196.12 61.02 196.12 C 59.56 196.12 58.15 196.66 57.04 197.64 C 56.64 198.00 56.09 198.12 55.58 197.95 C 55.07 197.78 54.69 197.35 54.58 196.83 C 53.68 192.54 49.84 189.43 45.45 189.43 C 43.48 189.43 41.59 190.04 39.98 191.21 C 39.31 191.69 38.38 191.55 37.89 190.88 C 35.85 188.07 32.58 186.40 29.13 186.40 C 24.32 186.40 20.04 189.62 18.71 194.25 C 18.50 195.01 17.72 195.47 16.95 195.30 C 13.09 194.45 9.68 197.11 9.16 200.67 Z" fill="#ccccde" fill-rule="nonzero" group-id="1,4,33" node-id="566" stroke="none" target-height="20.281006" target-width="63.913" target-x="6.088" target-y="183.394"></path></g><g node-id="723"><path d="M 99.06 246.36 C 99.06 246.34 99.06 246.31 99.06 246.29 C 99.06 242.70 96.15 239.79 92.56 239.79 C 90.90 239.79 89.38 240.42 88.23 241.45 C 87.34 237.18 83.56 233.97 79.03 233.97 C 76.96 233.97 75.06 234.65 73.51 235.77 C 71.56 233.09 68.41 231.34 64.84 231.34 C 59.94 231.34 55.82 234.63 54.54 239.11 C 54.05 239.01 53.56 238.94 53.04 238.94 C 49.22 238.94 46.12 242.04 46.12 245.87 C 46.12 246.03 46.13 246.20 46.14 246.36 L 99.06 246.36 Z" fill="#e7ede9" fill-rule="nonzero" group-id="1,5" node-id="572" stroke="none" target-height="15.014999" target-width="52.94" target-x="46.119" target-y="231.342"></path><path d="M 99.06 247.86 L 46.14 247.86 C 45.35 247.86 44.70 247.24 44.65 246.45 C 44.63 246.19 44.62 246.03 44.62 245.87 C 44.62 241.07 48.63 237.16 53.52 237.46 C 55.38 232.92 59.86 229.84 64.84 229.84 C 68.26 229.84 71.53 231.30 73.83 233.80 C 75.42 232.93 77.20 232.47 79.03 232.47 C 83.44 232.47 87.37 235.16 89.06 239.10 C 90.14 238.57 91.33 238.29 92.56 238.29 C 96.97 238.29 100.56 241.88 100.56 246.29 C 100.56 246.33 100.56 246.39 100.55 246.43 C 100.55 247.25 99.89 247.86 99.06 247.86 Z M 47.71 244.86 L 97.36 244.86 C 96.75 242.82 94.83 241.29 92.56 241.29 C 91.33 241.29 90.15 241.75 89.23 242.57 C 88.83 242.92 88.27 243.04 87.76 242.87 C 87.26 242.71 86.88 242.28 86.77 241.75 C 86.00 238.12 82.75 235.47 79.03 235.47 C 77.36 235.47 75.75 236.00 74.39 236.99 C 73.72 237.47 72.78 237.32 72.30 236.65 C 70.56 234.27 67.78 232.84 64.84 232.84 C 60.75 232.84 57.10 235.59 55.98 239.53 C 55.76 240.29 54.99 240.75 54.21 240.58 C 53.80 240.49 53.42 240.45 53.04 240.45 C 50.40 240.44 48.19 242.35 47.71 244.86 Z" fill="#ccccde" fill-rule="nonzero" group-id="1,5" node-id="574" stroke="none" target-height="18.013992" target-width="55.94" target-x="44.619" target-y="229.843"></path></g><g node-id="724"><path d="M 148.50 246.36 C 148.50 246.33 148.50 246.30 148.50 246.27 C 148.50 241.61 144.72 237.83 140.05 237.83 C 137.89 237.83 135.93 238.64 134.43 239.98 C 133.27 234.43 128.35 230.26 122.47 230.26 C 119.78 230.26 117.31 231.14 115.30 232.60 C 112.76 229.12 108.67 226.84 104.03 226.84 C 97.66 226.84 92.30 231.11 90.64 236.94 C 90.01 236.80 89.36 236.72 88.69 236.72 C 83.73 236.73 79.70 240.75 79.70 245.72 C 79.70 245.94 79.72 246.15 79.73 246.36 L 148.50 246.36 L 148.50 246.36 Z" fill="#e7ede9" fill-rule="nonzero" group-id="1,6" node-id="579" stroke="none" target-height="19.515" target-width="68.804" target-x="79.696" target-y="226.842"></path><path d="M 148.50 247.86 L 79.73 247.86 C 78.94 247.86 78.28 247.24 78.23 246.45 L 78.22 246.31 C 78.21 246.12 78.20 245.92 78.20 245.72 C 78.20 239.94 82.90 235.23 88.69 235.22 C 89.00 235.22 89.31 235.24 89.62 235.26 C 91.88 229.36 97.63 225.34 104.03 225.34 C 108.46 225.34 112.70 227.29 115.62 230.60 C 117.70 229.40 120.04 228.76 122.47 228.76 C 128.18 228.76 133.26 232.35 135.27 237.55 C 136.73 236.75 138.37 236.32 140.05 236.32 C 145.54 236.32 150.00 240.79 150.00 246.27 C 150.00 246.30 150.00 246.38 149.99 246.41 C 149.99 247.24 149.32 247.86 148.50 247.86 Z M 81.25 244.86 L 146.87 244.86 C 146.22 241.72 143.41 239.33 140.05 239.33 C 138.35 239.33 136.71 239.95 135.43 241.09 C 135.03 241.45 134.47 241.57 133.96 241.40 C 133.46 241.24 133.07 240.81 132.97 240.28 C 131.93 235.35 127.52 231.77 122.47 231.77 C 120.20 231.77 118.03 232.47 116.18 233.82 C 115.51 234.30 114.57 234.15 114.08 233.49 C 111.74 230.26 107.98 228.34 104.03 228.34 C 98.51 228.34 93.60 232.05 92.08 237.35 C 91.86 238.12 91.09 238.58 90.31 238.41 C 89.75 238.28 89.22 238.22 88.69 238.22 C 84.85 238.23 81.68 241.13 81.25 244.86 Z" fill="#ccccde" fill-rule="nonzero" group-id="1,6" node-id="581" stroke="none" target-height="22.515" target-width="71.804" target-x="78.196" target-y="225.342"></path></g></g><g node-id="720"><g node-id="725"><g node-id="752"><path d="M 84.36 100.18 C 84.36 100.18 69.50 113.10 85.02 128.76 C 94.22 138.04 109.63 134.64 109.18 126.81 C 109.07 124.92 111.63 116.78 110.30 117.56 C 104.99 120.67 85.27 115.74 88.82 102.39 C 88.82 102.39 91.10 93.51 84.36 100.18 Z" fill="#ffffff" fill-rule="nonzero" group-id="2,7,34" node-id="590" stroke="none" target-height="44.532997" target-width="42.126" target-x="69.502" target-y="93.512"></path><path d="M 98.41 135.86 C 93.03 135.86 87.76 133.65 83.95 129.81 C 78.77 124.58 76.25 119.05 76.46 113.37 C 76.78 104.88 83.11 99.28 83.38 99.05 C 85.34 97.10 86.82 96.20 88.10 96.20 C 89.08 96.20 89.90 96.73 90.33 97.66 C 90.57 98.19 90.69 98.84 90.69 99.65 C 90.69 100.44 90.69 101.87 90.25 102.85 C 89.48 105.84 89.98 108.51 91.74 110.81 C 94.85 114.85 101.22 116.96 105.90 116.96 C 107.46 116.96 108.79 116.71 109.54 116.27 C 110.30 115.83 111.23 115.99 111.75 116.63 C 112.48 117.55 112.23 118.93 111.38 122.81 C 111.07 124.23 110.64 126.17 110.68 126.72 C 110.79 128.73 110.09 130.60 108.64 132.14 C 106.44 134.47 102.62 135.86 98.41 135.86 Z M 87.69 99.38 C 87.29 99.60 86.57 100.11 85.42 101.25 C 85.29 101.36 79.71 106.33 79.46 113.51 C 79.29 118.32 81.52 123.09 86.08 127.70 C 89.33 130.98 93.82 132.86 98.41 132.86 C 101.81 132.86 104.81 131.82 106.45 130.08 C 107.34 129.14 107.75 128.07 107.68 126.89 C 107.63 125.99 107.94 124.51 108.45 122.17 C 108.61 121.42 108.82 120.46 108.98 119.65 C 108.07 119.85 107.04 119.96 105.91 119.96 C 100.65 119.96 93.24 117.67 89.37 112.64 C 87.02 109.59 86.33 105.91 87.37 102.00 C 87.61 101.09 87.73 100.01 87.69 99.38 Z" fill="#6e6e96" fill-rule="nonzero" group-id="2,7,34" node-id="592" stroke="none" target-height="39.659004" target-width="36.234" target-x="76.247" target-y="96.197"></path></g><g node-id="753"><path d="M 80.47 107.42 C 80.08 112.02 81.59 117.57 87.48 123.52 C 95.20 131.30 107.27 130.16 110.71 124.98 C 110.64 125.45 110.60 125.84 110.61 126.10 C 111.07 133.94 95.66 137.34 86.45 128.06 C 78.46 119.99 78.53 112.65 80.47 107.42 Z" fill="#6e6e96" fill-opacity="0.15" fill-rule="nonzero" group-id="2,7,35" node-id="597" stroke="none" target-height="29.918991" target-width="32.612" target-x="78.457" target-y="107.425"></path></g><g node-id="754"><path d="M 230.26 155.19 C 230.26 175.05 206.14 191.15 176.40 191.15 C 146.65 191.15 122.54 175.05 122.54 155.19 C 122.54 135.33 146.65 119.23 176.40 119.23 C 206.14 119.23 230.26 135.33 230.26 155.19 Z" fill="#ffffff" fill-opacity="0.36" fill-rule="nonzero" group-id="2,7,36" node-id="602" stroke="none" target-height="71.922" target-width="107.71999" target-x="122.538" target-y="119.228"></path></g><g node-id="755"><path d="M 243.01 171.45 C 243.01 141.44 218.19 119.40 177.48 119.40 C 136.77 119.40 103.77 126.99 103.77 157.00 C 103.77 174.43 114.91 192.56 132.22 204.69 C 132.20 204.68 132.17 204.67 132.15 204.65 C 132.15 204.65 141.99 215.88 141.99 238.36 L 141.99 246.92 L 158.37 246.92 C 158.37 246.92 155.66 227.17 167.21 220.92 C 168.46 223.19 169.29 225.94 169.29 229.26 C 169.29 242.64 169.29 242.64 169.29 242.64 L 182.40 242.64 L 182.40 235.15 C 182.40 235.15 181.60 225.12 184.52 218.90 C 187.10 216.37 189.62 216.58 192.05 218.96 C 194.25 221.62 195.96 224.50 195.96 229.26 C 195.96 242.64 195.96 242.64 195.96 242.64 L 209.06 242.64 L 209.06 235.14 C 209.06 235.14 208.50 227.01 210.07 220.21 C 217.02 228.62 214.61 245.15 214.61 245.15 L 227.17 245.15 L 227.17 238.19 C 227.17 215.65 231.50 203.59 233.98 198.52 C 239.85 191.22 243.01 182.12 243.01 171.45 Z" fill="#ffffff" fill-rule="nonzero" group-id="2,7,37" node-id="607" stroke="none" target-height="127.521" target-width="139.241" target-x="103.765" target-y="119.4"></path><path d="M 158.39 248.42 C 158.39 248.42 158.38 248.42 158.37 248.42 L 141.99 248.42 C 141.16 248.42 140.49 247.75 140.49 246.92 L 140.49 238.36 C 140.49 217.90 132.13 207.00 131.12 205.76 C 113.31 193.18 102.26 174.52 102.26 157.00 C 102.26 121.95 145.19 117.90 177.48 117.90 C 217.57 117.90 244.50 139.42 244.50 171.45 C 244.50 182.25 241.39 191.63 235.25 199.32 C 232.76 204.48 228.67 216.29 228.67 238.19 L 228.67 245.15 C 228.67 245.97 228.00 246.65 227.17 246.65 L 214.61 246.65 C 214.18 246.65 213.76 246.46 213.48 246.13 C 213.19 245.80 213.06 245.36 213.13 244.93 C 213.15 244.79 214.85 232.54 210.88 224.29 C 210.20 229.74 210.55 234.98 210.56 235.04 C 210.56 235.07 210.56 235.11 210.56 235.14 L 210.56 242.64 C 210.56 243.47 209.89 244.14 209.06 244.14 L 195.96 244.14 C 195.13 244.14 194.46 243.47 194.46 242.64 L 194.46 229.26 C 194.46 225.11 193.05 222.54 190.94 219.98 C 189.09 218.20 187.57 218.13 185.76 219.79 C 183.18 225.60 183.88 234.93 183.89 235.03 C 183.89 235.07 183.90 235.11 183.90 235.15 L 183.90 242.64 C 183.90 243.47 183.22 244.14 182.40 244.14 L 169.29 244.14 C 168.46 244.14 167.79 243.47 167.79 242.64 L 167.79 229.26 C 167.79 227.05 167.39 224.98 166.59 223.08 C 158.19 229.15 159.61 244.49 159.83 246.50 C 159.87 246.63 159.89 246.77 159.89 246.92 C 159.89 247.75 159.22 248.42 158.39 248.42 Z M 143.49 245.42 L 156.72 245.42 C 156.32 240.30 156.12 225.22 166.49 219.60 C 167.22 219.21 168.12 219.47 168.52 220.20 C 170.03 222.93 170.79 225.97 170.79 229.26 L 170.79 241.14 L 180.90 241.14 L 180.90 235.20 C 180.82 234.25 180.20 224.57 183.16 218.26 C 183.24 218.10 183.34 217.96 183.47 217.83 C 186.52 214.84 190.00 214.86 193.10 217.89 C 193.13 217.93 193.17 217.97 193.20 218.01 C 195.41 220.68 197.46 223.88 197.46 229.26 L 197.46 241.14 L 207.56 241.14 L 207.56 235.19 C 207.51 234.41 207.05 226.60 208.61 219.87 C 208.74 219.31 209.17 218.88 209.72 218.75 C 210.28 218.62 210.86 218.81 211.22 219.25 C 217.23 226.53 216.72 239.07 216.29 243.65 L 225.67 243.65 L 225.67 238.19 C 225.67 215.48 230.03 203.17 232.63 197.86 C 232.68 197.76 232.74 197.67 232.81 197.58 C 238.58 190.41 241.50 181.62 241.50 171.45 C 241.50 141.22 215.78 120.90 177.48 120.90 C 128.21 120.90 105.26 132.37 105.26 157.00 C 105.26 173.64 115.92 191.44 133.08 203.47 C 133.27 203.60 133.42 203.77 133.53 203.96 C 135.13 205.94 143.49 217.31 143.49 238.36 L 143.49 245.42 Z" fill="#6e6e96" fill-rule="nonzero" group-id="2,7,37" node-id="609" stroke="none" target-height="130.522" target-width="142.241" target-x="102.264" target-y="117.9"></path></g><g node-id="756"><path d="M 211.07 146.76 C 211.07 159.25 195.90 169.38 177.19 169.38 C 158.48 169.38 143.31 159.25 143.31 146.76 C 143.31 134.27 158.48 124.14 177.19 124.14 C 195.90 124.14 211.07 134.27 211.07 146.76 Z" fill="#ffffff" fill-opacity="0.36" fill-rule="nonzero" group-id="2,7,38" node-id="614" stroke="none" target-height="45.236" target-width="67.754" target-x="143.312" target-y="124.141"></path></g><path d="M 179.45 118.63 C 179.55 118.97 179.65 119.34 179.75 119.74 C 183.07 133.00 165.32 143.08 165.32 143.08 C 161.45 144.39 155.55 142.10 154.38 141.17 C 137.35 127.62 154.90 127.58 154.90 127.58 C 166.87 130.64 172.22 122.55 175.29 118.33 C 165.48 117.78 154.87 118.50 145.79 122.09 C 120.95 131.94 154.38 168.26 167.46 168.26 C 180.54 168.26 193.43 156.88 195.32 141.42 C 197.69 122.15 214.09 126.94 214.09 126.94 C 214.09 126.94 194.63 120.02 179.45 118.63 Z" fill="#6e6e96" fill-rule="nonzero" group-id="2,7" node-id="617" stroke="none" target-height="50.47699" target-width="93.13501" target-x="120.95" target-y="117.785"></path><path d="M 168.25 159.91 C 168.25 184.97 147.40 205.29 121.68 205.29 C 95.96 205.29 75.10 184.97 75.10 159.91 C 75.10 134.84 95.96 114.52 121.68 114.52 C 147.40 114.52 168.25 134.84 168.25 159.91 Z" fill="#ffffff" fill-rule="nonzero" group-id="2,7,39" node-id="621" stroke="none" target-height="90.77" target-width="93.148" target-x="75.104" target-y="114.52"></path><path d="M 121.68 206.79 C 95.17 206.79 73.60 185.76 73.60 159.91 C 73.60 134.05 95.17 113.02 121.68 113.02 C 148.19 113.02 169.75 134.05 169.75 159.91 C 169.75 185.76 148.19 206.79 121.68 206.79 Z M 121.68 116.02 C 96.82 116.02 76.60 135.71 76.60 159.91 C 76.60 184.10 96.82 203.79 121.68 203.79 C 146.53 203.79 166.75 184.10 166.75 159.91 C 166.75 135.71 146.53 116.02 121.68 116.02 Z" fill="#6e6e96" fill-rule="nonzero" group-id="2,7,39" node-id="623" stroke="none" target-height="93.77" target-width="96.148" target-x="73.604" target-y="113.02"></path><path d="M 110.96 140.75 C 111.31 144.23 109.64 145.92 107.27 146.29 C 104.91 146.65 102.75 145.55 102.40 142.07 C 102.05 138.60 103.69 135.48 106.05 135.12 C 108.42 134.75 110.62 137.28 110.96 140.75 Z" fill="#6e6e96" fill-rule="nonzero" group-id="2,7" node-id="626" stroke="none" target-height="11.895996" target-width="9.257996" target-x="102.053" target-y="134.754"></path><path d="M 133.90 142.05 C 133.75 145.69 131.80 146.06 129.21 145.73 C 126.63 145.40 124.41 144.50 124.55 140.86 C 124.70 137.21 126.92 134.52 129.49 134.85 C 132.08 135.18 134.05 138.40 133.90 142.05 Z" fill="#6e6e96" fill-rule="nonzero" group-id="2,7" node-id="628" stroke="none" target-height="11.539001" target-width="9.641998" target-x="124.407" target-y="134.52"></path><path d="M 139.07 218.44 C 139.07 218.44 176.04 207.43 166.78 175.58 L 135.56 210.86 L 139.07 218.44 Z" fill="#6e6e96" fill-opacity="0.2" fill-rule="nonzero" group-id="2,7,40" node-id="632" stroke="none" target-height="42.866013" target-width="40.479996" target-x="135.556" target-y="175.579"></path><path d="M 73.21 171.03 C 75.83 152.20 98.51 139.68 123.87 143.07 C 149.23 146.46 167.67 164.47 165.05 183.29 C 162.44 202.12 139.76 214.63 114.40 211.25 C 89.03 207.86 70.60 189.85 73.21 171.03 Z" fill="#ffabab" fill-rule="nonzero" group-id="2,7" node-id="635" stroke="none" target-height="74.951996" target-width="97.073" target-x="70.597" target-y="139.683"></path><path d="M 123.63 144.81 C 147.98 148.06 165.76 165.22 163.28 183.06 C 160.81 200.89 138.98 212.76 114.64 209.51 C 90.30 206.25 72.51 189.10 74.99 171.26 C 77.47 153.42 99.29 141.56 123.63 144.81 Z M 71.44 170.79 C 68.69 190.54 87.86 209.47 114.16 212.99 C 140.46 216.50 164.09 203.28 166.83 183.53 C 169.58 163.77 150.42 144.84 124.12 141.33 C 97.82 137.81 74.19 151.03 71.44 170.79 Z" fill="#6e6e96" fill-rule="nonzero" group-id="2,7" node-id="637" stroke="none" target-height="78.684006" target-width="100.885" target-x="68.695" target-y="137.814"></path><path d="M 242.00 161.26 C 243.25 168.40 238.08 165.60 235.67 162.04 C 234.52 160.36 235.26 157.28 235.26 157.28 C 235.26 157.28 237.62 148.90 226.16 144.88 C 219.44 142.53 218.00 135.77 218.91 132.80 C 219.76 130.06 222.97 132.21 222.97 132.21 C 222.97 132.21 238.78 142.95 242.00 161.26 Z" fill="#6e6e96" fill-rule="nonzero" group-id="2,7" node-id="639" stroke="none" target-height="38.341003" target-width="25.25299" target-x="217.996" target-y="130.056"></path><path d="M 96.79 162.40 C 96.53 159.95 98.97 157.69 102.24 157.36 C 105.51 157.03 108.37 158.75 108.63 161.20 C 108.89 163.65 106.45 165.91 103.18 166.24 C 99.91 166.57 97.05 164.85 96.79 162.40 Z" fill="#6e6e96" fill-rule="nonzero" group-id="2,7" node-id="641" stroke="none" target-height="9.541" target-width="12.361" target-x="96.531" target-y="157.029"></path><path d="M 120.38 162.58 C 120.68 160.18 123.57 158.55 126.83 158.94 C 130.10 159.33 132.50 161.59 132.20 163.99 C 131.90 166.39 129.01 168.02 125.75 167.63 C 122.49 167.24 120.08 164.98 120.38 162.58 Z" fill="#6e6e96" fill-rule="nonzero" group-id="2,7" node-id="643" stroke="none" target-height="9.468002" target-width="12.416" target-x="120.084" target-y="158.551"></path><path d="M 191.32 185.94 C 189.25 180.27 196.14 176.09 205.34 172.86 C 214.54 169.63 222.56 168.57 224.64 174.24 C 226.71 179.91 222.21 190.62 213.01 193.85 C 203.81 197.08 193.40 191.61 191.32 185.94 Z" fill="#6e6e96" fill-rule="nonzero" group-id="2,7" node-id="645" stroke="none" target-height="28.509995" target-width="37.45601" target-x="189.254" target-y="168.572"></path><path d="M 175.57 107.52 C 175.57 107.52 190.96 119.81 176.13 136.09 C 167.33 145.75 154.91 142.27 151.90 135.13 C 150.54 132.93 149.03 125.22 150.39 125.94 C 155.83 128.82 175.32 123.09 171.21 109.90 C 171.20 109.90 168.55 101.13 175.57 107.52 Z" fill="#ffffff" fill-rule="nonzero" group-id="2,7,41" node-id="649" stroke="none" target-height="44.622" target-width="41.933" target-x="149.031" target-y="101.126"></path><path d="M 163.63 143.52 C 157.80 143.52 152.57 140.43 150.56 135.82 C 148.69 132.67 148.07 126.45 148.70 125.32 C 149.17 124.47 150.22 124.15 151.10 124.62 C 151.77 124.97 152.87 125.17 154.18 125.17 C 158.79 125.17 165.38 122.87 168.52 118.61 C 170.29 116.20 170.72 113.45 169.80 110.42 C 169.34 109.53 169.21 108.16 169.21 106.93 C 169.21 106.15 169.34 105.53 169.60 105.02 C 170.04 104.17 170.83 103.69 171.78 103.69 C 173.03 103.69 174.51 104.52 176.58 106.41 C 176.78 106.57 183.35 111.91 184.03 120.38 C 184.47 126.04 182.19 131.67 177.24 137.10 C 173.47 141.24 168.63 143.51 163.63 143.52 L 163.63 143.52 Z M 151.41 127.89 C 151.63 129.80 152.40 133.09 153.18 134.34 L 153.28 134.55 C 154.76 138.06 159.02 140.51 163.63 140.52 C 163.63 140.52 163.63 140.52 163.63 140.52 C 167.78 140.51 171.82 138.59 175.02 135.08 C 179.39 130.28 181.41 125.42 181.03 120.62 C 180.47 113.42 174.69 108.73 174.63 108.69 C 173.39 107.56 172.63 107.07 172.21 106.85 C 172.20 107.49 172.37 108.57 172.64 109.44 L 172.64 109.45 C 173.87 113.41 173.28 117.19 170.94 120.39 C 167.17 125.50 159.66 128.17 154.18 128.17 C 153.15 128.17 152.22 128.07 151.41 127.89 Z" fill="#6e6e96" fill-rule="nonzero" group-id="2,7,41" node-id="651" stroke="none" target-height="39.83101" target-width="36.406006" target-x="148.067" target-y="103.685"></path><path d="M 181.22 113.13 C 181.81 117.71 180.54 123.31 174.91 129.49 C 167.53 137.59 155.42 136.94 151.76 131.90 C 151.85 132.37 151.91 132.76 151.90 133.02 C 151.78 140.87 167.33 143.64 176.13 133.98 C 183.77 125.60 183.39 118.27 181.22 113.13 Z" fill="#6e6e96" fill-opacity="0.15" fill-rule="nonzero" group-id="2,7,42" node-id="656" stroke="none" target-height="30.511002" target-width="32.011" target-x="151.76" target-y="113.129"></path><path d="M 245.23 209.56 C 245.09 209.56 244.94 209.54 244.79 209.50 C 244.00 209.25 243.56 208.41 243.80 207.62 C 248.82 191.46 240.64 161.96 240.55 161.67 C 240.33 160.87 240.79 160.04 241.59 159.82 C 242.39 159.59 243.22 160.06 243.44 160.85 C 243.79 162.10 251.95 191.50 246.67 208.51 C 246.47 209.15 245.88 209.56 245.23 209.56 Z" fill="#6e6e96" fill-rule="nonzero" group-id="2,7" node-id="659" stroke="none" target-height="49.970993" target-width="11.621002" target-x="240.329" target-y="159.593"></path><path d="M 141.99 239.20 L 158.29 239.20 L 158.29 246.19 L 141.99 246.19 Z" fill="#b8b8d4" fill-rule="nonzero" group-id="2,7,43" node-id="663" stroke="none" target-height="6.992996" target-width="16.30101" target-x="141.986" target-y="239.2"></path><path d="M 159.79 247.69 L 140.49 247.69 L 140.49 237.70 L 159.79 237.70 L 159.79 247.69 Z M 143.49 244.69 L 156.79 244.69 L 156.79 240.70 L 143.49 240.70 L 143.49 244.69 Z" fill="#6e6e96" fill-rule="nonzero" group-id="2,7,43" node-id="665" stroke="none" target-height="9.992996" target-width="19.30101" target-x="140.486" target-y="237.7"></path><path d="M 169.29 235.41 L 182.39 235.41 L 182.39 242.64 L 169.29 242.64 Z" fill="#b8b8d4" fill-rule="nonzero" group-id="2,7,44" node-id="670" stroke="none" target-height="7.2330017" target-width="13.104996" target-x="169.289" target-y="235.409"></path><path d="M 183.90 244.14 L 167.79 244.14 L 167.79 233.91 L 183.90 233.91 L 183.90 244.14 Z M 170.79 241.14 L 180.89 241.14 L 180.89 236.91 L 170.79 236.91 L 170.79 241.14 Z" fill="#6e6e96" fill-rule="nonzero" group-id="2,7,44" node-id="672" stroke="none" target-height="10.233002" target-width="16.105011" target-x="167.79" target-y="233.91"></path><path d="M 195.95 235.55 L 209.06 235.55 L 209.06 242.64 L 195.95 242.64 Z" fill="#b8b8d4" fill-rule="nonzero" group-id="2,7,45" node-id="677" stroke="none" target-height="7.0920105" target-width="13.104004" target-x="195.954" target-y="235.551"></path><path d="M 210.56 244.14 L 194.46 244.14 L 194.46 234.05 L 210.56 234.05 L 210.56 244.14 Z M 197.45 241.14 L 207.56 241.14 L 207.56 237.05 L 197.45 237.05 L 197.45 241.14 Z" fill="#6e6e96" fill-rule="nonzero" group-id="2,7,45" node-id="679" stroke="none" target-height="10.0920105" target-width="16.104004" target-x="194.455" target-y="234.051"></path><path d="M 214.93 237.70 L 227.17 237.70 L 227.17 245.15 L 214.93 245.15 Z" fill="#b8b8d4" fill-rule="nonzero" group-id="2,7,46" node-id="684" stroke="none" target-height="7.4529877" target-width="12.244995" target-x="214.927" target-y="237.699"></path><path d="M 228.67 246.65 L 213.43 246.65 L 213.43 236.20 L 228.67 236.20 L 228.67 246.65 Z M 216.43 243.65 L 225.67 243.65 L 225.67 239.20 L 216.43 239.20 L 216.43 243.65 Z" fill="#6e6e96" fill-rule="nonzero" group-id="2,7,46" node-id="686" stroke="none" target-height="10.452988" target-width="15.244995" target-x="213.427" target-y="236.199"></path><path d="M 151.56 246.19 C 151.56 246.19 148.96 214.14 162.73 214.14 C 162.73 214.14 169.29 213.41 169.29 230.93 C 169.29 230.93 170.17 222.90 164.96 222.90 C 159.75 222.90 158.29 240.66 158.29 246.19 L 151.56 246.19 Z" fill="#6e6e96" fill-opacity="0.2" fill-rule="nonzero" group-id="2,7,47" node-id="691" stroke="none" target-height="32.778" target-width="21.215012" target-x="148.958" target-y="213.415"></path><path d="M 175.84 242.64 C 175.84 242.64 173.04 217.17 187.43 217.17 C 187.43 217.17 182.40 217.87 182.40 242.64 L 175.84 242.64 Z" fill="#6e6e96" fill-opacity="0.2" fill-rule="nonzero" group-id="2,7,48" node-id="696" stroke="none" target-height="25.46901" target-width="14.391006" target-x="173.041" target-y="217.174"></path><path d="M 202.56 242.64 L 202.56 222.90 C 202.56 222.90 202.59 212.88 210.07 220.21 L 209.06 242.65 L 202.56 242.65 L 202.56 242.64 Z" fill="#6e6e96" fill-opacity="0.2" fill-rule="nonzero" group-id="2,7,49" node-id="701" stroke="none" target-height="29.763992" target-width="7.5160065" target-x="202.555" target-y="212.882"></path><path d="M 221.16 245.15 C 221.16 245.15 217.81 212.32 223.77 203.20 C 229.73 194.08 244.23 176.03 239.77 153.49 C 239.77 153.49 247.98 172.17 240.98 185.34 C 233.98 198.52 227.17 200.64 227.17 237.70 L 227.17 245.15 L 221.16 245.15 Z" fill="#6e6e96" fill-opacity="0.2" fill-rule="nonzero" group-id="2,7,50" node-id="706" stroke="none" target-height="91.66199" target-width="30.162003" target-x="217.814" target-y="153.49"></path><path d="M 123.88 143.07 C 98.51 139.68 75.83 152.20 73.22 171.02 C 70.60 189.85 89.04 207.86 114.40 211.25 C 139.76 214.64 162.44 202.12 165.06 183.29 C 167.68 164.47 149.24 146.46 123.88 143.07 Z M 159.70 177.71 C 157.38 192.99 137.28 203.15 114.81 200.41 C 92.33 197.65 76.00 183.03 78.32 167.75 C 80.64 152.47 100.73 142.31 123.21 145.06 C 145.68 147.81 162.02 162.43 159.70 177.71 Z" fill="#6e6e96" fill-opacity="0.15" fill-rule="nonzero" group-id="2,7,51" node-id="711" stroke="none" target-height="74.95599" target-width="97.077995" target-x="70.598" target-y="139.681"></path></g><path d="M 245.75 248.69 L 118.75 248.69 C 117.92 248.69 117.25 248.02 117.25 247.19 C 117.25 246.37 117.92 245.69 118.75 245.69 L 245.75 245.69 C 246.58 245.69 247.25 246.37 247.25 247.19 C 247.25 248.02 246.58 248.69 245.75 248.69 Z" fill="#6e6e96" fill-opacity="0.15" fill-rule="nonzero" group-id="2,8" node-id="717" stroke="none" target-height="3" target-width="130" target-x="117.25" target-y="245.693"></path></g></svg>