<?xml version="1.0" standalone="no"?><!DOCTYPE svg PUBLIC "-//W3C//DTD SVG 1.1//EN" "http://www.w3.org/Graphics/SVG/1.1/DTD/svg11.dtd"><svg height="230" node-id="1" sillyvg="true" template-height="230" template-width="230" version="1.1" viewBox="0 0 230 230" width="230" xmlns="http://www.w3.org/2000/svg" xmlns:xlink="http://www.w3.org/1999/xlink"><defs node-id="63"><linearGradient gradientUnits="objectBoundingBox" id="linearGradient-1" node-id="5" spreadMethod="pad" x1="-0.043611407" x2="1.1966586" y1="0.5" y2="0.5"><stop offset="0" stop-color="#56c6fb" stop-opacity="0"></stop><stop offset="1" stop-color="#56c6fb"></stop></linearGradient><linearGradient gradientUnits="objectBoundingBox" id="linearGradient-2" node-id="8" spreadMethod="pad" x1="1" x2="-0.05648565" y1="0.4567474" y2="0.5475096"><stop offset="0" stop-color="#aab3f4"></stop><stop offset="1" stop-color="#242c83"></stop></linearGradient><linearGradient gradientUnits="objectBoundingBox" id="linearGradient-3" node-id="11" spreadMethod="pad" x1="-0.091994055" x2="-0.5445592" y1="0.103365846" y2="1.2872674"><stop offset="0" stop-color="#ffc856"></stop><stop offset="1" stop-color="#e23737"></stop></linearGradient><linearGradient gradientUnits="objectBoundingBox" id="linearGradient-4" node-id="14" spreadMethod="pad" x1="1" x2="-0.05648565" y1="0.29336682" y2="0.7269706"><stop offset="0" stop-color="#343d81"></stop><stop offset="1" stop-color="#161c60"></stop></linearGradient><linearGradient gradientUnits="objectBoundingBox" id="linearGradient-5" node-id="17" spreadMethod="pad" x1="0.6815462" x2="0" y1="0.30506584" y2="1"><stop offset="0" stop-color="#7dd2fb"></stop><stop offset="1" stop-color="#3797e2"></stop></linearGradient><linearGradient gradientUnits="objectBoundingBox" id="linearGradient-8" node-id="21" spreadMethod="pad" x1="0.54538655" x2="0.87916523" y1="0.30506584" y2="0.657939"><stop offset="0" stop-color="#3797e2"></stop><stop offset="1" stop-color="#7dd2fb"></stop></linearGradient><linearGradient gradientUnits="objectBoundingBox" id="linearGradient-9" node-id="24" spreadMethod="pad" x1="1" x2="-0.05648565" y1="0" y2="1.0492114"><stop offset="0" stop-color="#343d81"></stop><stop offset="1" stop-color="#161c60"></stop></linearGradient><linearGradient gradientUnits="objectBoundingBox" id="linearGradient-10" node-id="27" spreadMethod="pad" x1="0.6815462" x2="0" y1="0.43371758" y2="0.67001235"><stop offset="0" stop-color="#7dd2fb"></stop><stop offset="1" stop-color="#3797e2"></stop></linearGradient><linearGradient gradientUnits="objectBoundingBox" id="linearGradient-11" node-id="30" spreadMethod="pad" x1="0.85754144" x2="-0.7459665" y1="0.49820617" y2="0.5063066"><stop offset="0" stop-color="#8c94ec"></stop><stop offset="1" stop-color="#0d1677"></stop></linearGradient><clipPath id="mask-7_6" node-id="45"><path d="M 68.78 87.84 L 68.59 89.18 L 68.11 90.34 L 67.33 91.34 L 66.33 92.12 L 65.17 92.60 L 63.83 92.79 L 62.49 92.60 L 61.33 92.12 L 60.33 91.34 L 59.55 90.34 L 59.07 89.18 L 58.88 87.84 L 59.07 86.50 L 59.55 85.34 L 60.33 84.34 L 61.33 83.56 L 62.49 83.08 L 63.83 82.89 L 65.17 83.08 L 66.33 83.56 L 67.33 84.34 L 68.11 85.34 L 68.59 86.50 L 68.78 87.84 Z" fill="#000000" fill-rule="evenodd" node-id="122" stroke="none" target-height="9.900002" target-width="9.899998" target-x="58.88" target-y="82.89"></path></clipPath><clipPath id="mask-7_5" node-id="45"><path d="M 68.78 87.84 L 68.59 89.18 L 68.11 90.34 L 67.33 91.34 L 66.33 92.12 L 65.17 92.60 L 63.83 92.79 L 62.49 92.60 L 61.33 92.12 L 60.33 91.34 L 59.55 90.34 L 59.07 89.18 L 58.88 87.84 L 59.07 86.50 L 59.55 85.34 L 60.33 84.34 L 61.33 83.56 L 62.49 83.08 L 63.83 82.89 L 65.17 83.08 L 66.33 83.56 L 67.33 84.34 L 68.11 85.34 L 68.59 86.50 L 68.78 87.84 Z" fill="#000000" fill-rule="evenodd" node-id="122" stroke="none" target-height="9.900002" target-width="9.899998" target-x="58.88" target-y="82.89"></path></clipPath><clipPath id="mask-7_4" node-id="45"><path d="M 68.78 87.84 L 68.59 89.18 L 68.11 90.34 L 67.33 91.34 L 66.33 92.12 L 65.17 92.60 L 63.83 92.79 L 62.49 92.60 L 61.33 92.12 L 60.33 91.34 L 59.55 90.34 L 59.07 89.18 L 58.88 87.84 L 59.07 86.50 L 59.55 85.34 L 60.33 84.34 L 61.33 83.56 L 62.49 83.08 L 63.83 82.89 L 65.17 83.08 L 66.33 83.56 L 67.33 84.34 L 68.11 85.34 L 68.59 86.50 L 68.78 87.84 Z" fill="#000000" fill-rule="evenodd" node-id="122" stroke="none" target-height="9.900002" target-width="9.899998" target-x="58.88" target-y="82.89"></path></clipPath><clipPath id="mask-7" node-id="45"><path d="M 21.78 15.84 C 21.78 18.57 19.56 20.79 16.83 20.79 C 14.10 20.79 11.88 18.57 11.88 15.84 C 11.88 13.11 14.10 10.89 16.83 10.89 C 19.56 10.89 21.78 13.11 21.78 15.84 Z" fill="#000000" fill-rule="evenodd" node-id="122" stroke="none" target-height="9.900001" target-width="9.900001" target-x="11.88" target-y="10.89"></path></clipPath></defs><g node-id="161"><g node-id="162"><path d="M 160.00 89.00 L 160.00 81.00 L 178.00 81.00 L 178.00 89.00 L 160.00 89.00 Z" fill="none" group-id="1,2" id="矩形备份-3" node-id="36" stroke="#56c6fb" stroke-linecap="butt" stroke-width="2" target-height="8" target-width="18" target-x="160" target-y="81"></path><g node-id="166"><path d="M 179.00 73.00 L 179.00 65.00 L 170.88 65.00 L 170.88 73.00 L 179.00 73.00 Z M 166.82 73.00 L 166.82 65.00 L 111.00 65.00 L 111.00 73.00 L 166.82 73.00 Z" fill="url(#linearGradient-1)" fill-opacity="0.6" fill-rule="evenodd" group-id="1,2,6" id="形状结合" node-id="37" stroke="none" target-height="8" target-width="68" target-x="111" target-y="65"></path></g></g><path d="M 47.00 64.00 L 64.00 64.00 L 64.00 69.00 L 47.00 69.00 Z" fill="url(#linearGradient-2)" fill-rule="evenodd" group-id="1" id="矩形备份-22" node-id="38" stroke="none" target-height="5" target-width="17" target-x="47" target-y="64"></path><path d="M 75.60 83.50 L 148.50 83.50 L 148.50 109.00" fill="none" group-id="1,3" id="路径-71" node-id="40" stroke="#cfd3e5" stroke-linecap="butt" stroke-width="2" target-height="25.5" target-width="72.9" target-x="75.6" target-y="83.5"></path><path d="M 109.50 143.00 L 56.60 143.00 L 56.60 108.00" fill="none" group-id="1,3,7" id="路径-71" node-id="41" stroke="#cfd3e5" stroke-linecap="butt" stroke-width="2" target-height="35" target-width="52.9" target-x="56.6" target-y="108"></path><path d="M 47.00 72.00 L 81.65 72.00 L 81.65 104.67 L 47.00 104.67 Z" fill="url(#linearGradient-3)" fill-rule="evenodd" group-id="1,4" id="矩形" node-id="43" stroke="none" target-height="32.67" target-width="34.65" target-x="47" target-y="72"></path><path d="M 63.94 78.93 L 64.18 78.94 L 66.65 79.44 L 69.10 80.54 L 71.40 82.03 L 73.43 83.69 L 76.52 86.83 L 77.69 88.39 L 76.45 89.77 L 73.26 92.52 L 71.21 93.98 L 68.93 95.29 L 66.56 96.27 L 64.27 96.73 L 63.94 96.75 L 63.83 96.75 L 63.72 96.75 L 63.39 96.73 L 61.10 96.27 L 58.73 95.29 L 56.45 93.98 L 54.40 92.52 L 51.21 89.77 L 49.97 88.39 L 51.14 86.83 L 54.23 83.69 L 56.26 82.03 L 58.56 80.54 L 61.01 79.44 L 63.48 78.94 L 63.72 78.93 L 63.83 78.93 L 63.94 78.93 L 63.94 78.93 Z" fill="url(#linearGradient-4)" fill-rule="evenodd" group-id="1,4" id="形状结合" node-id="44" stroke="none" target-height="17.82" target-width="27.720001" target-x="49.97" target-y="78.93"></path><path d="M 68.78 87.84 L 68.59 89.18 L 68.11 90.34 L 67.33 91.34 L 66.33 92.12 L 65.17 92.60 L 63.83 92.79 L 62.49 92.60 L 61.33 92.12 L 60.33 91.34 L 59.55 90.34 L 59.07 89.18 L 58.88 87.84 L 59.07 86.50 L 59.55 85.34 L 60.33 84.34 L 61.33 83.56 L 62.49 83.08 L 63.83 82.89 L 65.17 83.08 L 66.33 83.56 L 67.33 84.34 L 68.11 85.34 L 68.59 86.50 L 68.78 87.84 Z" fill="url(#linearGradient-5)" fill-rule="evenodd" group-id="1,4,8" node-id="148" stroke="none" target-height="9.900002" target-width="9.899998" target-x="58.88" target-y="82.89"></path><g clip-path="url(#mask-7_4)" group-id="1,4,9" node-id="151"><path d="M 63.83 81.90 L 69.77 81.90 L 69.77 93.78 L 63.83 93.78 Z" fill="url(#linearGradient-8)" fill-rule="evenodd" group-id="1,4,9" id="矩形" node-id="48" stroke="none" target-height="11.879997" target-width="5.9400024" target-x="63.83" target-y="81.9"></path></g><g clip-path="url(#mask-7_5)" group-id="1,4,10" node-id="155"><path d="M 65.81 87.84 L 65.65 88.62 L 65.23 89.24 L 64.61 89.66 L 63.83 89.82 L 63.05 89.66 L 62.43 89.24 L 62.01 88.62 L 61.85 87.84 L 62.01 87.06 L 62.43 86.44 L 63.05 86.02 L 63.83 85.86 L 64.61 86.02 L 65.23 86.44 L 65.65 87.06 L 65.81 87.84 Z" fill="url(#linearGradient-9)" fill-rule="evenodd" group-id="1,4,10" id="椭圆形" node-id="49" stroke="none" target-height="3.959999" target-width="3.959999" target-x="61.85" target-y="85.86"></path></g><g clip-path="url(#mask-7_6)" group-id="1,4,11" node-id="159"><path d="M 65.82 86.85 L 65.53 87.56 L 64.82 87.85 L 64.11 87.56 L 63.82 86.85 L 64.11 86.14 L 64.82 85.85 L 65.53 86.14 L 65.82 86.85 Z" fill="#ffffff" fill-rule="evenodd" group-id="1,4,11" id="椭圆形" node-id="50" stroke="none" target-height="2" target-width="2" target-x="63.82" target-y="85.85"></path></g><path d="M 146.00 81.00 L 150.50 81.00 L 150.50 85.50 L 146.00 85.50 Z" fill="#cfd3e5" fill-rule="evenodd" group-id="1" id="矩形备份-46" node-id="51" stroke="none" target-height="4.5" target-width="4.5" target-x="146" target-y="81"></path><path d="M 54.00 140.00 L 60.00 140.00 L 60.00 146.00 L 54.00 146.00 Z" fill="#cfd3e5" fill-rule="evenodd" group-id="1" id="矩形备份-47" node-id="52" stroke="none" target-height="6" target-width="6" target-x="54" target-y="140"></path><path d="M 74.96 164.99 L 74.96 96.85 L 173.13 96.85 L 173.13 164.99 L 74.96 164.99 Z" fill="#ffffff" fill-rule="evenodd" group-id="1,5,12,14" id="路径备份" node-id="56" stroke="#6771de" stroke-linecap="butt" stroke-width="1.707552" target-height="68.13887" target-width="98.17255" target-x="74.9583" target-y="96.853775"></path><path d="M 78.88 101.99 L 169.21 101.99 L 169.21 154.67 L 78.88 154.67 Z" fill="url(#linearGradient-10)" fill-rule="evenodd" group-id="1,5,13" id="矩形" node-id="58" stroke="none" target-height="52.67655" target-width="90.336266" target-x="78.87644" target-y="101.988655"></path><path d="M 92.83 133.84 L 114.06 133.84 L 114.06 119.45 L 132.49 140.55 L 132.49 131.44 L 156.12 131.44" fill="none" group-id="1,5,13" id="路径-50" node-id="59" stroke="#ffffff" stroke-linecap="butt" stroke-width="2" target-height="21.095894" target-width="63.28768" target-x="92.82871" target-y="119.45403"></path><path d="M 78.88 101.03 L 169.21 101.03 L 169.21 109.36 L 78.88 109.36 Z" fill="#8a92e6" fill-rule="evenodd" group-id="1,5,13" id="矩形" node-id="60" stroke="none" target-height="8.32711" target-width="90.336266" target-x="78.87644" target-y="101.029755"></path><path d="M 65.92 157.66 L 65.92 165.85 L 182.17 165.85 L 182.17 157.66 Z" fill="url(#linearGradient-11)" fill-rule="evenodd" group-id="1,5" id="路径备份" node-id="61" stroke="none" target-height="8.18689" target-width="116.25388" target-x="65.917625" target-y="157.65953"></path></g></svg>