<?xml version="1.0" standalone="no"?><!DOCTYPE svg PUBLIC "-//W3C//DTD SVG 1.1//EN" "http://www.w3.org/Graphics/SVG/1.1/DTD/svg11.dtd"><svg height="1024" node-id="1" sillyvg="true" template-height="1024" template-width="1024" version="1.1" viewBox="0 0 1024 1024" width="1024" xmlns="http://www.w3.org/2000/svg" xmlns:xlink="http://www.w3.org/1999/xlink"><defs node-id="138"><linearGradient gradientUnits="userSpaceOnUse" id="SVGID_1_" node-id="28" spreadMethod="pad" x1="274.2402" x2="660.2949" y1="907.7054" y2="907.7054"><stop offset="0" stop-color="#d7d8d5"></stop><stop offset="1" stop-color="#ededee"></stop></linearGradient><linearGradient gradientUnits="userSpaceOnUse" id="SVGID_2_" node-id="33" spreadMethod="pad" x1="274.3804" x2="660.2948" y1="835.9286" y2="835.9286"><stop offset="0" stop-color="#f1edec"></stop><stop offset="1" stop-color="#ececea"></stop></linearGradient><linearGradient gradientUnits="userSpaceOnUse" id="SVGID_3_" node-id="39" spreadMethod="pad" x1="358.8425" x2="560.0639" y1="728.5707" y2="728.5707"><stop offset="0" stop-color="#d7d8d5"></stop><stop offset="1" stop-color="#f6f6f9"></stop></linearGradient><linearGradient gradientUnits="userSpaceOnUse" id="SVGID_4_" node-id="44" spreadMethod="pad" x1="483.1969" x2="483.1969" y1="903.1616" y2="579.7872"><stop offset="0" stop-color="#fbfbfb"></stop><stop offset="1" stop-color="#fbfbfb"></stop></linearGradient><linearGradient gradientUnits="userSpaceOnUse" id="SVGID_5_" node-id="50" spreadMethod="pad" x1="100.4721" x2="730.6459" y1="455.2898" y2="455.2898"><stop offset="0" stop-color="#d7d8d5"></stop><stop offset="1" stop-color="#f6f6f9"></stop></linearGradient><linearGradient gradientUnits="userSpaceOnUse" id="SVGID_6_" node-id="55" spreadMethod="pad" x1="143.221" x2="743.3876" y1="469.0479" y2="469.0479"><stop offset="0" stop-color="#f6f6f9"></stop><stop offset="1" stop-color="#d7d8d5"></stop></linearGradient><linearGradient gradientUnits="userSpaceOnUse" id="SVGID_7_" node-id="59" spreadMethod="pad" x1="183.5973" x2="720.1375" y1="470.2876" y2="470.2876"><stop offset="0" stop-color="#ffa21e"></stop><stop offset="1" stop-color="#ffcb27"></stop></linearGradient><linearGradient gradientUnits="userSpaceOnUse" id="SVGID_8_" node-id="68" spreadMethod="pad" x1="477.015" x2="614.3312" y1="451.5034" y2="451.5034"><stop offset="0" stop-color="#ffa21e"></stop><stop offset="1" stop-color="#ffcb27"></stop></linearGradient><linearGradient gradientUnits="userSpaceOnUse" id="SVGID_9_" node-id="73" spreadMethod="pad" x1="433.0705" x2="509.7473" y1="513.5502" y2="513.5502"><stop offset="0" stop-color="#ffa21e"></stop><stop offset="1" stop-color="#ffcb27"></stop></linearGradient><linearGradient gradientUnits="userSpaceOnUse" id="SVGID_10_" node-id="77" spreadMethod="pad" x1="398.4437" x2="465.8028" y1="525.3211" y2="525.3211"><stop offset="0" stop-color="#ffa21e"></stop><stop offset="1" stop-color="#ffcb27"></stop></linearGradient><linearGradient gradientUnits="userSpaceOnUse" id="SVGID_11_" node-id="82" spreadMethod="pad" x1="431.1735" x2="620.3607" y1="490.8593" y2="490.8593"><stop offset="0" stop-color="#ffa21e"></stop><stop offset="1" stop-color="#ffcb27"></stop></linearGradient><linearGradient gradientUnits="userSpaceOnUse" id="SVGID_12_" node-id="88" spreadMethod="pad" x1="574.4984" x2="949.2875" y1="770.5128" y2="770.5128"><stop offset="0" stop-color="#d7d8d5"></stop><stop offset="1" stop-color="#f6f6f9"></stop></linearGradient><linearGradient gradientUnits="userSpaceOnUse" id="SVGID_13_" node-id="93" spreadMethod="pad" x1="574.6024" x2="949.2877" y1="711.5033" y2="711.5033"><stop offset="0" stop-color="#f6f6f9"></stop><stop offset="1" stop-color="#d7d8d5"></stop></linearGradient><linearGradient gradientUnits="userSpaceOnUse" id="SVGID_14_" node-id="98" spreadMethod="pad" x1="597.4859" x2="887.4891" y1="698.5469" y2="698.5469"><stop offset="0" stop-color="#ffcb27"></stop><stop offset="1" stop-color="#ffa21e"></stop></linearGradient><linearGradient gradientUnits="userSpaceOnUse" id="SVGID_18_" node-id="122" spreadMethod="pad" x1="832.4816" x2="882.429" y1="773.3343" y2="773.3343"><stop offset="0" stop-color="#d7d8d5"></stop><stop offset="1" stop-color="#f6f6f9"></stop></linearGradient></defs><path d="M 875.80 815.60 L 880.90 815.90" fill="#e5ad65" fill-rule="nonzero" node-id="231" stroke="none" target-height="0.30004883" target-width="5.1000366" target-x="875.8" target-y="815.6"></path><g node-id="355"><g node-id="364"><path d="M 660.30 818.20 C 660.30 819.00 660.20 819.70 659.90 820.50 C 659.90 820.60 659.90 820.70 659.80 820.70 C 659.60 821.40 659.20 822.10 658.70 822.80 C 658.60 822.90 658.50 823.00 658.50 823.20 C 658.00 823.90 657.40 824.50 656.70 825.10 C 656.30 825.50 655.70 825.90 655.20 826.20 C 654.70 826.50 654.30 826.90 653.80 827.20 L 453.00 944.00 C 451.70 944.80 450.20 945.40 448.60 945.90 C 448.10 946.10 447.50 946.30 446.90 946.40 C 446.20 946.60 445.40 946.80 444.70 947.00 C 443.80 947.20 442.90 947.40 442.00 947.50 C 441.80 947.50 441.60 947.60 441.30 947.60 C 440.10 947.70 438.80 947.80 437.60 947.80 C 437.40 947.80 437.20 947.80 437.00 947.80 C 435.80 947.80 434.50 947.70 433.30 947.60 C 433.10 947.60 432.90 947.60 432.70 947.50 C 431.50 947.40 430.30 947.10 429.10 946.90 C 428.90 946.90 428.70 946.80 428.50 946.70 C 427.40 946.40 426.40 946.10 425.40 945.80 C 425.20 945.70 425.00 945.70 424.80 945.60 C 423.60 945.10 422.50 944.60 421.40 944.00 L 280.80 862.80 C 278.60 861.50 277.00 860.10 275.90 858.50 C 274.80 856.90 274.30 855.30 274.30 853.60 L 274.20 903.00 C 274.20 906.30 276.40 909.60 280.80 912.20 L 421.40 993.40 C 422.40 994.00 423.50 994.50 424.60 994.90 C 424.70 994.90 424.70 994.90 424.80 995.00 C 425.00 995.10 425.20 995.10 425.40 995.20 C 426.00 995.40 426.70 995.70 427.40 995.90 C 427.80 996.00 428.10 996.10 428.50 996.20 C 428.70 996.30 428.90 996.30 429.10 996.40 C 429.30 996.40 429.50 996.50 429.70 996.50 C 430.40 996.70 431.20 996.80 431.90 996.90 C 432.20 996.90 432.40 997.00 432.70 997.00 C 432.90 997.00 433.10 997.00 433.20 997.10 C 433.50 997.10 433.70 997.20 434.00 997.20 C 434.70 997.30 435.50 997.30 436.20 997.30 C 436.40 997.30 436.70 997.30 436.90 997.30 C 437.10 997.30 437.30 997.30 437.50 997.30 C 437.80 997.30 438.20 997.30 438.50 997.30 C 439.30 997.30 440.20 997.20 441.00 997.10 C 441.10 997.10 441.20 997.10 441.30 997.10 C 441.50 997.10 441.70 997.00 441.90 997.00 C 442.50 996.90 443.20 996.80 443.80 996.70 C 444.10 996.70 444.30 996.60 444.60 996.50 C 445.40 996.30 446.10 996.20 446.80 995.90 C 447.20 995.80 447.60 995.70 448.00 995.60 C 448.20 995.50 448.30 995.40 448.50 995.40 C 450.10 994.90 451.50 994.30 452.90 993.50 L 653.80 876.80 C 653.90 876.70 654.00 876.70 654.10 876.60 C 654.50 876.30 654.80 876.00 655.20 875.80 C 655.70 875.40 656.30 875.10 656.80 874.60 C 656.80 874.60 656.90 874.50 656.90 874.50 C 657.40 874.00 657.90 873.50 658.30 873.00 C 658.40 872.90 658.50 872.80 658.50 872.60 C 658.60 872.50 658.70 872.40 658.70 872.20 C 658.80 872.00 659.00 871.80 659.10 871.60 C 659.30 871.20 659.50 870.80 659.70 870.30 C 659.70 870.20 659.70 870.20 659.80 870.10 C 659.80 870.00 659.80 869.90 659.90 869.90 C 660.00 869.60 660.10 869.40 660.10 869.10 C 660.20 868.70 660.20 868.20 660.20 867.80 C 660.20 867.70 660.20 867.70 660.20 867.60 L 660.20 867.60 L 660.30 818.20 Z" fill="url(#SVGID_1_)" fill-rule="nonzero" group-id="1,10" node-id="237" stroke="none" target-height="179.09998" target-width="386.09998" target-x="274.2" target-y="818.2"></path><g node-id="375"><path d="M 653.70 809.00 C 662.40 814.00 662.50 822.20 653.80 827.20 L 453.00 944.00 C 444.30 949.00 430.20 949.00 421.50 944.00 L 280.90 862.80 C 272.20 857.80 272.20 849.60 280.80 844.60 L 481.70 727.90 C 490.40 722.90 504.40 722.90 513.10 727.90 L 653.70 809.00 Z" fill="url(#SVGID_2_)" fill-rule="nonzero" group-id="1,10,21" node-id="241" stroke="none" target-height="226.09998" target-width="390.3" target-x="272.2" target-y="722.9"></path></g></g></g><g node-id="356"><g node-id="365"><path d="M 553.10 580.40 C 553.90 580.10 554.70 580.00 555.40 579.90 C 555.50 579.90 555.50 579.90 555.60 579.90 C 556.40 579.80 557.20 579.90 557.90 580.00 C 557.90 580.00 558.00 580.00 558.00 580.00 C 558.70 580.20 559.40 580.40 560.00 580.80 L 517.30 556.00 C 517.30 556.00 517.20 556.00 517.20 556.00 C 517.00 555.90 516.70 555.80 516.50 555.70 C 516.30 555.60 516.00 555.50 515.70 555.40 C 515.50 555.40 515.40 555.30 515.20 555.30 C 515.20 555.30 515.10 555.30 515.10 555.30 C 515.00 555.30 515.00 555.30 514.90 555.30 C 514.60 555.30 514.30 555.20 514.00 555.20 C 513.70 555.20 513.40 555.20 513.10 555.20 C 513.00 555.20 512.90 555.20 512.80 555.20 C 512.70 555.20 512.70 555.20 512.60 555.20 C 512.40 555.20 512.20 555.20 512.00 555.30 C 511.60 555.40 511.20 555.50 510.80 555.60 C 510.60 555.60 510.40 555.70 510.30 555.80 C 510.10 555.90 510.00 555.90 509.80 556.00 C 509.60 556.10 509.40 556.10 509.20 556.20 C 508.60 556.50 507.90 556.80 507.20 557.20 L 373.00 634.40 C 372.10 634.90 371.20 635.60 370.30 636.20 C 370.00 636.40 369.80 636.70 369.50 636.90 C 369.10 637.30 368.70 637.60 368.30 638.00 C 368.10 638.20 367.90 638.40 367.70 638.60 C 367.50 638.80 367.40 638.90 367.20 639.10 C 367.00 639.30 366.80 639.50 366.70 639.70 C 366.30 640.20 365.90 640.60 365.50 641.10 C 365.40 641.30 365.20 641.50 365.10 641.60 C 365.00 641.70 365.00 641.80 364.90 641.90 C 364.80 642.10 364.70 642.20 364.50 642.40 C 364.20 642.80 363.90 643.20 363.70 643.60 C 363.40 644.00 363.20 644.40 363.00 644.80 C 363.00 644.80 363.00 644.90 362.90 644.90 C 362.90 644.90 362.90 645.00 362.80 645.00 C 362.60 645.30 362.40 645.70 362.20 646.00 C 362.00 646.40 361.80 646.80 361.60 647.20 C 361.40 647.60 361.30 647.90 361.10 648.30 C 361.10 648.30 361.10 648.30 361.10 648.40 C 361.10 648.40 361.10 648.50 361.10 648.50 C 360.90 648.90 360.70 649.40 360.60 649.80 C 360.40 650.20 360.30 650.70 360.10 651.10 C 360.00 651.30 360.00 651.50 359.90 651.70 C 359.90 651.80 359.80 651.90 359.80 652.00 C 359.70 652.20 359.70 652.30 359.60 652.50 C 359.40 653.00 359.30 653.60 359.20 654.10 C 359.10 654.40 359.10 654.70 359.00 655.00 C 359.00 655.20 358.90 655.30 358.90 655.50 C 358.90 655.70 358.80 655.80 358.80 656.00 C 358.70 656.90 358.60 657.80 358.60 658.70 L 359.20 868.10 C 359.20 872.50 360.80 875.70 363.30 877.20 L 406.00 902.00 C 403.50 900.50 401.90 897.40 401.90 892.90 L 401.30 683.50 C 401.30 682.40 401.40 681.40 401.60 680.30 C 401.60 680.10 401.70 680.00 401.70 679.80 C 401.90 678.80 402.10 677.70 402.40 676.70 C 402.40 676.60 402.50 676.50 402.50 676.40 C 402.80 675.30 403.30 674.20 403.70 673.10 C 403.70 673.10 403.70 673.00 403.70 673.00 C 404.20 671.90 404.80 670.80 405.40 669.70 C 405.40 669.70 405.40 669.60 405.50 669.60 C 406.10 668.60 406.80 667.50 407.50 666.60 C 407.60 666.50 407.60 666.40 407.70 666.30 C 408.40 665.40 409.00 664.60 409.80 663.80 C 410.00 663.60 410.10 663.50 410.30 663.30 C 410.90 662.70 411.50 662.20 412.10 661.60 C 412.40 661.40 412.60 661.10 412.90 660.90 C 413.80 660.20 414.60 659.60 415.50 659.10 L 550.00 581.70 C 550.90 581.20 551.80 580.80 552.60 580.50 C 552.80 580.50 552.90 580.40 553.10 580.40 Z" fill="url(#SVGID_3_)" fill-rule="nonzero" group-id="2,11" node-id="250" stroke="none" target-height="346.8" target-width="201.4" target-x="358.6" target-y="555.2"></path><g node-id="376"><path d="M 550.00 581.70 C 557.80 577.20 564.20 580.90 564.20 589.80 L 564.80 799.20 C 564.80 808.20 558.50 819.20 550.70 823.70 L 416.40 901.20 C 408.60 905.70 402.20 902.00 402.20 893.10 L 401.60 683.70 C 401.60 674.70 407.90 663.70 415.70 659.20 L 550.00 581.70 Z" fill="url(#SVGID_4_)" fill-rule="nonzero" group-id="2,11,22" node-id="254" stroke="none" target-height="328.5" target-width="163.19998" target-x="401.6" target-y="577.2"></path></g></g></g><g node-id="357"><g node-id="366"><path d="M 709.00 60.70 C 709.90 60.30 710.90 60.00 711.80 59.70 C 712.40 59.50 713.00 59.30 713.60 59.20 C 714.10 59.10 714.70 59.00 715.20 58.90 C 715.90 58.80 716.60 58.70 717.30 58.60 C 717.70 58.60 718.10 58.50 718.50 58.50 C 719.40 58.40 720.20 58.40 721.10 58.50 C 721.30 58.50 721.50 58.50 721.60 58.50 C 722.60 58.60 723.60 58.70 724.50 58.90 C 724.70 58.90 725.00 59.00 725.20 59.10 C 725.90 59.30 726.70 59.50 727.40 59.70 C 727.60 59.80 727.90 59.90 728.10 59.90 C 729.00 60.30 729.90 60.70 730.70 61.10 L 688.00 36.30 C 687.90 36.30 687.90 36.20 687.80 36.20 C 687.20 35.80 686.50 35.50 685.80 35.20 C 685.70 35.10 685.50 35.10 685.40 35.10 C 685.20 35.00 685.00 34.90 684.70 34.90 C 684.40 34.80 684.00 34.60 683.70 34.50 C 683.30 34.40 683.00 34.30 682.60 34.20 C 682.40 34.10 682.10 34.10 681.90 34.00 C 681.80 34.00 681.60 33.90 681.50 33.90 C 680.70 33.80 679.90 33.70 679.10 33.60 C 679.10 33.60 679.00 33.60 679.00 33.60 C 678.80 33.60 678.70 33.60 678.50 33.60 C 677.80 33.60 677.20 33.60 676.50 33.60 C 676.30 33.60 676.10 33.60 675.90 33.70 C 675.50 33.70 675.10 33.80 674.70 33.80 C 674.30 33.80 673.90 33.90 673.50 33.90 C 673.20 33.90 672.90 34.00 672.50 34.10 C 672.00 34.20 671.40 34.30 670.90 34.40 C 670.60 34.50 670.30 34.50 670.00 34.60 C 669.70 34.70 669.40 34.80 669.10 34.90 C 668.20 35.20 667.30 35.50 666.30 35.90 C 666.00 36.00 665.60 36.10 665.30 36.20 C 665.10 36.30 664.90 36.40 664.70 36.50 C 663.10 37.20 661.40 38.00 659.80 38.90 L 139.90 339.10 C 138.60 339.80 137.40 340.60 136.10 341.50 C 135.70 341.80 135.30 342.10 134.90 342.40 C 134.10 343.00 133.20 343.60 132.40 344.30 C 131.90 344.70 131.50 345.00 131.10 345.40 C 130.30 346.00 129.60 346.70 128.90 347.40 C 128.50 347.80 128.00 348.20 127.60 348.60 C 127.30 348.90 127.10 349.10 126.80 349.40 C 126.50 349.70 126.20 350.00 125.90 350.30 C 125.00 351.20 124.10 352.10 123.30 353.10 C 123.00 353.40 122.70 353.70 122.50 354.00 C 122.30 354.30 122.00 354.60 121.80 354.80 C 121.30 355.40 120.80 356.10 120.20 356.70 C 119.90 357.10 119.50 357.50 119.20 357.90 C 118.90 358.30 118.70 358.60 118.40 359.00 C 118.00 359.50 117.70 360.00 117.30 360.50 C 117.10 360.80 116.80 361.20 116.60 361.50 C 116.20 362.10 115.80 362.70 115.40 363.30 C 115.10 363.70 114.90 364.10 114.60 364.50 C 114.50 364.70 114.40 364.80 114.30 365.00 C 113.60 366.10 112.90 367.20 112.20 368.40 C 112.20 368.50 112.10 368.50 112.10 368.60 C 112.00 368.80 111.90 369.00 111.70 369.30 C 111.20 370.10 110.80 370.90 110.30 371.80 C 110.10 372.20 109.90 372.50 109.70 372.90 C 109.50 373.30 109.30 373.70 109.10 374.10 C 108.90 374.50 108.70 374.80 108.60 375.20 C 108.20 376.10 107.80 377.00 107.40 377.90 C 107.30 378.10 107.20 378.30 107.10 378.50 C 107.10 378.60 107.00 378.60 107.00 378.70 C 106.50 379.90 106.00 381.10 105.50 382.30 C 105.40 382.50 105.40 382.70 105.30 382.90 C 105.10 383.30 105.00 383.80 104.80 384.20 C 104.60 384.80 104.30 385.40 104.10 386.10 C 104.00 386.50 103.80 387.00 103.70 387.40 C 103.50 387.90 103.40 388.50 103.20 389.00 C 103.10 389.40 103.00 389.70 102.90 390.10 C 102.70 390.70 102.60 391.30 102.50 391.80 C 102.30 392.50 102.20 393.10 102.00 393.80 C 101.90 394.00 101.90 394.30 101.80 394.60 C 101.70 395.10 101.60 395.60 101.60 396.00 C 101.40 397.00 101.20 398.10 101.10 399.10 C 101.10 399.40 101.00 399.70 100.90 400.00 C 100.90 400.30 100.90 400.50 100.80 400.80 C 100.50 403.10 100.30 405.40 100.40 407.60 L 101.60 827.20 C 101.60 839.60 106.10 848.40 113.20 852.50 L 156.00 877.00 C 148.90 872.90 144.50 864.10 144.40 851.70 L 143.20 432.10 C 143.20 429.90 143.40 427.60 143.60 425.30 C 143.70 424.70 143.70 424.20 143.80 423.60 C 143.90 422.60 144.10 421.50 144.30 420.50 C 144.40 419.80 144.60 419.00 144.70 418.30 C 144.90 417.60 145.00 417.00 145.20 416.30 C 145.40 415.40 145.70 414.40 146.00 413.50 C 146.20 413.00 146.30 412.40 146.50 411.90 C 146.80 410.80 147.20 409.80 147.60 408.70 C 147.80 408.30 147.90 407.80 148.10 407.40 C 148.60 405.90 149.20 404.50 149.90 403.10 C 150.00 402.90 150.10 402.70 150.20 402.50 C 150.80 401.30 151.30 400.00 152.00 398.80 C 152.20 398.40 152.40 398.00 152.60 397.60 C 153.20 396.40 153.90 395.20 154.50 394.10 C 154.60 393.90 154.80 393.60 154.90 393.40 C 155.70 392.00 156.50 390.70 157.40 389.30 C 157.70 388.90 157.90 388.50 158.20 388.10 C 158.80 387.20 159.50 386.20 160.10 385.30 C 160.50 384.80 160.80 384.30 161.20 383.80 C 161.80 383.00 162.40 382.30 163.00 381.50 C 163.50 380.90 164.00 380.20 164.60 379.60 C 165.10 379.00 165.60 378.50 166.10 377.90 C 167.00 376.90 167.80 376.00 168.70 375.10 C 169.20 374.50 169.80 374.00 170.40 373.40 C 170.80 373.00 171.30 372.60 171.70 372.20 C 172.40 371.50 173.20 370.90 173.90 370.20 C 174.30 369.80 174.80 369.40 175.20 369.10 C 176.00 368.50 176.80 367.80 177.70 367.20 C 178.10 366.90 178.50 366.60 178.90 366.30 C 180.10 365.50 181.40 364.60 182.60 363.90 L 702.50 63.80 C 704.20 62.80 705.80 62.10 707.40 61.40 C 708.00 61.10 708.50 60.90 709.00 60.70 Z" fill="url(#SVGID_5_)" fill-rule="nonzero" group-id="3,12" node-id="263" stroke="none" target-height="843.4" target-width="630.4" target-x="100.3" target-y="33.6"></path><g node-id="377"><path d="M 702.50 63.80 C 724.20 51.20 742.10 61.40 742.10 86.40 L 743.30 506.00 C 743.40 531.00 725.60 561.70 703.90 574.20 L 184.10 874.30 C 162.40 886.90 144.50 876.70 144.50 851.70 L 143.30 432.10 C 143.20 407.20 161.00 376.50 182.70 363.90 L 702.50 63.80 Z" fill="url(#SVGID_6_)" fill-rule="nonzero" group-id="3,12,23" node-id="267" stroke="none" target-height="835.7" target-width="600.2" target-x="143.2" target-y="51.2"></path></g></g></g><path d="M 719.20 145.00 C 719.10 124.70 704.60 116.40 687.00 126.60 L 639.60 153.90 C 639.30 154.00 639.10 154.20 638.80 154.30 L 215.60 398.60 C 197.90 408.80 183.50 433.80 183.60 454.10 L 184.60 795.50 C 184.70 815.80 199.20 824.10 216.80 813.90 L 264.20 786.60 C 264.50 786.50 264.70 786.30 265.00 786.20 L 688.10 541.90 C 705.80 531.70 720.20 506.70 720.10 486.40 L 719.20 145.00 Z" fill="url(#SVGID_7_)" fill-rule="nonzero" node-id="272" stroke="none" target-height="707.69995" target-width="536.7" target-x="183.5" target-y="116.4"></path><path d="M 360.20 556.60 C 360.30 554.60 360.40 552.60 360.50 550.50 C 360.50 550.10 360.60 549.80 360.60 549.40 C 360.70 547.50 360.90 545.60 361.10 543.70 C 361.10 543.40 361.20 543.10 361.20 542.80 C 361.40 540.70 361.60 538.70 361.90 536.60 C 362.00 536.00 362.00 535.50 362.10 534.90 C 362.20 534.00 362.40 533.10 362.50 532.10 C 362.60 531.40 362.70 530.80 362.80 530.10 C 362.90 529.20 363.10 528.20 363.30 527.30 C 363.40 526.70 363.50 526.00 363.60 525.40 C 363.80 524.40 364.00 523.40 364.10 522.40 C 364.20 521.80 364.30 521.20 364.40 520.60 C 364.60 519.40 364.90 518.30 365.10 517.10 C 365.20 516.70 365.30 516.20 365.40 515.80 C 365.50 515.40 365.60 514.90 365.70 514.50 C 365.90 513.50 366.10 512.50 366.40 511.50 C 366.50 510.90 366.70 510.40 366.80 509.80 C 367.00 508.90 367.20 508.10 367.40 507.20 C 367.50 506.60 367.70 506.00 367.90 505.40 C 368.10 504.60 368.30 503.70 368.50 502.90 C 368.70 502.30 368.80 501.70 369.00 501.00 C 369.20 500.30 369.40 499.60 369.60 498.90 C 370.20 496.80 370.80 494.70 371.50 492.50 C 371.60 492.10 371.70 491.80 371.80 491.40 C 372.40 489.40 373.10 487.40 373.70 485.40 C 373.80 485.10 373.90 484.90 374.00 484.60 C 374.70 482.60 375.40 480.60 376.10 478.70 C 376.30 478.20 376.40 477.80 376.60 477.30 C 377.20 475.50 377.90 473.70 378.60 471.90 C 378.70 471.70 378.80 471.40 378.90 471.20 C 379.60 469.30 380.40 467.40 381.20 465.50 C 381.40 465.00 381.60 464.50 381.80 464.10 C 382.50 462.50 383.10 460.90 383.80 459.40 C 384.00 459.00 384.10 458.60 384.30 458.20 C 385.10 456.40 385.90 454.50 386.80 452.70 C 387.00 452.30 387.20 451.90 387.40 451.40 C 388.10 449.90 388.80 448.40 389.50 447.00 C 389.70 446.50 390.00 446.00 390.20 445.50 C 391.10 443.70 392.00 441.90 392.90 440.10 C 393.00 439.90 393.10 439.70 393.20 439.50 C 394.00 437.90 394.90 436.20 395.70 434.60 C 396.00 434.10 396.20 433.60 396.50 433.10 C 397.30 431.50 398.20 430.00 399.10 428.40 C 399.20 428.10 399.40 427.90 399.50 427.60 C 400.50 425.80 401.50 424.00 402.50 422.30 C 402.80 421.90 403.00 421.40 403.30 421.00 C 404.20 419.50 405.10 418.00 406.00 416.50 C 406.20 416.10 406.40 415.80 406.70 415.40 C 407.80 413.60 408.90 411.90 410.00 410.10 C 410.20 409.70 410.50 409.30 410.70 409.00 C 411.70 407.40 412.80 405.80 413.90 404.20 C 414.10 403.90 414.30 403.50 414.60 403.20 C 415.80 401.40 417.00 399.60 418.30 397.80 C 418.60 397.40 418.80 397.00 419.10 396.70 C 420.50 394.70 421.90 392.80 423.30 390.80 C 423.30 390.80 423.40 390.70 423.40 390.70 C 424.80 388.80 426.20 386.90 427.70 385.00 C 428.00 384.70 428.20 384.30 428.50 384.00 C 430.20 381.90 431.80 379.80 433.50 377.70 C 433.80 377.40 434.00 377.10 434.30 376.80 C 436.00 374.70 437.70 372.70 439.50 370.70 C 439.80 370.30 440.20 369.90 440.50 369.50 C 441.30 368.60 442.10 367.70 442.90 366.80 C 443.30 366.40 443.70 365.90 444.10 365.50 C 445.20 364.30 446.30 363.10 447.40 362.00 C 447.50 361.90 447.60 361.80 447.70 361.60 C 448.90 360.30 450.10 359.10 451.30 357.80 C 451.70 357.40 452.00 357.00 452.40 356.70 C 453.30 355.80 454.10 355.00 455.00 354.10 C 455.60 353.50 456.20 352.90 456.80 352.40 C 457.20 352.00 457.60 351.70 457.90 351.30 C 458.60 350.60 459.40 349.90 460.10 349.20 C 460.40 348.90 460.70 348.60 461.00 348.30 C 462.00 347.30 463.10 346.40 464.10 345.40 C 464.30 345.20 464.40 345.10 464.60 344.90 C 465.50 344.10 466.40 343.30 467.30 342.50 C 467.70 342.20 468.00 341.90 468.40 341.50 C 469.10 340.90 469.80 340.30 470.50 339.70 C 470.90 339.40 471.30 339.00 471.70 338.70 C 472.40 338.10 473.10 337.60 473.70 337.00 C 474.10 336.70 474.50 336.30 475.00 336.00 C 475.70 335.40 476.40 334.90 477.10 334.30 C 477.50 334.00 477.90 333.70 478.30 333.40 C 479.20 332.70 480.00 332.10 480.90 331.40 C 481.10 331.20 481.40 331.00 481.60 330.90 C 482.70 330.10 483.80 329.30 484.90 328.40 C 485.20 328.20 485.50 328.00 485.80 327.70 C 486.60 327.10 487.40 326.50 488.20 326.00 C 488.60 325.70 489.00 325.40 489.40 325.20 C 490.10 324.70 490.80 324.20 491.60 323.70 C 492.00 323.40 492.50 323.10 492.90 322.80 C 493.60 322.30 494.30 321.90 495.10 321.40 C 495.50 321.10 496.00 320.90 496.40 320.60 C 497.20 320.10 498.00 319.60 498.70 319.10 C 499.10 318.90 499.40 318.60 499.80 318.40 C 500.90 317.70 502.10 317.00 503.20 316.40 C 504.70 315.50 506.20 314.70 507.80 313.90 C 508.20 313.70 508.70 313.40 509.10 313.20 C 510.30 312.60 511.40 312.00 512.60 311.40 C 513.00 311.20 513.40 311.00 513.80 310.80 C 515.30 310.10 516.80 309.40 518.30 308.70 C 518.50 308.60 518.80 308.50 519.00 308.40 C 520.20 307.80 521.50 307.30 522.70 306.80 C 523.20 306.60 523.60 306.40 524.10 306.20 C 525.00 305.80 525.80 305.50 526.70 305.20 C 527.20 305.00 527.70 304.80 528.10 304.60 C 529.10 304.20 530.00 303.90 530.90 303.60 C 531.30 303.50 531.60 303.30 532.00 303.20 C 533.30 302.80 534.60 302.30 535.90 301.90 C 536.10 301.80 536.40 301.80 536.60 301.70 C 537.60 301.40 538.70 301.10 539.70 300.80 C 540.30 300.60 540.90 300.50 541.60 300.30 C 542.10 300.20 542.50 300.10 543.00 299.90 C 543.70 299.70 544.40 299.60 545.00 299.40 C 545.40 299.30 545.80 299.20 546.30 299.10 C 547.10 298.90 547.80 298.80 548.60 298.60 C 548.90 298.50 549.30 298.50 549.60 298.40 C 550.70 298.20 551.80 298.00 552.80 297.90 C 552.90 297.90 552.90 297.90 553.00 297.90 C 553.90 297.80 554.90 297.60 555.80 297.50 C 556.10 297.50 556.50 297.40 556.80 297.40 C 557.50 297.30 558.20 297.20 558.90 297.20 C 559.30 297.20 559.60 297.10 560.00 297.10 C 560.70 297.00 561.30 297.00 562.00 297.00 C 562.30 297.00 562.70 297.00 563.00 296.90 C 563.90 296.90 564.70 296.80 565.60 296.80 C 565.70 296.80 565.80 296.80 565.90 296.80 C 566.80 296.80 567.80 296.80 568.70 296.80 C 569.00 296.80 569.20 296.80 569.50 296.80 C 570.20 296.80 570.90 296.80 571.50 296.90 C 571.80 296.90 572.10 296.90 572.40 296.90 C 572.80 296.90 573.20 297.00 573.60 297.00 C 574.70 297.10 575.70 297.20 576.80 297.30 C 577.10 297.30 577.40 297.40 577.70 297.40 C 579.00 297.60 580.20 297.70 581.50 297.90 C 581.80 297.90 582.00 298.00 582.30 298.10 C 583.30 298.30 584.30 298.50 585.20 298.70 C 585.50 298.80 585.90 298.80 586.20 298.90 C 587.40 299.20 588.60 299.50 589.70 299.80 C 589.80 299.80 589.90 299.90 590.00 299.90 C 591.10 300.20 592.10 300.60 593.20 300.90 C 593.50 301.00 593.80 301.10 594.20 301.20 C 595.10 301.50 596.00 301.90 596.90 302.30 C 597.10 302.40 597.30 302.50 597.50 302.60 C 598.60 303.10 599.70 303.60 600.70 304.10 C 601.00 304.20 601.20 304.40 601.50 304.50 C 602.30 304.90 603.20 305.40 604.00 305.80 C 604.40 306.00 604.90 306.30 605.30 306.50 L 567.20 284.40 C 566.90 284.20 566.70 284.10 566.40 284.00 C 566.20 283.90 566.10 283.80 565.90 283.70 C 565.10 283.20 564.20 282.80 563.40 282.40 C 563.10 282.30 562.90 282.10 562.60 282.00 C 561.50 281.50 560.50 281.00 559.40 280.50 C 559.30 280.50 559.30 280.50 559.20 280.40 C 559.00 280.30 558.90 280.30 558.70 280.20 C 557.80 279.80 556.90 279.50 556.00 279.10 C 555.70 279.00 555.40 278.90 555.00 278.80 C 554.00 278.40 552.90 278.10 551.80 277.80 C 551.70 277.80 551.60 277.70 551.60 277.70 C 551.60 277.70 551.60 277.70 551.50 277.70 C 550.30 277.40 549.20 277.10 548.00 276.80 C 547.70 276.70 547.40 276.70 547.00 276.60 C 546.00 276.40 545.10 276.20 544.10 276.00 C 543.90 276.00 543.70 275.90 543.50 275.90 C 543.40 275.90 543.30 275.90 543.30 275.90 C 542.10 275.70 540.80 275.50 539.50 275.40 C 539.20 275.40 538.90 275.30 538.60 275.30 C 537.50 275.20 536.50 275.10 535.40 275.00 C 535.20 275.00 535.00 275.00 534.80 274.90 C 534.60 274.90 534.40 274.90 534.20 274.90 C 533.90 274.90 533.60 274.90 533.30 274.90 C 532.60 274.90 531.90 274.80 531.30 274.80 C 531.00 274.80 530.80 274.80 530.50 274.80 C 529.60 274.80 528.60 274.80 527.70 274.80 C 527.60 274.80 527.50 274.80 527.40 274.80 C 526.70 274.80 526.00 274.80 525.30 274.90 C 525.10 274.90 525.00 274.90 524.80 274.90 C 524.50 274.90 524.10 274.90 523.80 275.00 C 523.10 275.00 522.50 275.10 521.80 275.10 C 521.40 275.10 521.10 275.20 520.70 275.20 C 520.00 275.30 519.30 275.30 518.60 275.40 C 518.30 275.40 517.90 275.50 517.60 275.50 C 516.70 275.60 515.70 275.70 514.80 275.90 C 514.70 275.90 514.70 275.90 514.60 275.90 C 514.60 275.90 514.60 275.90 514.60 275.90 C 513.50 276.10 512.50 276.20 511.40 276.40 C 511.10 276.50 510.70 276.50 510.40 276.60 C 509.60 276.70 508.90 276.90 508.10 277.10 C 507.70 277.20 507.30 277.30 506.80 277.40 C 506.10 277.60 505.50 277.70 504.80 277.90 C 504.30 278.00 503.90 278.10 503.40 278.30 C 502.90 278.40 502.40 278.50 501.90 278.70 C 501.80 278.70 501.60 278.80 501.50 278.80 C 500.50 279.10 499.40 279.40 498.40 279.70 C 498.20 279.80 497.90 279.80 497.70 279.90 C 496.40 280.30 495.10 280.70 493.80 281.20 C 493.40 281.30 493.10 281.50 492.70 281.60 C 491.80 281.90 490.80 282.30 489.90 282.60 C 489.40 282.80 488.90 283.00 488.50 283.20 C 487.60 283.50 486.80 283.90 485.90 284.20 C 485.60 284.30 485.40 284.40 485.10 284.50 C 484.90 284.60 484.70 284.70 484.50 284.80 C 483.30 285.30 482.00 285.90 480.80 286.40 C 480.60 286.50 480.30 286.60 480.10 286.70 C 478.60 287.40 477.10 288.10 475.60 288.80 C 475.20 289.00 474.80 289.20 474.40 289.40 C 473.20 290.00 472.10 290.60 470.90 291.20 C 470.50 291.40 470.00 291.70 469.60 291.90 C 468.10 292.70 466.60 293.60 465.00 294.40 C 463.80 295.10 462.70 295.70 461.60 296.40 C 461.20 296.60 460.90 296.90 460.50 297.10 C 459.70 297.60 458.90 298.10 458.20 298.60 C 457.80 298.90 457.30 299.10 456.90 299.40 C 456.20 299.90 455.50 300.30 454.70 300.80 C 454.30 301.10 453.80 301.40 453.40 301.70 C 452.70 302.20 452.00 302.70 451.20 303.20 C 450.80 303.50 450.40 303.80 450.00 304.10 C 449.20 304.70 448.40 305.20 447.60 305.80 C 447.30 306.00 447.00 306.20 446.70 306.50 C 445.60 307.30 444.50 308.10 443.40 309.00 C 443.20 309.20 442.90 309.40 442.70 309.50 C 441.80 310.20 441.00 310.80 440.10 311.50 C 439.70 311.80 439.30 312.10 438.90 312.40 C 438.20 313.00 437.50 313.50 436.80 314.10 C 436.40 314.40 436.00 314.80 435.60 315.10 C 434.90 315.70 434.20 316.20 433.50 316.80 C 433.10 317.10 432.70 317.50 432.30 317.80 C 431.60 318.40 430.90 319.00 430.20 319.60 C 429.80 319.90 429.50 320.20 429.10 320.60 C 428.20 321.40 427.30 322.20 426.40 323.00 C 426.20 323.20 426.10 323.30 425.90 323.50 C 424.80 324.50 423.80 325.40 422.80 326.40 C 422.50 326.70 422.20 327.00 421.90 327.30 C 421.20 328.00 420.40 328.70 419.70 329.40 C 419.30 329.80 418.90 330.10 418.60 330.50 C 418.20 330.90 417.80 331.30 417.40 331.70 C 417.20 331.90 417.00 332.10 416.80 332.30 C 415.90 333.20 415.10 334.00 414.20 334.90 C 413.80 335.30 413.50 335.70 413.10 336.00 C 411.90 337.30 410.70 338.50 409.50 339.80 C 409.40 339.90 409.30 340.00 409.20 340.20 C 408.10 341.40 407.00 342.50 406.00 343.70 C 405.60 344.10 405.20 344.60 404.80 345.00 C 404.00 345.90 403.20 346.80 402.40 347.70 C 402.20 347.90 402.00 348.20 401.80 348.40 C 401.70 348.60 401.50 348.70 401.40 348.90 C 399.70 350.90 397.90 352.90 396.20 355.00 C 395.90 355.30 395.70 355.60 395.40 355.90 C 393.70 358.00 392.00 360.10 390.40 362.20 C 390.30 362.30 390.20 362.40 390.10 362.50 C 389.90 362.70 389.80 362.90 389.60 363.10 C 388.20 365.00 386.70 366.90 385.30 368.80 C 385.30 368.80 385.20 368.90 385.20 368.90 C 383.80 370.80 382.40 372.80 381.00 374.80 C 380.80 375.00 380.70 375.20 380.50 375.40 C 380.40 375.60 380.30 375.70 380.20 375.90 C 379.00 377.70 377.70 379.50 376.50 381.30 C 376.30 381.60 376.10 382.00 375.80 382.30 C 374.70 383.90 373.70 385.50 372.70 387.10 C 372.50 387.30 372.40 387.60 372.20 387.80 C 372.10 387.90 372.00 388.10 371.90 388.20 C 370.80 390.00 369.70 391.70 368.60 393.50 C 368.40 393.90 368.20 394.20 367.90 394.60 C 367.00 396.10 366.10 397.60 365.20 399.10 C 365.00 399.40 364.90 399.60 364.70 399.90 C 364.60 400.10 364.50 400.30 364.40 400.40 C 363.40 402.20 362.40 403.90 361.40 405.70 C 361.30 406.00 361.10 406.20 361.00 406.50 C 360.10 408.10 359.30 409.60 358.40 411.20 C 358.30 411.50 358.10 411.70 358.00 412.00 C 357.90 412.20 357.70 412.50 357.60 412.70 C 356.70 414.30 355.90 415.90 355.10 417.60 C 355.00 417.80 354.90 418.00 354.80 418.20 C 353.90 420.00 353.00 421.80 352.10 423.60 C 352.00 423.80 351.90 424.00 351.80 424.20 C 351.70 424.50 351.50 424.80 351.40 425.10 C 350.70 426.60 350.00 428.10 349.30 429.50 C 349.10 429.90 348.90 430.30 348.70 430.80 C 347.90 432.60 347.00 434.50 346.20 436.30 C 346.20 436.40 346.10 436.50 346.00 436.60 C 345.90 436.90 345.80 437.20 345.70 437.40 C 345.00 439.00 344.40 440.50 343.70 442.10 C 343.50 442.60 343.30 443.10 343.10 443.60 C 342.30 445.50 341.60 447.40 340.80 449.30 C 340.80 449.40 340.80 449.40 340.70 449.50 C 340.60 449.70 340.60 449.90 340.50 450.10 C 339.80 451.90 339.20 453.70 338.50 455.50 C 338.30 456.00 338.20 456.40 338.00 456.90 C 337.30 458.90 336.60 460.90 335.90 462.80 C 335.90 462.90 335.80 463.00 335.80 463.00 C 335.70 463.20 335.70 463.40 335.60 463.60 C 334.90 465.60 334.30 467.60 333.70 469.60 C 333.60 470.00 333.50 470.30 333.40 470.70 C 332.80 472.80 332.10 474.90 331.60 477.00 C 331.50 477.20 331.50 477.40 331.40 477.60 C 331.30 478.10 331.10 478.60 331.00 479.10 C 330.80 479.70 330.70 480.30 330.50 481.00 C 330.30 481.80 330.10 482.70 329.80 483.50 C 329.60 484.10 329.50 484.70 329.30 485.30 C 329.10 486.20 328.90 487.10 328.70 487.90 C 328.60 488.50 328.40 489.00 328.30 489.60 C 328.10 490.60 327.90 491.60 327.60 492.60 C 327.50 493.00 327.40 493.50 327.30 493.90 C 327.30 494.00 327.30 494.00 327.30 494.10 C 327.20 494.50 327.10 494.90 327.10 495.20 C 326.90 496.40 326.60 497.50 326.40 498.70 C 326.30 499.30 326.20 499.90 326.10 500.50 C 325.90 501.50 325.70 502.50 325.60 503.50 C 325.50 504.10 325.40 504.80 325.30 505.40 C 325.10 506.30 325.00 507.30 324.80 508.20 C 324.70 508.90 324.60 509.50 324.50 510.20 C 324.40 511.10 324.20 512.00 324.10 513.00 C 324.10 513.40 324.00 513.70 324.00 514.10 C 324.00 514.30 324.00 514.50 323.90 514.70 C 323.60 516.80 323.40 518.80 323.20 520.90 C 323.20 521.20 323.10 521.50 323.10 521.80 C 322.90 523.70 322.80 525.60 322.60 527.50 C 322.60 527.90 322.50 528.20 322.50 528.60 C 322.40 530.60 322.30 532.70 322.20 534.70 C 322.20 535.10 322.20 535.60 322.20 536.00 C 322.10 538.10 322.10 540.10 322.10 542.20 C 322.20 587.40 338.20 619.20 363.90 634.10 L 402.00 656.20 C 376.30 641.20 360.30 609.50 360.20 564.30 C 360.20 562.20 360.20 560.20 360.30 558.10 C 360.20 557.50 360.20 557.10 360.20 556.60 Z" fill="#fbfbfb" fill-rule="nonzero" group-id="4" node-id="276" stroke="none" target-height="381.40002" target-width="283.19998" target-x="322.1" target-y="274.8"></path><path d="M 502.90 316.60 C 582.10 270.90 646.40 307.60 646.70 398.50 C 647.00 489.40 583.00 600.40 503.80 646.10 C 424.60 691.80 360.30 655.10 360.00 564.20 C 359.70 473.30 423.80 362.30 502.90 316.60 Z" fill="#fbfbfb" fill-rule="nonzero" group-id="4,13" node-id="280" stroke="none" target-height="420.9" target-width="287.3" target-x="359.7" target-y="270.9"></path><path d="M 586.80 402.30 C 587.10 401.80 587.50 401.20 587.80 400.70 C 587.80 400.70 587.80 400.70 587.80 400.70 C 588.20 400.10 588.60 399.60 589.00 399.10 C 589.10 399.00 589.20 398.90 589.20 398.80 C 589.70 398.20 590.10 397.60 590.60 397.10 C 590.70 397.00 590.80 396.90 590.90 396.70 C 591.10 396.50 591.30 396.20 591.60 396.00 C 591.70 395.90 591.80 395.70 592.00 395.60 C 592.30 395.30 592.50 395.10 592.80 394.80 C 592.90 394.70 593.00 394.60 593.10 394.50 C 593.60 394.00 594.10 393.50 594.60 393.10 C 594.70 393.00 594.80 393.00 594.80 392.90 C 595.30 392.50 595.80 392.10 596.30 391.70 C 596.40 391.60 596.50 391.60 596.60 391.50 C 597.10 391.10 597.60 390.70 598.10 390.40 C 598.20 390.40 598.20 390.30 598.30 390.30 C 598.80 389.90 599.40 389.60 599.90 389.30 C 600.30 389.10 600.80 388.80 601.20 388.60 C 601.30 388.50 601.40 388.50 601.50 388.40 C 601.90 388.20 602.30 388.00 602.70 387.90 C 602.70 387.90 602.80 387.90 602.80 387.90 C 603.20 387.70 603.50 387.60 603.90 387.50 C 604.00 387.50 604.10 387.40 604.20 387.40 C 604.50 387.30 604.70 387.20 605.00 387.20 C 605.20 387.20 605.30 387.10 605.50 387.10 C 605.60 387.10 605.80 387.00 605.90 387.00 C 606.10 387.00 606.20 386.90 606.40 386.90 C 606.50 386.90 606.70 386.80 606.80 386.80 C 606.90 386.80 607.00 386.80 607.10 386.80 C 607.60 386.70 608.00 386.70 608.50 386.70 L 608.50 386.70 C 608.90 386.70 609.30 386.70 609.70 386.70 C 609.80 386.70 609.90 386.70 610.00 386.70 C 610.30 386.70 610.60 386.80 610.90 386.80 C 611.00 386.80 611.00 386.80 611.10 386.80 C 611.40 386.90 611.80 386.90 612.10 387.00 C 612.20 387.00 612.30 387.10 612.40 387.10 C 612.60 387.20 612.90 387.30 613.10 387.40 C 613.20 387.40 613.30 387.50 613.40 387.50 C 613.70 387.60 614.00 387.80 614.20 387.90 C 614.20 387.90 614.30 387.90 614.30 388.00 L 581.60 369.00 C 581.60 369.00 581.60 369.00 581.60 369.00 C 581.60 369.00 581.50 369.00 581.50 369.00 C 581.20 368.90 581.00 368.70 580.70 368.60 C 580.70 368.60 580.60 368.60 580.60 368.50 C 580.50 368.50 580.50 368.50 580.40 368.40 C 580.20 368.30 579.90 368.20 579.70 368.10 C 579.60 368.10 579.60 368.10 579.50 368.00 C 579.50 368.00 579.40 368.00 579.40 368.00 C 579.10 367.90 578.70 367.80 578.40 367.80 C 578.40 367.80 578.40 367.80 578.40 367.80 C 578.40 367.80 578.30 367.80 578.30 367.80 C 578.00 367.70 577.70 367.70 577.40 367.70 C 577.30 367.70 577.30 367.70 577.20 367.70 C 577.20 367.70 577.10 367.70 577.10 367.70 C 576.70 367.70 576.30 367.70 575.90 367.70 L 575.90 367.70 L 575.90 367.70 C 575.50 367.70 575.00 367.80 574.50 367.80 C 574.40 367.80 574.40 367.80 574.30 367.80 C 574.20 367.80 574.20 367.80 574.10 367.80 C 574.00 367.80 573.80 367.90 573.70 367.90 C 573.50 367.90 573.40 368.00 573.20 368.00 C 573.10 368.00 572.90 368.10 572.80 368.10 C 572.70 368.10 572.60 368.10 572.50 368.20 C 572.40 368.20 572.40 368.20 572.30 368.30 C 572.00 368.40 571.80 368.50 571.50 368.50 C 571.40 368.50 571.30 368.60 571.20 368.60 C 570.80 368.70 570.50 368.90 570.10 369.00 C 570.10 369.00 570.10 369.00 570.10 369.00 C 570.10 369.00 570.00 369.00 570.00 369.00 C 569.60 369.20 569.20 369.30 568.80 369.50 C 568.70 369.60 568.60 369.60 568.50 369.70 C 568.10 369.90 567.60 370.10 567.20 370.40 C 566.70 370.70 566.10 371.00 565.60 371.40 C 565.50 371.40 565.50 371.50 565.40 371.50 C 564.90 371.80 564.40 372.20 563.90 372.60 C 563.80 372.70 563.70 372.70 563.60 372.80 C 563.10 373.20 562.60 373.60 562.10 374.00 C 562.00 374.10 561.90 374.10 561.90 374.20 C 561.40 374.60 560.90 375.10 560.40 375.60 C 560.40 375.60 560.40 375.60 560.40 375.60 C 560.30 375.70 560.30 375.70 560.20 375.80 C 559.90 376.10 559.70 376.30 559.40 376.60 C 559.30 376.70 559.20 376.90 559.00 377.00 C 558.80 377.20 558.60 377.50 558.30 377.70 C 558.20 377.80 558.20 377.80 558.10 377.90 C 558.10 377.90 558.00 378.00 558.00 378.00 C 557.50 378.60 557.10 379.10 556.60 379.70 C 556.60 379.70 556.50 379.80 556.50 379.80 C 556.50 379.90 556.40 379.90 556.40 380.00 C 556.00 380.50 555.60 381.10 555.20 381.60 C 555.20 381.60 555.20 381.60 555.20 381.60 L 555.20 381.60 C 554.80 382.10 554.50 382.60 554.20 383.20 C 554.20 383.30 554.10 383.30 554.10 383.40 C 554.10 383.50 554.00 383.60 554.00 383.60 C 553.70 384.00 553.50 384.40 553.20 384.90 C 553.20 385.00 553.10 385.10 553.10 385.10 C 553.10 385.20 553.00 385.20 553.00 385.30 L 477.00 516.60 L 509.70 535.60 L 585.40 404.50 C 585.50 404.30 585.60 404.20 585.70 404.10 C 586.00 403.70 586.20 403.30 586.50 402.80 C 586.60 402.60 586.70 402.50 586.80 402.30 Z" fill="url(#SVGID_8_)" fill-rule="nonzero" group-id="5" node-id="286" stroke="none" target-height="167.89996" target-width="137.29999" target-x="477" target-y="367.7"></path><path d="M 465.80 510.50 L 433.10 491.50 L 477.00 516.60 L 509.70 535.60 Z" fill="url(#SVGID_9_)" fill-rule="nonzero" group-id="5,14" node-id="290" stroke="none" target-height="44.099976" target-width="76.600006" target-x="433.1" target-y="491.5"></path><path d="M 433.10 491.50 C 433.10 491.50 433.00 491.50 433.10 491.50 C 433.00 491.50 433.00 491.50 433.00 491.40 C 432.70 491.30 432.50 491.10 432.20 491.00 C 432.20 491.00 432.10 491.00 432.10 490.90 C 432.00 490.90 432.00 490.90 431.90 490.80 C 431.70 490.70 431.40 490.60 431.20 490.60 C 431.10 490.60 431.10 490.60 431.00 490.50 C 431.00 490.50 430.90 490.50 430.90 490.50 C 430.60 490.40 430.30 490.30 429.90 490.30 C 429.90 490.30 429.90 490.30 429.90 490.30 C 429.90 490.30 429.80 490.30 429.80 490.30 C 429.50 490.30 429.20 490.20 428.90 490.20 C 428.80 490.20 428.80 490.20 428.80 490.20 C 428.80 490.20 428.70 490.20 428.70 490.20 C 428.30 490.20 427.90 490.20 427.60 490.20 L 427.60 490.20 L 427.60 490.20 C 427.20 490.20 426.70 490.30 426.30 490.30 C 426.20 490.30 426.20 490.30 426.20 490.30 C 426.10 490.30 426.10 490.30 426.00 490.30 C 425.90 490.30 425.70 490.30 425.60 490.40 C 425.40 490.40 425.30 490.50 425.10 490.50 C 425.00 490.50 424.80 490.60 424.70 490.60 C 424.60 490.60 424.50 490.60 424.40 490.70 C 424.30 490.70 424.30 490.70 424.20 490.80 C 423.90 490.90 423.70 490.90 423.40 491.00 C 423.30 491.00 423.20 491.10 423.10 491.10 C 422.70 491.20 422.40 491.40 422.00 491.50 C 422.00 491.50 422.00 491.50 422.00 491.50 C 422.00 491.50 422.00 491.50 421.90 491.50 C 421.50 491.70 421.10 491.80 420.70 492.00 C 420.60 492.10 420.50 492.10 420.40 492.20 C 420.00 492.40 419.60 492.60 419.20 492.90 C 418.60 493.20 418.00 493.60 417.40 494.00 C 417.20 494.10 417.00 494.30 416.80 494.40 C 416.40 494.70 416.00 495.00 415.60 495.30 C 415.40 495.50 415.10 495.70 414.90 495.90 C 414.50 496.20 414.20 496.50 413.80 496.80 C 413.60 497.00 413.30 497.20 413.10 497.50 C 412.90 497.70 412.70 497.90 412.50 498.10 C 412.30 498.30 412.10 498.50 411.90 498.70 C 411.80 498.80 411.70 498.90 411.60 499.00 C 411.20 499.40 410.80 499.90 410.30 500.40 C 410.20 500.50 410.20 500.60 410.10 500.60 C 409.90 500.90 409.60 501.20 409.40 501.40 C 409.20 501.70 408.90 501.90 408.70 502.20 C 408.60 502.30 408.50 502.50 408.40 502.60 C 408.20 502.80 408.10 503.10 407.90 503.30 C 407.70 503.50 407.60 503.80 407.40 504.00 C 407.20 504.30 407.00 504.50 406.90 504.80 C 406.80 505.00 406.60 505.20 406.50 505.40 C 406.40 505.50 406.40 505.60 406.30 505.70 C 405.90 506.30 405.60 506.80 405.30 507.40 C 405.30 507.50 405.20 507.50 405.20 507.60 L 404.30 509.20 C 404.00 509.70 403.80 510.10 403.50 510.60 C 403.50 510.60 403.50 510.70 403.40 510.70 C 403.40 510.80 403.30 510.90 403.30 511.00 C 403.10 511.40 402.90 511.80 402.70 512.20 C 402.70 512.30 402.60 512.40 402.60 512.40 C 402.60 512.50 402.50 512.50 402.50 512.60 C 402.30 513.00 402.10 513.40 401.90 513.90 C 401.90 514.00 401.80 514.00 401.80 514.10 C 401.80 514.10 401.80 514.10 401.80 514.20 C 401.60 514.70 401.40 515.20 401.20 515.80 C 401.20 515.80 401.20 515.90 401.10 515.90 C 401.10 516.00 401.00 516.10 401.00 516.10 C 400.80 516.60 400.70 517.00 400.50 517.50 C 400.50 517.60 400.40 517.70 400.40 517.70 C 400.40 517.70 400.40 517.80 400.40 517.80 C 400.20 518.40 400.00 519.00 399.90 519.50 C 399.90 519.60 399.90 519.60 399.90 519.70 C 399.90 519.80 399.90 519.80 399.90 519.90 C 399.70 520.60 399.60 521.20 399.40 521.90 C 399.40 521.90 399.40 522.00 399.40 522.00 C 399.40 522.10 399.40 522.20 399.30 522.30 C 399.20 522.60 399.20 522.90 399.10 523.10 C 399.10 523.30 399.00 523.40 399.00 523.60 C 399.00 523.90 398.90 524.10 398.90 524.40 C 398.90 524.50 398.90 524.60 398.90 524.70 C 398.90 524.80 398.90 524.80 398.90 524.90 C 398.90 525.20 398.80 525.50 398.80 525.80 C 398.80 525.90 398.80 526.10 398.80 526.20 C 398.80 526.60 398.70 527.00 398.70 527.50 C 398.70 527.50 398.70 527.60 398.70 527.60 C 398.70 528.00 398.70 528.30 398.70 528.70 C 398.70 528.80 398.70 529.00 398.70 529.10 C 398.70 529.40 398.70 529.60 398.70 529.90 C 398.70 530.00 398.70 530.20 398.70 530.30 C 398.70 530.60 398.70 530.80 398.80 531.10 C 398.80 531.20 398.80 531.40 398.80 531.50 C 398.80 531.80 398.90 532.10 398.90 532.30 C 398.90 532.40 398.90 532.50 398.90 532.60 C 399.00 533.00 399.00 533.30 399.10 533.70 C 399.10 533.80 399.10 533.90 399.20 533.90 C 399.30 534.20 399.30 534.40 399.40 534.70 C 399.40 534.80 399.50 534.90 399.50 535.00 C 399.60 535.20 399.70 535.40 399.70 535.60 C 399.70 535.70 399.80 535.80 399.80 535.90 C 399.90 536.10 400.00 536.30 400.10 536.50 C 400.10 536.60 400.20 536.70 400.20 536.80 C 400.30 537.00 400.50 537.30 400.60 537.50 C 400.60 537.50 400.70 537.60 400.70 537.70 C 400.90 538.00 401.00 538.20 401.20 538.50 C 401.30 538.60 401.30 538.60 401.40 538.70 C 401.50 538.90 401.70 539.10 401.80 539.20 C 401.90 539.30 402.00 539.40 402.00 539.40 C 402.10 539.50 402.30 539.70 402.40 539.80 C 402.50 539.90 402.60 540.00 402.70 540.00 C 402.90 540.10 403.00 540.30 403.20 540.40 C 403.30 540.50 403.40 540.50 403.40 540.60 C 403.70 540.80 403.90 540.90 404.20 541.10 L 436.90 560.10 C 436.60 559.90 436.40 559.80 436.10 559.60 C 436.00 559.50 435.90 559.50 435.90 559.40 C 435.70 559.30 435.60 559.10 435.40 559.00 C 435.30 558.90 435.20 558.90 435.10 558.80 C 435.00 558.70 434.80 558.50 434.70 558.40 C 434.60 558.30 434.50 558.20 434.50 558.20 C 434.40 558.00 434.20 557.90 434.10 557.70 C 434.00 557.60 434.00 557.60 433.90 557.50 C 433.70 557.20 433.50 557.00 433.40 556.70 C 433.40 556.70 433.30 556.60 433.30 556.50 C 433.20 556.30 433.00 556.00 432.90 555.80 C 432.80 555.70 432.80 555.60 432.80 555.50 C 432.70 555.30 432.60 555.10 432.50 554.90 C 432.50 554.80 432.40 554.70 432.40 554.60 C 432.30 554.40 432.20 554.20 432.20 554.00 C 432.20 553.90 432.10 553.80 432.10 553.70 C 432.00 553.40 431.90 553.20 431.90 552.90 C 431.90 552.80 431.90 552.70 431.80 552.70 C 431.70 552.40 431.60 552.00 431.60 551.60 C 431.60 551.50 431.60 551.40 431.60 551.30 C 431.60 551.00 431.50 550.80 431.50 550.50 C 431.50 550.40 431.50 550.20 431.50 550.10 C 431.50 549.80 431.40 549.60 431.40 549.30 C 431.40 549.20 431.40 549.00 431.40 548.90 C 431.40 548.60 431.40 548.40 431.40 548.10 C 431.40 548.00 431.40 547.80 431.40 547.70 C 431.40 547.30 431.40 547.00 431.40 546.60 C 431.40 546.60 431.40 546.50 431.40 546.50 C 431.40 546.10 431.40 545.70 431.50 545.20 C 431.50 545.10 431.50 544.90 431.50 544.80 C 431.50 544.50 431.60 544.20 431.60 543.90 C 431.60 543.70 431.60 543.60 431.70 543.40 C 431.70 543.10 431.80 542.90 431.80 542.60 C 431.80 542.40 431.90 542.30 431.90 542.10 C 431.90 541.80 432.00 541.50 432.10 541.30 C 432.10 541.20 432.20 541.00 432.20 540.90 C 432.30 540.20 432.50 539.60 432.70 538.90 C 432.70 538.80 432.80 538.70 432.80 538.60 C 433.00 538.00 433.10 537.40 433.30 536.90 C 433.30 536.80 433.40 536.70 433.40 536.60 C 433.60 536.10 433.70 535.70 433.90 535.20 C 433.90 535.10 434.00 534.90 434.00 534.80 C 434.20 534.30 434.40 533.80 434.60 533.20 C 434.60 533.10 434.70 533.00 434.70 532.90 C 434.90 532.50 435.10 532.10 435.30 531.60 C 435.40 531.40 435.40 531.30 435.50 531.10 C 435.70 530.70 435.90 530.30 436.10 529.90 C 436.20 529.80 436.20 529.60 436.30 529.50 C 436.50 529.00 436.80 528.60 437.10 528.10 L 438.00 526.50 C 438.40 525.70 438.90 525.00 439.40 524.30 C 439.50 524.10 439.70 523.90 439.80 523.70 C 440.10 523.20 440.50 522.70 440.80 522.20 C 441.00 522.00 441.10 521.70 441.30 521.50 C 441.60 521.10 441.90 520.70 442.30 520.30 C 442.50 520.00 442.80 519.70 443.00 519.50 C 443.50 518.90 444.00 518.40 444.50 517.90 C 444.60 517.80 444.70 517.70 444.80 517.60 C 445.20 517.20 445.60 516.80 446.00 516.40 C 446.20 516.20 446.50 515.90 446.70 515.70 C 447.10 515.40 447.40 515.10 447.80 514.80 C 448.00 514.60 448.30 514.40 448.50 514.20 C 448.90 513.90 449.30 513.60 449.70 513.30 C 449.90 513.20 450.10 513.00 450.30 512.90 C 450.90 512.50 451.50 512.10 452.10 511.80 C 452.50 511.60 452.90 511.30 453.30 511.10 C 453.40 511.00 453.50 511.00 453.60 510.90 C 454.00 510.70 454.40 510.50 454.80 510.40 C 454.80 510.40 454.90 510.40 454.90 510.40 C 455.30 510.30 455.60 510.10 456.00 510.00 C 456.10 510.00 456.20 509.90 456.30 509.90 C 456.60 509.80 456.80 509.70 457.10 509.70 C 457.20 509.70 457.40 509.60 457.50 509.60 C 457.60 509.60 457.80 509.50 457.90 509.50 C 458.10 509.50 458.20 509.40 458.40 509.40 C 458.50 509.40 458.70 509.30 458.80 509.30 C 458.90 509.30 459.00 509.30 459.10 509.30 C 459.50 509.20 460.00 509.20 460.40 509.20 L 460.40 509.20 C 460.80 509.20 461.20 509.20 461.60 509.20 C 461.70 509.20 461.80 509.20 461.90 509.20 C 462.20 509.20 462.50 509.30 462.80 509.30 C 462.80 509.30 462.90 509.30 463.00 509.30 C 463.30 509.40 463.70 509.40 464.00 509.50 C 464.10 509.50 464.20 509.60 464.30 509.60 C 464.50 509.70 464.80 509.80 465.00 509.80 C 465.10 509.80 465.20 509.90 465.30 509.90 C 465.60 510.00 465.80 510.10 466.10 510.30 C 466.10 510.30 466.20 510.30 466.20 510.40 L 433.10 491.50 Z" fill="url(#SVGID_10_)" fill-rule="nonzero" group-id="5" node-id="293" stroke="none" target-height="69.89996" target-width="67.5" target-x="398.7" target-y="490.2"></path><path d="M 599.90 389.20 C 605.10 386.20 610.40 385.50 614.40 387.70 C 622.40 392.30 622.40 407.10 614.50 420.90 L 524.90 576.10 L 524.40 576.90 L 523.90 577.70 C 520.10 584.40 515.00 589.50 509.90 592.40 C 504.80 595.30 499.80 596.00 495.90 593.80 L 495.40 593.50 L 437.00 560.40 C 429.30 556.00 429.20 541.60 436.90 528.30 L 437.80 526.70 C 441.60 520.00 446.70 514.90 451.80 512.00 C 456.90 509.10 461.90 508.40 465.80 510.60 L 509.70 535.60 L 585.40 404.50 C 589.40 397.60 594.60 392.30 599.90 389.20 Z" fill="url(#SVGID_11_)" fill-rule="nonzero" group-id="5,15" node-id="297" stroke="none" target-height="210.5" target-width="193.20001" target-x="429.2" target-y="385.5"></path><path d="M 949.30 738.60 C 949.30 739.40 949.10 740.30 948.90 741.10 C 948.90 741.20 948.90 741.30 948.80 741.40 C 948.50 742.20 948.10 742.90 947.70 743.70 C 947.60 743.80 947.50 744.00 947.40 744.10 C 946.90 744.80 946.20 745.50 945.50 746.20 C 945.00 746.60 944.40 747.00 943.90 747.40 C 943.40 747.80 942.90 748.20 942.40 748.50 L 826.40 815.90 C 825.00 816.70 823.30 817.40 821.70 818.00 C 821.10 818.20 820.50 818.40 819.90 818.60 C 819.10 818.80 818.30 819.00 817.50 819.20 C 816.50 819.40 815.50 819.60 814.50 819.70 C 814.30 819.70 814.00 819.80 813.80 819.80 C 812.40 819.90 811.10 820.00 809.70 820.00 C 809.50 820.00 809.30 820.00 809.10 820.00 C 807.70 820.00 806.40 819.90 805.10 819.80 C 804.90 819.80 804.70 819.80 804.50 819.70 C 803.20 819.50 801.90 819.30 800.60 819.00 C 800.40 818.90 800.10 818.90 799.90 818.80 C 798.80 818.50 797.60 818.20 796.60 817.80 C 796.40 817.70 796.20 817.70 796.00 817.60 C 794.70 817.10 793.50 816.50 792.30 815.90 L 581.70 694.40 C 576.90 691.60 574.50 688.00 574.60 684.40 L 574.50 721.10 C 574.50 724.70 576.90 728.30 581.60 731.10 L 791.90 852.50 C 793.00 853.10 794.10 853.70 795.40 854.20 C 795.50 854.20 795.50 854.20 795.60 854.30 C 795.80 854.40 796.00 854.40 796.20 854.50 C 796.90 854.80 797.60 855.00 798.30 855.20 C 798.70 855.30 799.10 855.40 799.50 855.50 C 799.70 855.60 800.00 855.60 800.20 855.70 C 800.40 855.70 800.60 855.80 800.80 855.80 C 801.60 856.00 802.40 856.10 803.20 856.20 C 803.50 856.20 803.80 856.30 804.10 856.30 C 804.30 856.30 804.50 856.30 804.70 856.40 C 805.00 856.40 805.30 856.50 805.60 856.50 C 806.40 856.60 807.20 856.60 808.00 856.60 C 808.20 856.60 808.50 856.60 808.70 856.60 C 808.90 856.60 809.10 856.60 809.40 856.60 C 809.80 856.60 810.10 856.60 810.50 856.60 C 811.40 856.60 812.30 856.50 813.20 856.40 C 813.30 856.40 813.40 856.40 813.50 856.40 C 813.70 856.40 814.00 856.30 814.20 856.30 C 814.90 856.20 815.60 856.10 816.30 856.00 C 816.60 855.90 816.90 855.80 817.20 855.80 C 818.00 855.60 818.80 855.40 819.60 855.20 C 820.00 855.10 820.50 855.00 820.90 854.90 C 821.10 854.80 821.20 854.70 821.40 854.70 C 823.10 854.10 824.70 853.50 826.10 852.60 L 942.10 785.20 C 942.20 785.10 942.30 785.10 942.40 785.00 C 942.90 784.70 943.20 784.40 943.70 784.10 C 944.30 783.70 944.90 783.30 945.30 782.90 C 945.30 782.90 945.40 782.80 945.40 782.80 C 946.00 782.30 946.50 781.70 946.90 781.20 C 947.00 781.10 947.10 780.90 947.20 780.80 C 947.30 780.70 947.40 780.50 947.50 780.40 C 947.60 780.20 947.80 780.00 947.90 779.80 C 948.20 779.30 948.40 778.90 948.50 778.40 C 948.50 778.30 948.50 778.20 948.60 778.20 C 948.60 778.10 948.70 778.00 948.70 777.90 C 948.80 777.60 948.90 777.30 948.90 777.00 C 949.00 776.50 949.00 776.10 949.10 775.60 C 949.10 775.50 949.10 775.50 949.10 775.40 L 949.10 775.40 L 949.30 738.60 Z" fill="url(#SVGID_12_)" fill-rule="nonzero" group-id="6,16" node-id="305" stroke="none" target-height="172.19995" target-width="374.8" target-x="574.5" target-y="684.4"></path><path d="M 942.20 728.60 C 951.60 734.10 951.70 743.00 942.30 748.50 L 826.30 815.90 C 816.90 821.40 801.40 821.40 792.00 815.90 L 581.70 694.40 C 572.20 688.90 572.20 680.00 581.60 674.50 L 697.60 607.10 C 707.00 601.60 722.40 601.60 731.90 607.10 L 942.20 728.60 Z" fill="url(#SVGID_13_)" fill-rule="nonzero" group-id="6,16,24" node-id="309" stroke="none" target-height="219.80005" target-width="379.5" target-x="572.2" target-y="601.6"></path><path d="M 881.90 706.30 C 889.30 710.60 889.40 717.60 882.00 721.90 L 783.20 779.30 C 775.80 783.60 763.70 783.60 756.30 779.30 L 603.10 690.90 C 595.70 686.60 595.60 679.60 603.00 675.30 L 701.80 617.90 C 709.20 613.60 721.30 613.60 728.70 617.90 L 881.90 706.30 Z" fill="url(#SVGID_14_)" fill-rule="nonzero" group-id="7" node-id="316" stroke="none" target-height="170" target-width="293.80005" target-x="595.6" target-y="613.6"></path><path d="M 794.90 712.50 L 773.30 725.10 L 703.80 685.00 L 725.40 672.40 Z" fill="#ffffff" fill-rule="nonzero" group-id="8,17" node-id="323" stroke="none" target-height="52.69995" target-width="91.10004" target-x="703.8" target-y="672.4"></path><path d="M 822.80 696.30 L 801.10 708.90 L 750.80 679.90 L 772.50 667.30 Z" fill="#ffffff" fill-rule="nonzero" group-id="8,18" node-id="328" stroke="none" target-height="41.600037" target-width="72" target-x="750.8" target-y="667.3"></path><path d="M 767.10 728.70 L 745.40 741.30 L 660.10 692.00 L 681.80 679.40 Z" fill="#ffffff" fill-rule="nonzero" group-id="8,19" node-id="333" stroke="none" target-height="61.899963" target-width="107" target-x="660.1" target-y="679.4"></path><path d="M 882.40 764.40 L 882.40 768.10 C 882.40 771.80 880.00 775.40 875.10 778.30 C 865.40 783.90 849.50 783.90 839.80 778.30 C 834.90 775.50 832.40 771.70 832.40 768.00 L 832.40 764.30 C 832.40 768.00 834.80 771.80 839.80 774.60 C 849.60 780.20 865.40 780.20 875.10 774.60 C 880.00 771.70 882.40 768.10 882.40 764.40 Z" fill="url(#SVGID_18_)" fill-rule="nonzero" group-id="9,20,25,26,28" node-id="347" stroke="none" target-height="19.600037" target-width="50" target-x="832.4" target-y="764.3"></path><path d="M 875.10 754.10 C 884.90 759.70 885.00 768.90 875.20 774.60 C 865.50 780.20 849.60 780.20 839.90 774.60 C 830.10 769.00 830.10 759.80 839.80 754.10 C 849.50 748.40 865.30 748.40 875.10 754.10 Z" fill="#ffffff" fill-rule="nonzero" group-id="9,20,25,27" node-id="353" stroke="none" target-height="31.799988" target-width="54.900024" target-x="830.1" target-y="748.4"></path></svg>